<?xml version="1.0" standalone="no"?>
<!DOCTYPE svg PUBLIC "-//W3C//DTD SVG 1.1//EN" 
  "http://www.w3.org/Graphics/SVG/1.1/DTD/svg11.dtd">
<!-- Created with ASCIIToSVG (http://9vx.org/~dho/a2s/) -->
<svg width="162px" height="256px" version="1.1"
  xmlns="http://www.w3.org/2000/svg" xmlns:xlink="http://www.w3.org/1999/xlink">
  <defs>
    <filter id="dsFilter" width="150%" height="150%">
      <feOffset result="offOut" in="SourceGraphic" dx="3" dy="3"/>
      <feColorMatrix result="matrixOut" in="offOut" type="matrix" values="0.2 0 0 0 0 0 0.2 0 0 0 0 0 0.2 0 0 0 0 0 1 0"/>
      <feBlend in="SourceGraphic" in2="matrixOut" mode="normal"/>
    </filter>
    <marker id="iPointer"
      viewBox="0 0 10 10" refX="5" refY="5" 
      markerUnits="strokeWidth"
      markerWidth="8" markerHeight="7"
      orient="auto">
      <path d="M 10 0 L 10 10 L 0 5 z" />
    </marker>
    <marker id="Pointer"
      viewBox="0 0 10 10" refX="5" refY="5" 
      markerUnits="strokeWidth"
      markerWidth="8" markerHeight="7"
      orient="auto">
      <path d="M 0 0 L 10 5 L 0 10 z" />
    </marker>
  </defs><g id="boxes" stroke="black" stroke-width="2" fill="none" >
<g id="group0">
	<path id="path0" filter="url(#dsFilter)" fill="#fff" d="M 22.5 8 L 139.5 8 L 139.5 62 Q 139.5 72 129.5 72 L 32.5 72 Q 22.5 72 22.5 62 Z" />
	<text x="53.1" y="28.8" id="text0" fill="#000" stroke="none" style="font-family:LMMono10,monospace;font-size:15.2px" >Client </text>

	<text x="62.1" y="60.8" id="text0" fill="#000" stroke="none" style="font-family:LMMono10,monospace;font-size:15.2px" >REQ </text>

</g>
<g id="group7">
	<path id="path7" filter="url(#dsFilter)" fill="#fff" d="M 22.5 178 Q 22.5 168 32.5 168 L 129.5 168 Q 139.5 168 139.5 178 L 139.5 232 L 22.5 232 Z" />
	<text x="62.1" y="188.8" id="text7" fill="#000" stroke="none" style="font-family:LMMono10,monospace;font-size:15.2px" >REP </text>

	<text x="53.1" y="220.8" id="text7" fill="#000" stroke="none" style="font-family:LMMono10,monospace;font-size:15.2px" >Server </text>

</g>
</g>
<g id="lines" stroke="black" stroke-width="2" fill="none" >
<g id="group48">
	<path id="path48" d="M 22.5 40 L 139.5 40 " />
</g>
<g id="group59">
	<path id="path59" d="M 22.5 200 L 139.5 200 " />
</g>
<g id="group116">
	<path id="path116" marker-end="url(#Pointer)" d="M 58.5 72 L 58.5 152 " />
</g>
<g id="group198">
	<path id="path198" marker-start="url(#iPointer)" d="M 103.5 88 L 103.5 168 " />
</g>
</g>
<g id="text" fill="black" style="font-family:LMMono10,monospace;font-size:15.2px" >
<text x="-0.9" y="124.8" id="text2" fill="#000" >Hello </text>
<text x="116.1" y="124.8" id="text3" fill="#000" >World</text>
</g>
</svg>
