<?xml version="1.0" standalone="no"?>
<!DOCTYPE svg PUBLIC "-//W3C//DTD SVG 1.1//EN" 
  "http://www.w3.org/Graphics/SVG/1.1/DTD/svg11.dtd">
<!-- Created with ASCIIToSVG (http://9vx.org/~dho/a2s/) -->
<svg width="405px" height="224px" version="1.1"
  xmlns="http://www.w3.org/2000/svg" xmlns:xlink="http://www.w3.org/1999/xlink">
  <defs>
    <filter id="dsFilter" width="150%" height="150%">
      <feOffset result="offOut" in="SourceGraphic" dx="3" dy="3"/>
      <feColorMatrix result="matrixOut" in="offOut" type="matrix" values="0.2 0 0 0 0 0 0.2 0 0 0 0 0 0.2 0 0 0 0 0 1 0"/>
      <feBlend in="SourceGraphic" in2="matrixOut" mode="normal"/>
    </filter>
    <marker id="iPointer"
      viewBox="0 0 10 10" refX="5" refY="5" 
      markerUnits="strokeWidth"
      markerWidth="8" markerHeight="7"
      orient="auto">
      <path d="M 10 0 L 10 10 L 0 5 z" />
    </marker>
    <marker id="Pointer"
      viewBox="0 0 10 10" refX="5" refY="5" 
      markerUnits="strokeWidth"
      markerWidth="8" markerHeight="7"
      orient="auto">
      <path d="M 0 0 L 10 5 L 0 10 z" />
    </marker>
  </defs><g id="boxes" stroke="black" stroke-width="2" fill="none" >
<g id="group0">
	<path id="path0" filter="url(#dsFilter)" fill="#fff" d="M 4.5 8 L 112.5 8 L 112.5 30 Q 112.5 40 102.5 40 L 14.5 40 Q 4.5 40 4.5 30 Z" />
	<text x="26.1" y="28.8" id="text0" fill="#000" stroke="none" style="font-family:LMMono10,monospace;font-size:15.2px" >Client </text>

</g>
<g id="group2">
	<path id="path2" filter="url(#dsFilter)" fill="#fff" d="M 148.5 8 L 256.5 8 L 256.5 30 Q 256.5 40 246.5 40 L 158.5 40 Q 148.5 40 148.5 30 Z" />
	<text x="170.1" y="28.8" id="text2" fill="#000" stroke="none" style="font-family:LMMono10,monospace;font-size:15.2px" >Client </text>

</g>
<g id="group4">
	<path id="path4" filter="url(#dsFilter)" fill="#fff" d="M 292.5 8 L 400.5 8 L 400.5 30 Q 400.5 40 390.5 40 L 302.5 40 Q 292.5 40 292.5 30 Z" />
	<text x="314.1" y="28.8" id="text4" fill="#000" stroke="none" style="font-family:LMMono10,monospace;font-size:15.2px" >Client </text>

</g>
<g id="group15">
	<path id="path15" filter="url(#dsFilter)" fill="#fff" d="M 4.5 178 Q 4.5 168 14.5 168 L 102.5 168 Q 112.5 168 112.5 178 L 112.5 200 L 4.5 200 Z" />
	<text x="26.1" y="188.8" id="text15" fill="#000" stroke="none" style="font-family:LMMono10,monospace;font-size:15.2px" >Server </text>

</g>
<g id="group17">
	<path id="path17" filter="url(#dsFilter)" fill="#fff" d="M 148.5 178 Q 148.5 168 158.5 168 L 246.5 168 Q 256.5 168 256.5 178 L 256.5 200 L 148.5 200 Z" />
	<text x="170.1" y="188.8" id="text17" fill="#000" stroke="none" style="font-family:LMMono10,monospace;font-size:15.2px" >Server </text>

</g>
<g id="group19">
	<path id="path19" filter="url(#dsFilter)" fill="#fff" d="M 292.5 178 Q 292.5 168 302.5 168 L 390.5 168 Q 400.5 168 400.5 178 L 400.5 200 L 292.5 200 Z" />
	<text x="314.1" y="188.8" id="text19" fill="#000" stroke="none" style="font-family:LMMono10,monospace;font-size:15.2px" >Server </text>

</g>
</g>
<g id="lines" stroke="black" stroke-width="2" fill="none" >
<g id="group115">
	<path id="path115" d="M 58.5 72 L 58.5 104 L 58.5 152 " />
</g>
<g id="group117">
	<path id="path117" d="M 58.5 104 L 202.5 104 L 346.5 104 L 346.5 56 " />
</g>
<g id="group340">
	<path id="path340" d="M 202.5 72 L 202.5 104 L 202.5 152 " />
</g>
<g id="group566">
	<path id="path566" d="M 346.5 104 L 346.5 152 " />
</g>
</g>
<g id="text" fill="black" style="font-family:LMMono10,monospace;font-size:15.2px" >
<text x="26.1" y="60.8" id="text3" fill="#000" >connect </text>
<text x="170.1" y="60.8" id="text4" fill="#000" >connect </text>
<text x="314.1" y="60.8" id="text5" fill="#000" >connect</text>
<text x="35.1" y="156.8" id="text6" fill="#000" >bind </text>
<text x="179.1" y="156.8" id="text7" fill="#000" >bind </text>
<text x="323.1" y="156.8" id="text8" fill="#000" >bind</text>
</g>
</svg>
