<?xml version="1.0" standalone="no"?>
<!DOCTYPE svg PUBLIC "-//W3C//DTD SVG 1.1//EN" 
  "http://www.w3.org/Graphics/SVG/1.1/DTD/svg11.dtd">
<!-- Created with ASCIIToSVG (http://9vx.org/~dho/a2s/) -->
<svg width="378px" height="240px" version="1.1"
  xmlns="http://www.w3.org/2000/svg" xmlns:xlink="http://www.w3.org/1999/xlink">
  <defs>
    <filter id="dsFilter" width="150%" height="150%">
      <feOffset result="offOut" in="SourceGraphic" dx="3" dy="3"/>
      <feColorMatrix result="matrixOut" in="offOut" type="matrix" values="0.2 0 0 0 0 0 0.2 0 0 0 0 0 0.2 0 0 0 0 0 1 0"/>
      <feBlend in="SourceGraphic" in2="matrixOut" mode="normal"/>
    </filter>
    <marker id="iPointer"
      viewBox="0 0 10 10" refX="5" refY="5" 
      markerUnits="strokeWidth"
      markerWidth="8" markerHeight="7"
      orient="auto">
      <path d="M 10 0 L 10 10 L 0 5 z" />
    </marker>
    <marker id="Pointer"
      viewBox="0 0 10 10" refX="5" refY="5" 
      markerUnits="strokeWidth"
      markerWidth="8" markerHeight="7"
      orient="auto">
      <path d="M 0 0 L 10 5 L 0 10 z" />
    </marker>
  </defs><g id="boxes" stroke="black" stroke-width="2" fill="none" >
<g id="group0">
	<path id="path0" filter="url(#dsFilter)" fill="#fff" d="M 4.5 8 L 85.5 8 L 85.5 62 Q 85.5 72 75.5 72 L 14.5 72 Q 4.5 72 4.5 62 Z" />
	<text x="26.1" y="28.8" id="text0" fill="#000" stroke="none" style="font-family:LMMono10,monospace;font-size:15.2px" >Node </text>

	<text x="26.1" y="60.8" id="text0" fill="#000" stroke="none" style="font-family:LMMono10,monospace;font-size:15.2px" >PUB </text>

</g>
<g id="group2">
	<path id="path2" filter="url(#dsFilter)" fill="#fff" d="M 148.5 8 L 229.5 8 L 229.5 62 Q 229.5 72 219.5 72 L 158.5 72 Q 148.5 72 148.5 62 Z" />
	<text x="170.1" y="28.8" id="text2" fill="#000" stroke="none" style="font-family:LMMono10,monospace;font-size:15.2px" >Node </text>

	<text x="170.1" y="60.8" id="text2" fill="#000" stroke="none" style="font-family:LMMono10,monospace;font-size:15.2px" >PUB </text>

</g>
<g id="group4">
	<path id="path4" filter="url(#dsFilter)" fill="#fff" d="M 292.5 8 L 373.5 8 L 373.5 62 Q 373.5 72 363.5 72 L 302.5 72 Q 292.5 72 292.5 62 Z" />
	<text x="314.1" y="28.8" id="text4" fill="#000" stroke="none" style="font-family:LMMono10,monospace;font-size:15.2px" >Node </text>

	<text x="314.1" y="60.8" id="text4" fill="#000" stroke="none" style="font-family:LMMono10,monospace;font-size:15.2px" >PUB </text>

</g>
<g id="group24">
	<path id="path24" filter="url(#dsFilter)" fill="#fff" d="M 130.5 162 Q 130.5 152 140.5 152 L 228.5 152 Q 238.5 152 238.5 162 L 238.5 216 L 130.5 216 Z" />
	<text x="170.1" y="172.8" id="text24" fill="#000" stroke="none" style="font-family:LMMono10,monospace;font-size:15.2px" >SUB </text>

	<text x="143.1" y="204.8" id="text24" fill="#000" stroke="none" style="font-family:LMMono10,monospace;font-size:15.2px" >Collector </text>

</g>
</g>
<g id="lines" stroke="black" stroke-width="2" fill="none" >
<g id="group32">
	<path id="path32" d="M 4.5 40 L 85.5 40 " />
</g>
<g id="group95">
	<path id="path95" d="M 40.5 72 L 40.5 94 Q 40.5 104 50.5 104 L 184.5 104 L 318.5 104 Q 328.5 104 328.5 94 L 328.5 72 " />
</g>
<g id="group253">
	<path id="path253" d="M 130.5 184 L 238.5 184 " />
</g>
<g id="group275">
	<path id="path275" d="M 148.5 40 L 229.5 40 " />
</g>
<g id="group338">
	<path id="path338" marker-end="url(#Pointer)" d="M 184.5 72 L 184.5 104 L 184.5 136 " />
</g>
<g id="group517">
	<path id="path517" d="M 292.5 40 L 373.5 40 " />
</g>
</g>
<g id="text" fill="black" style="font-family:LMMono10,monospace;font-size:15.2px" >
</g>
</svg>
