<?xml version="1.0" standalone="no"?>
<!DOCTYPE svg PUBLIC "-//W3C//DTD SVG 1.1//EN" 
  "http://www.w3.org/Graphics/SVG/1.1/DTD/svg11.dtd">
<!-- Created with ASCIIToSVG (http://9vx.org/~dho/a2s/) -->
<svg width="612px" height="96px" version="1.1"
  xmlns="http://www.w3.org/2000/svg" xmlns:xlink="http://www.w3.org/1999/xlink">
  <defs>
    <filter id="dsFilter" width="150%" height="150%">
      <feOffset result="offOut" in="SourceGraphic" dx="3" dy="3"/>
      <feColorMatrix result="matrixOut" in="offOut" type="matrix" values="0.2 0 0 0 0 0 0.2 0 0 0 0 0 0.2 0 0 0 0 0 1 0"/>
      <feBlend in="SourceGraphic" in2="matrixOut" mode="normal"/>
    </filter>
    <marker id="iPointer"
      viewBox="0 0 10 10" refX="5" refY="5" 
      markerUnits="strokeWidth"
      markerWidth="8" markerHeight="7"
      orient="auto">
      <path d="M 10 0 L 10 10 L 0 5 z" />
    </marker>
    <marker id="Pointer"
      viewBox="0 0 10 10" refX="5" refY="5" 
      markerUnits="strokeWidth"
      markerWidth="8" markerHeight="7"
      orient="auto">
      <path d="M 0 0 L 10 5 L 0 10 z" />
    </marker>
  </defs><g id="boxes" stroke="black" stroke-width="2" fill="none" >
<g id="group0">
	<path id="path0" filter="url(#dsFilter)" fill="#fff" d="M 4.5 8 L 292.5 8 L 292.5 40 L 4.5 40 Z" />
	<text x="17.1" y="28.8" id="text0" fill="#000" stroke="none" style="font-family:LMMono10,monospace;font-size:15.2px" >1</text>

	<text x="53.1" y="28.8" id="text0" fill="#000" stroke="none" style="font-family:LMMono10,monospace;font-size:15.2px" >0</text>

	<text x="89.1" y="28.8" id="text0" fill="#000" stroke="none" style="font-family:LMMono10,monospace;font-size:15.2px" >1</text>

	<text x="125.1" y="28.8" id="text0" fill="#000" stroke="none" style="font-family:LMMono10,monospace;font-size:15.2px" >0</text>

	<text x="161.1" y="28.8" id="text0" fill="#000" stroke="none" style="font-family:LMMono10,monospace;font-size:15.2px" >1</text>

	<text x="197.1" y="28.8" id="text0" fill="#000" stroke="none" style="font-family:LMMono10,monospace;font-size:15.2px" >0</text>

	<text x="233.1" y="28.8" id="text0" fill="#000" stroke="none" style="font-family:LMMono10,monospace;font-size:15.2px" >1</text>

	<text x="269.1" y="28.8" id="text0" fill="#000" stroke="none" style="font-family:LMMono10,monospace;font-size:15.2px" >0</text>

</g>
<g id="group9">
	<path id="path9" filter="url(#dsFilter)" fill="#fff" d="M 319.5 8 L 607.5 8 L 607.5 40 L 319.5 40 Z" />
	<text x="332.1" y="28.8" id="text9" fill="#000" stroke="none" style="font-family:LMMono10,monospace;font-size:15.2px" >1</text>

	<text x="368.1" y="28.8" id="text9" fill="#000" stroke="none" style="font-family:LMMono10,monospace;font-size:15.2px" >0</text>

	<text x="404.1" y="28.8" id="text9" fill="#000" stroke="none" style="font-family:LMMono10,monospace;font-size:15.2px" >1</text>

	<text x="440.1" y="28.8" id="text9" fill="#000" stroke="none" style="font-family:LMMono10,monospace;font-size:15.2px" >0</text>

	<text x="494.1" y="28.8" id="text9" fill="#000" stroke="none" style="font-family:LMMono10,monospace;font-size:15.2px" >Signature </text>

</g>
</g>
<g id="lines" stroke="black" stroke-width="2" fill="none" >
<g id="group54">
	<path id="path54" d="M 40.5 8 L 40.5 40 " />
</g>
<g id="group79">
	<path id="path79" d="M 76.5 8 L 76.5 40 " />
</g>
<g id="group104">
	<path id="path104" d="M 112.5 8 L 112.5 40 " />
</g>
<g id="group129">
	<path id="path129" d="M 148.5 8 L 148.5 40 " />
</g>
<g id="group154">
	<path id="path154" d="M 184.5 8 L 184.5 40 " />
</g>
<g id="group179">
	<path id="path179" d="M 220.5 8 L 220.5 40 " />
</g>
<g id="group204">
	<path id="path204" d="M 256.5 8 L 256.5 40 " />
</g>
<g id="group271">
	<path id="path271" d="M 355.5 8 L 355.5 40 " />
</g>
<g id="group296">
	<path id="path296" d="M 391.5 8 L 391.5 40 " />
</g>
<g id="group321">
	<path id="path321" d="M 427.5 8 L 427.5 40 " />
</g>
<g id="group346">
	<path id="path346" d="M 463.5 8 L 463.5 40 " />
</g>
</g>
<g id="text" fill="black" style="font-family:LMMono10,monospace;font-size:15.2px" >
<text x="116.1" y="76.8" id="text14" fill="#000" >Byte 0 </text>
<text x="431.1" y="76.8" id="text15" fill="#000" >Byte 1</text>
</g>
</svg>
