<?xml version="1.0" standalone="no"?>
<!DOCTYPE svg PUBLIC "-//W3C//DTD SVG 1.1//EN" 
  "http://www.w3.org/Graphics/SVG/1.1/DTD/svg11.dtd">
<!-- Created with ASCIIToSVG (http://9vx.org/~dho/a2s/) -->
<svg width="300px" height="222px" version="1.1"
  xmlns="http://www.w3.org/2000/svg" xmlns:xlink="http://www.w3.org/1999/xlink">
  <defs>
    <filter id="dsFilter" width="150%" height="150%">
      <feOffset result="offOut" in="SourceGraphic" dx="3" dy="3"/>
      <feColorMatrix result="matrixOut" in="offOut" type="matrix" values="0.2 0 0 0 0 0 0.2 0 0 0 0 0 0.2 0 0 0 0 0 1 0"/>
      <feGaussianBlur result="blurOut" in="matrixOut" stdDeviation="3"/>
      <feBlend in="SourceGraphic" in2="blurOut" mode="normal"/>
    </filter>
    <marker id="iPointer"
      viewBox="0 0 10 10" refX="5" refY="5" 
      markerUnits="strokeWidth"
      markerWidth="8" markerHeight="7"
      orient="auto">
      <path d="M 10 0 L 10 10 L 0 5 z" />
    </marker>
    <marker id="Pointer"
      viewBox="0 0 10 10" refX="5" refY="5" 
      markerUnits="strokeWidth"
      markerWidth="8" markerHeight="7"
      orient="auto">
      <path d="M 0 0 L 10 5 L 0 10 z" />
    </marker>
  </defs><g id="boxes" stroke="black" stroke-width="2" fill="none" >
<g id="groupLogo">
	<path id="pathLogo" filter="url(#dsFilter)" fill="#88d" d="M 4.5 18 Q 4.5 8 14.5 8 L 228.5 8 Q 238.5 8 238.5 18 L 238.5 126 Q 238.5 136 228.5 136 L 14.5 136 Q 4.5 136 4.5 126 Z" />
	<text x="26.1" y="108.8" id="textLogo" fill="#fff" stroke="none" style="font-family:Consolas,Monaco,Anonymous Pro,Anonymous,Bitstream Sans Mono,monospace;font-size:15.2px" >ascii </text>

	<text x="116.1" y="108.8" id="textLogo" fill="#fff" stroke="none" style="font-family:Consolas,Monaco,Anonymous Pro,Anonymous,Bitstream Sans Mono,monospace;font-size:15.2px" >2</text>

	<text x="179.1" y="108.8" id="textLogo" fill="#fff" stroke="none" style="font-family:Consolas,Monaco,Anonymous Pro,Anonymous,Bitstream Sans Mono,monospace;font-size:15.2px" >svg </text>

</g>
<g id="group2">
	<path id="path2" filter="url(#dsFilter)" fill="#fff" d="M 22.5 50 Q 22.5 40 32.5 40 L 48.5 40 Q 58.5 40 58.5 30 L 66.5 40 Q 76.5 40 76.5 50 L 76.5 78 Q 76.5 88 66.5 88 L 68.5 88 Q 58.5 88 58.5 78 L 32.5 88 Q 22.5 88 22.5 78 Z" />
</g>
<g id="group5">
	<path id="path5" filter="url(#dsFilter)" fill="#fff" d="M 94.5 50 Q 94.5 40 104.5 40 L 138.5 40 Q 148.5 40 148.5 50 L 148.5 78 Q 148.5 88 138.5 88 L 104.5 88 Q 94.5 88 94.5 78 Z" />
</g>
<g id="group7">
	<path id="path7" filter="url(#dsFilter)" fill="#fff" d="M 166.5 50 Q 166.5 40 176.5 40 L 210.5 40 Q 220.5 40 220.5 50 L 220.5 78 Q 220.5 88 210.5 88 L 176.5 88 Q 166.5 88 166.5 78 Z" />
</g>
<g id="group9">
	<path id="path9" filter="url(#dsFilter)" fill="#fff" d="M 40.5 66 Q 40.5 56 50.5 56 L 48.5 56 Q 58.5 56 58.5 66 L 58.5 62 Q 58.5 72 48.5 72 L 50.5 72 Q 40.5 72 40.5 62 Z" />
</g>
</g>
<g id="lines" stroke="black" stroke-width="2" fill="none" >
<g id="group148">
	<path id="path148" marker-end="url(#Pointer)" d="M 94.5 56 L 121.5 56 " />
</g>
<g id="group186">
	<path id="path186" marker-start="url(#iPointer)" d="M 121.5 72 L 148.5 72 " />
</g>
<g id="group246">
	<path id="path246" marker-end="url(#Pointer)" d="M 166.5 72 L 193.5 72 " />
</g>
<g id="group282">
	<path id="path282" marker-start="url(#iPointer)" d="M 193.5 56 L 220.5 56 " />
</g>
</g>
<g id="text" fill="black" style="font-family:Consolas,Monaco,Anonymous Pro,Anonymous,Bitstream Sans Mono,monospace;font-size:15.2px" >
<text x="8.1" y="156.8" id="text3" fill="#000" >https://9vx.org/~dho/a2s/ </text>
</g>
</svg>
