<?xml version="1.0" standalone="no"?>
<!DOCTYPE svg PUBLIC "-//W3C//DTD SVG 1.1//EN" 
  "http://www.w3.org/Graphics/SVG/1.1/DTD/svg11.dtd">
<!-- Created with ASCIIToSVG (http://9vx.org/~dho/a2s/) -->
<svg width="612px" height="1008px" version="1.1"
  xmlns="http://www.w3.org/2000/svg" xmlns:xlink="http://www.w3.org/1999/xlink">
  <defs>
    <filter id="dsFilter" width="150%" height="150%">
      <feOffset result="offOut" in="SourceGraphic" dx="3" dy="3"/>
      <feColorMatrix result="matrixOut" in="offOut" type="matrix" values="0.2 0 0 0 0 0 0.2 0 0 0 0 0 0.2 0 0 0 0 0 1 0"/>
      <feGaussianBlur result="blurOut" in="matrixOut" stdDeviation="3"/>
      <feBlend in="SourceGraphic" in2="blurOut" mode="normal"/>
    </filter>
    <marker id="iPointer"
      viewBox="0 0 10 10" refX="5" refY="5" 
      markerUnits="strokeWidth"
      markerWidth="8" markerHeight="7"
      orient="auto">
      <path d="M 10 0 L 10 10 L 0 5 z" />
    </marker>
    <marker id="Pointer"
      viewBox="0 0 10 10" refX="5" refY="5" 
      markerUnits="strokeWidth"
      markerWidth="8" markerHeight="7"
      orient="auto">
      <path d="M 0 0 L 10 5 L 0 10 z" />
    </marker>
  </defs><g id="boxes" stroke="black" stroke-width="2" fill="none" >
<g id="group0">
	<path id="path0" filter="url(#dsFilter)" fill="#fff" d="M 4.5 18 Q 4.5 8 14.5 8 L 138.5 8 Q 148.5 8 148.5 18 L 148.5 62 Q 148.5 72 138.5 72 L 14.5 72 Q 4.5 72 4.5 62 Z" />
	<text x="17.1" y="28.8" id="text0" fill="#000" stroke="none" style="font-family:Consolas,Monaco,Anonymous Pro,Anonymous,Bitstream Sans Mono,monospace;font-size:15.2px" >So you're not </text>

	<text x="17.1" y="44.8" id="text0" fill="#000" stroke="none" style="font-family:Consolas,Monaco,Anonymous Pro,Anonymous,Bitstream Sans Mono,monospace;font-size:15.2px" >getting every </text>

	<text x="17.1" y="60.8" id="text0" fill="#000" stroke="none" style="font-family:Consolas,Monaco,Anonymous Pro,Anonymous,Bitstream Sans Mono,monospace;font-size:15.2px" >message? </text>

</g>
<g id="group3">
	<path id="path3" filter="url(#dsFilter)" fill="#fff" d="M 229.5 34 Q 229.5 24 239.5 24 L 363.5 24 Q 373.5 24 373.5 34 L 373.5 78 Q 373.5 88 363.5 88 L 239.5 88 Q 229.5 88 229.5 78 Z" />
	<text x="242.1" y="44.8" id="text3" fill="#000" stroke="none" style="font-family:Consolas,Monaco,Anonymous Pro,Anonymous,Bitstream Sans Mono,monospace;font-size:15.2px" >Do you set a </text>

	<text x="242.1" y="60.8" id="text3" fill="#000" stroke="none" style="font-family:Consolas,Monaco,Anonymous Pro,Anonymous,Bitstream Sans Mono,monospace;font-size:15.2px" >subscription </text>

	<text x="242.1" y="76.8" id="text3" fill="#000" stroke="none" style="font-family:Consolas,Monaco,Anonymous Pro,Anonymous,Bitstream Sans Mono,monospace;font-size:15.2px" >for messages? </text>

</g>
<g id="group5">
	<path id="path5" filter="url(#dsFilter)" fill="#fff" d="M 454.5 34 Q 454.5 24 464.5 24 L 597.5 24 Q 607.5 24 607.5 34 L 607.5 94 Q 607.5 104 597.5 104 L 464.5 104 Q 454.5 104 454.5 94 Z" />
	<text x="467.1" y="44.8" id="text5" fill="#000" stroke="none" style="font-family:Consolas,Monaco,Anonymous Pro,Anonymous,Bitstream Sans Mono,monospace;font-size:15.2px" >On SUB sockets </text>

	<text x="467.1" y="60.8" id="text5" fill="#000" stroke="none" style="font-family:Consolas,Monaco,Anonymous Pro,Anonymous,Bitstream Sans Mono,monospace;font-size:15.2px" >you have to </text>

	<text x="467.1" y="76.8" id="text5" fill="#000" stroke="none" style="font-family:Consolas,Monaco,Anonymous Pro,Anonymous,Bitstream Sans Mono,monospace;font-size:15.2px" >subscribe to </text>

	<text x="467.1" y="92.8" id="text5" fill="#000" stroke="none" style="font-family:Consolas,Monaco,Anonymous Pro,Anonymous,Bitstream Sans Mono,monospace;font-size:15.2px" >get messages </text>

</g>
<g id="group17">
	<path id="path17" filter="url(#dsFilter)" fill="#fff" d="M 4.5 130 Q 4.5 120 14.5 120 L 147.5 120 Q 157.5 120 157.5 130 L 157.5 174 Q 157.5 184 147.5 184 L 14.5 184 Q 4.5 184 4.5 174 Z" />
	<text x="17.1" y="140.8" id="text17" fill="#000" stroke="none" style="font-family:Consolas,Monaco,Anonymous Pro,Anonymous,Bitstream Sans Mono,monospace;font-size:15.2px" >Are you losing </text>

	<text x="17.1" y="156.8" id="text17" fill="#000" stroke="none" style="font-family:Consolas,Monaco,Anonymous Pro,Anonymous,Bitstream Sans Mono,monospace;font-size:15.2px" >messages in a </text>

	<text x="17.1" y="172.8" id="text17" fill="#000" stroke="none" style="font-family:Consolas,Monaco,Anonymous Pro,Anonymous,Bitstream Sans Mono,monospace;font-size:15.2px" >SUB socket? </text>

</g>
<g id="group19">
	<path id="path19" filter="url(#dsFilter)" fill="#fff" d="M 229.5 146 Q 229.5 136 239.5 136 L 372.5 136 Q 382.5 136 382.5 146 L 382.5 190 Q 382.5 200 372.5 200 L 239.5 200 Q 229.5 200 229.5 190 Z" />
	<text x="242.1" y="156.8" id="text19" fill="#000" stroke="none" style="font-family:Consolas,Monaco,Anonymous Pro,Anonymous,Bitstream Sans Mono,monospace;font-size:15.2px" >Do you start </text>

	<text x="242.1" y="172.8" id="text19" fill="#000" stroke="none" style="font-family:Consolas,Monaco,Anonymous Pro,Anonymous,Bitstream Sans Mono,monospace;font-size:15.2px" >the SUB socket </text>

	<text x="242.1" y="188.8" id="text19" fill="#000" stroke="none" style="font-family:Consolas,Monaco,Anonymous Pro,Anonymous,Bitstream Sans Mono,monospace;font-size:15.2px" >after the PUB? </text>

</g>
<g id="group21">
	<path id="path21" filter="url(#dsFilter)" fill="#fff" d="M 463.5 146 Q 463.5 136 473.5 136 L 597.5 136 Q 607.5 136 607.5 146 L 607.5 222 Q 607.5 232 597.5 232 L 473.5 232 Q 463.5 232 463.5 222 Z" />
	<text x="476.1" y="156.8" id="text21" fill="#000" stroke="none" style="font-family:Consolas,Monaco,Anonymous Pro,Anonymous,Bitstream Sans Mono,monospace;font-size:15.2px" >Start all SUB </text>

	<text x="476.1" y="172.8" id="text21" fill="#000" stroke="none" style="font-family:Consolas,Monaco,Anonymous Pro,Anonymous,Bitstream Sans Mono,monospace;font-size:15.2px" >sockets first </text>

	<text x="476.1" y="188.8" id="text21" fill="#000" stroke="none" style="font-family:Consolas,Monaco,Anonymous Pro,Anonymous,Bitstream Sans Mono,monospace;font-size:15.2px" >then the PUB </text>

	<text x="476.1" y="204.8" id="text21" fill="#000" stroke="none" style="font-family:Consolas,Monaco,Anonymous Pro,Anonymous,Bitstream Sans Mono,monospace;font-size:15.2px" >s</text>

	<text x="494.1" y="204.8" id="text21" fill="#000" stroke="none" style="font-family:Consolas,Monaco,Anonymous Pro,Anonymous,Bitstream Sans Mono,monospace;font-size:15.2px" >ckets to </text>

	<text x="476.1" y="220.8" id="text21" fill="#000" stroke="none" style="font-family:Consolas,Monaco,Anonymous Pro,Anonymous,Bitstream Sans Mono,monospace;font-size:15.2px" >a</text>

	<text x="494.1" y="220.8" id="text21" fill="#000" stroke="none" style="font-family:Consolas,Monaco,Anonymous Pro,Anonymous,Bitstream Sans Mono,monospace;font-size:15.2px" >oid loss </text>

</g>
<g id="group34">
	<path id="path34" filter="url(#dsFilter)" fill="#fff" d="M 4.5 258 Q 4.5 248 14.5 248 L 138.5 248 Q 148.5 248 148.5 258 L 148.5 302 Q 148.5 312 138.5 312 L 14.5 312 Q 4.5 312 4.5 302 Z" />
	<text x="17.1" y="268.8" id="text34" fill="#000" stroke="none" style="font-family:Consolas,Monaco,Anonymous Pro,Anonymous,Bitstream Sans Mono,monospace;font-size:15.2px" >Are you using </text>

	<text x="17.1" y="284.8" id="text34" fill="#000" stroke="none" style="font-family:Consolas,Monaco,Anonymous Pro,Anonymous,Bitstream Sans Mono,monospace;font-size:15.2px" >REQ and REP </text>

	<text x="17.1" y="300.8" id="text34" fill="#000" stroke="none" style="font-family:Consolas,Monaco,Anonymous Pro,Anonymous,Bitstream Sans Mono,monospace;font-size:15.2px" >sockets? </text>

</g>
<g id="group36">
	<path id="path36" filter="url(#dsFilter)" fill="#fff" d="M 220.5 258 Q 220.5 248 230.5 248 L 372.5 248 Q 382.5 248 382.5 258 L 382.5 302 Q 382.5 312 372.5 312 L 230.5 312 Q 220.5 312 220.5 302 Z" />
	<text x="233.1" y="268.8" id="text36" fill="#000" stroke="none" style="font-family:Consolas,Monaco,Anonymous Pro,Anonymous,Bitstream Sans Mono,monospace;font-size:15.2px" >See explanation </text>

	<text x="233.1" y="284.8" id="text36" fill="#000" stroke="none" style="font-family:Consolas,Monaco,Anonymous Pro,Anonymous,Bitstream Sans Mono,monospace;font-size:15.2px" >of slow joiners </text>

	<text x="233.1" y="300.8" id="text36" fill="#000" stroke="none" style="font-family:Consolas,Monaco,Anonymous Pro,Anonymous,Bitstream Sans Mono,monospace;font-size:15.2px" >in the text </text>

</g>
<g id="group38">
	<path id="path38" filter="url(#dsFilter)" fill="#fff" d="M 436.5 274 Q 436.5 264 446.5 264 L 597.5 264 Q 607.5 264 607.5 274 L 607.5 350 Q 607.5 360 597.5 360 L 446.5 360 Q 436.5 360 436.5 350 Z" />
	<text x="449.1" y="284.8" id="text38" fill="#000" stroke="none" style="font-family:Consolas,Monaco,Anonymous Pro,Anonymous,Bitstream Sans Mono,monospace;font-size:15.2px" >Send and recv in </text>

	<text x="449.1" y="300.8" id="text38" fill="#000" stroke="none" style="font-family:Consolas,Monaco,Anonymous Pro,Anonymous,Bitstream Sans Mono,monospace;font-size:15.2px" >a</text>

	<text x="467.1" y="300.8" id="text38" fill="#000" stroke="none" style="font-family:Consolas,Monaco,Anonymous Pro,Anonymous,Bitstream Sans Mono,monospace;font-size:15.2px" >loop and check </text>

	<text x="449.1" y="316.8" id="text38" fill="#000" stroke="none" style="font-family:Consolas,Monaco,Anonymous Pro,Anonymous,Bitstream Sans Mono,monospace;font-size:15.2px" >return codes. </text>

	<text x="449.1" y="332.8" id="text38" fill="#000" stroke="none" style="font-family:Consolas,Monaco,Anonymous Pro,Anonymous,Bitstream Sans Mono,monospace;font-size:15.2px" >With REP, recv </text>

	<text x="449.1" y="348.8" id="text38" fill="#000" stroke="none" style="font-family:Consolas,Monaco,Anonymous Pro,Anonymous,Bitstream Sans Mono,monospace;font-size:15.2px" >and send </text>

</g>
<g id="group51">
	<path id="path51" filter="url(#dsFilter)" fill="#fff" d="M 229.5 370 Q 229.5 360 239.5 360 L 372.5 360 Q 382.5 360 382.5 370 L 382.5 446 Q 382.5 456 372.5 456 L 239.5 456 Q 229.5 456 229.5 446 Z" />
	<text x="242.1" y="380.8" id="text51" fill="#000" stroke="none" style="font-family:Consolas,Monaco,Anonymous Pro,Anonymous,Bitstream Sans Mono,monospace;font-size:15.2px" >First PULL can </text>

	<text x="242.1" y="396.8" id="text51" fill="#000" stroke="none" style="font-family:Consolas,Monaco,Anonymous Pro,Anonymous,Bitstream Sans Mono,monospace;font-size:15.2px" >grab many msgs </text>

	<text x="242.1" y="412.8" id="text51" fill="#000" stroke="none" style="font-family:Consolas,Monaco,Anonymous Pro,Anonymous,Bitstream Sans Mono,monospace;font-size:15.2px" >while others </text>

	<text x="242.1" y="428.8" id="text51" fill="#000" stroke="none" style="font-family:Consolas,Monaco,Anonymous Pro,Anonymous,Bitstream Sans Mono,monospace;font-size:15.2px" >are still busy </text>

	<text x="242.1" y="444.8" id="text51" fill="#000" stroke="none" style="font-family:Consolas,Monaco,Anonymous Pro,Anonymous,Bitstream Sans Mono,monospace;font-size:15.2px" >connecting </text>

</g>
<g id="group55">
	<path id="path55" filter="url(#dsFilter)" fill="#fff" d="M 4.5 386 Q 4.5 376 14.5 376 L 156.5 376 Q 166.5 376 166.5 386 L 166.5 414 Q 166.5 424 156.5 424 L 14.5 424 Q 4.5 424 4.5 414 Z" />
	<text x="26.1" y="396.8" id="text55" fill="#000" stroke="none" style="font-family:Consolas,Monaco,Anonymous Pro,Anonymous,Bitstream Sans Mono,monospace;font-size:15.2px" >Are you using </text>

	<text x="26.1" y="412.8" id="text55" fill="#000" stroke="none" style="font-family:Consolas,Monaco,Anonymous Pro,Anonymous,Bitstream Sans Mono,monospace;font-size:15.2px" >PUSH sockets? </text>

</g>
<g id="group58">
	<path id="path58" filter="url(#dsFilter)" fill="#fff" d="M 454.5 402 Q 454.5 392 464.5 392 L 588.5 392 Q 598.5 392 598.5 402 L 598.5 478 Q 598.5 488 588.5 488 L 464.5 488 Q 454.5 488 454.5 478 Z" />
	<text x="467.1" y="412.8" id="text58" fill="#000" stroke="none" style="font-family:Consolas,Monaco,Anonymous Pro,Anonymous,Bitstream Sans Mono,monospace;font-size:15.2px" >Use the load- </text>

	<text x="467.1" y="428.8" id="text58" fill="#000" stroke="none" style="font-family:Consolas,Monaco,Anonymous Pro,Anonymous,Bitstream Sans Mono,monospace;font-size:15.2px" >balancing </text>

	<text x="467.1" y="444.8" id="text58" fill="#000" stroke="none" style="font-family:Consolas,Monaco,Anonymous Pro,Anonymous,Bitstream Sans Mono,monospace;font-size:15.2px" >pattern and </text>

	<text x="467.1" y="460.8" id="text58" fill="#000" stroke="none" style="font-family:Consolas,Monaco,Anonymous Pro,Anonymous,Bitstream Sans Mono,monospace;font-size:15.2px" >ROUTER/DEALER </text>

	<text x="467.1" y="476.8" id="text58" fill="#000" stroke="none" style="font-family:Consolas,Monaco,Anonymous Pro,Anonymous,Bitstream Sans Mono,monospace;font-size:15.2px" >sockets </text>

</g>
<g id="group68">
	<path id="path68" filter="url(#dsFilter)" fill="#fff" d="M 4.5 482 Q 4.5 472 14.5 472 L 156.5 472 Q 166.5 472 166.5 482 L 166.5 526 Q 166.5 536 156.5 536 L 14.5 536 Q 4.5 536 4.5 526 Z" />
	<text x="26.1" y="492.8" id="text68" fill="#000" stroke="none" style="font-family:Consolas,Monaco,Anonymous Pro,Anonymous,Bitstream Sans Mono,monospace;font-size:15.2px" >Do you check </text>

	<text x="17.1" y="508.8" id="text68" fill="#000" stroke="none" style="font-family:Consolas,Monaco,Anonymous Pro,Anonymous,Bitstream Sans Mono,monospace;font-size:15.2px" >return codes on </text>

	<text x="26.1" y="524.8" id="text68" fill="#000" stroke="none" style="font-family:Consolas,Monaco,Anonymous Pro,Anonymous,Bitstream Sans Mono,monospace;font-size:15.2px" >all methods? </text>

</g>
<g id="group70">
	<path id="path70" filter="url(#dsFilter)" fill="#fff" d="M 238.5 498 Q 238.5 488 248.5 488 L 390.5 488 Q 400.5 488 400.5 498 L 400.5 542 Q 400.5 552 390.5 552 L 248.5 552 Q 238.5 552 238.5 542 Z" />
	<text x="251.1" y="508.8" id="text70" fill="#000" stroke="none" style="font-family:Consolas,Monaco,Anonymous Pro,Anonymous,Bitstream Sans Mono,monospace;font-size:15.2px" >Check every 0MQ </text>

	<text x="251.1" y="524.8" id="text70" fill="#000" stroke="none" style="font-family:Consolas,Monaco,Anonymous Pro,Anonymous,Bitstream Sans Mono,monospace;font-size:15.2px" >method call. In </text>

	<text x="251.1" y="540.8" id="text70" fill="#000" stroke="none" style="font-family:Consolas,Monaco,Anonymous Pro,Anonymous,Bitstream Sans Mono,monospace;font-size:15.2px" >C, use asserts </text>

</g>
<g id="group83">
	<path id="path83" filter="url(#dsFilter)" fill="#fff" d="M 4.5 594 Q 4.5 584 14.5 584 L 156.5 584 Q 166.5 584 166.5 594 L 166.5 638 Q 166.5 648 156.5 648 L 14.5 648 Q 4.5 648 4.5 638 Z" />
	<text x="17.1" y="604.8" id="text83" fill="#000" stroke="none" style="font-family:Consolas,Monaco,Anonymous Pro,Anonymous,Bitstream Sans Mono,monospace;font-size:15.2px" >Are you using a </text>

	<text x="17.1" y="620.8" id="text83" fill="#000" stroke="none" style="font-family:Consolas,Monaco,Anonymous Pro,Anonymous,Bitstream Sans Mono,monospace;font-size:15.2px" >socket in more </text>

	<text x="17.1" y="636.8" id="text83" fill="#000" stroke="none" style="font-family:Consolas,Monaco,Anonymous Pro,Anonymous,Bitstream Sans Mono,monospace;font-size:15.2px" >than 1 thread? </text>

</g>
<g id="group85">
	<path id="path85" filter="url(#dsFilter)" fill="#fff" d="M 238.5 594 Q 238.5 584 248.5 584 L 381.5 584 Q 391.5 584 391.5 594 L 391.5 638 Q 391.5 648 381.5 648 L 248.5 648 Q 238.5 648 238.5 638 Z" />
	<text x="251.1" y="604.8" id="text85" fill="#000" stroke="none" style="font-family:Consolas,Monaco,Anonymous Pro,Anonymous,Bitstream Sans Mono,monospace;font-size:15.2px" >Do not share </text>

	<text x="251.1" y="620.8" id="text85" fill="#000" stroke="none" style="font-family:Consolas,Monaco,Anonymous Pro,Anonymous,Bitstream Sans Mono,monospace;font-size:15.2px" >sockets across </text>

	<text x="251.1" y="636.8" id="text85" fill="#000" stroke="none" style="font-family:Consolas,Monaco,Anonymous Pro,Anonymous,Bitstream Sans Mono,monospace;font-size:15.2px" >threads </text>

</g>
<g id="group93">
	<path id="path93" filter="url(#dsFilter)" fill="#fff" d="M 454.5 674 Q 454.5 664 464.5 664 L 588.5 664 Q 598.5 664 598.5 674 L 598.5 750 Q 598.5 760 588.5 760 L 464.5 760 Q 454.5 760 454.5 750 Z" />
	<text x="467.1" y="684.8" id="text93" fill="#000" stroke="none" style="font-family:Consolas,Monaco,Anonymous Pro,Anonymous,Bitstream Sans Mono,monospace;font-size:15.2px" >To use inproc </text>

	<text x="467.1" y="700.8" id="text93" fill="#000" stroke="none" style="font-family:Consolas,Monaco,Anonymous Pro,Anonymous,Bitstream Sans Mono,monospace;font-size:15.2px" >your sockets </text>

	<text x="467.1" y="716.8" id="text93" fill="#000" stroke="none" style="font-family:Consolas,Monaco,Anonymous Pro,Anonymous,Bitstream Sans Mono,monospace;font-size:15.2px" >must be in </text>

	<text x="467.1" y="732.8" id="text93" fill="#000" stroke="none" style="font-family:Consolas,Monaco,Anonymous Pro,Anonymous,Bitstream Sans Mono,monospace;font-size:15.2px" >the same </text>

	<text x="467.1" y="748.8" id="text93" fill="#000" stroke="none" style="font-family:Consolas,Monaco,Anonymous Pro,Anonymous,Bitstream Sans Mono,monospace;font-size:15.2px" >0MQ context </text>

</g>
<g id="group95">
	<path id="path95" filter="url(#dsFilter)" fill="#fff" d="M 238.5 690 Q 238.5 680 248.5 680 L 381.5 680 Q 391.5 680 391.5 690 L 391.5 734 Q 391.5 744 381.5 744 L 248.5 744 Q 238.5 744 238.5 734 Z" />
	<text x="251.1" y="700.8" id="text95" fill="#000" stroke="none" style="font-family:Consolas,Monaco,Anonymous Pro,Anonymous,Bitstream Sans Mono,monospace;font-size:15.2px" >Do you call </text>

	<text x="251.1" y="716.8" id="text95" fill="#000" stroke="none" style="font-family:Consolas,Monaco,Anonymous Pro,Anonymous,Bitstream Sans Mono,monospace;font-size:15.2px" >zmq_ctx_new </text>

	<text x="251.1" y="732.8" id="text95" fill="#000" stroke="none" style="font-family:Consolas,Monaco,Anonymous Pro,Anonymous,Bitstream Sans Mono,monospace;font-size:15.2px" >twice or more? </text>

</g>
<g id="group97">
	<path id="path97" filter="url(#dsFilter)" fill="#fff" d="M 4.5 706 Q 4.5 696 14.5 696 L 138.5 696 Q 148.5 696 148.5 706 L 148.5 750 Q 148.5 760 138.5 760 L 14.5 760 Q 4.5 760 4.5 750 Z" />
	<text x="17.1" y="716.8" id="text97" fill="#000" stroke="none" style="font-family:Consolas,Monaco,Anonymous Pro,Anonymous,Bitstream Sans Mono,monospace;font-size:15.2px" >Are you using </text>

	<text x="17.1" y="732.8" id="text97" fill="#000" stroke="none" style="font-family:Consolas,Monaco,Anonymous Pro,Anonymous,Bitstream Sans Mono,monospace;font-size:15.2px" >the inproc:// </text>

	<text x="17.1" y="748.8" id="text97" fill="#000" stroke="none" style="font-family:Consolas,Monaco,Anonymous Pro,Anonymous,Bitstream Sans Mono,monospace;font-size:15.2px" >transport? </text>

</g>
<g id="group111">
	<path id="path111" filter="url(#dsFilter)" fill="#fff" d="M 238.5 802 Q 238.5 792 248.5 792 L 390.5 792 Q 400.5 792 400.5 802 L 400.5 846 Q 400.5 856 390.5 856 L 248.5 856 Q 238.5 856 238.5 846 Z" />
	<text x="251.1" y="812.8" id="text111" fill="#000" stroke="none" style="font-family:Consolas,Monaco,Anonymous Pro,Anonymous,Bitstream Sans Mono,monospace;font-size:15.2px" >Check that you </text>

	<text x="251.1" y="828.8" id="text111" fill="#000" stroke="none" style="font-family:Consolas,Monaco,Anonymous Pro,Anonymous,Bitstream Sans Mono,monospace;font-size:15.2px" >bind before you </text>

	<text x="251.1" y="844.8" id="text111" fill="#000" stroke="none" style="font-family:Consolas,Monaco,Anonymous Pro,Anonymous,Bitstream Sans Mono,monospace;font-size:15.2px" >connect </text>

</g>
<g id="group113">
	<path id="path113" filter="url(#dsFilter)" fill="#fff" d="M 4.5 818 Q 4.5 808 14.5 808 L 156.5 808 Q 166.5 808 166.5 818 L 166.5 846 Q 166.5 856 156.5 856 L 14.5 856 Q 4.5 856 4.5 846 Z" />
	<text x="26.1" y="828.8" id="text113" fill="#000" stroke="none" style="font-family:Consolas,Monaco,Anonymous Pro,Anonymous,Bitstream Sans Mono,monospace;font-size:15.2px" >Are you using </text>

	<text x="17.1" y="844.8" id="text113" fill="#000" stroke="none" style="font-family:Consolas,Monaco,Anonymous Pro,Anonymous,Bitstream Sans Mono,monospace;font-size:15.2px" >ROUTER sockets? </text>

</g>
<g id="group122">
	<path id="path122" filter="url(#dsFilter)" fill="#fff" d="M 238.5 898 Q 238.5 888 248.5 888 L 381.5 888 Q 391.5 888 391.5 898 L 391.5 974 Q 391.5 984 381.5 984 L 248.5 984 Q 238.5 984 238.5 974 Z" />
	<text x="251.1" y="908.8" id="text122" fill="#000" stroke="none" style="font-family:Consolas,Monaco,Anonymous Pro,Anonymous,Bitstream Sans Mono,monospace;font-size:15.2px" >Check that the </text>

	<text x="251.1" y="924.8" id="text122" fill="#000" stroke="none" style="font-family:Consolas,Monaco,Anonymous Pro,Anonymous,Bitstream Sans Mono,monospace;font-size:15.2px" >reply address </text>

	<text x="251.1" y="940.8" id="text122" fill="#000" stroke="none" style="font-family:Consolas,Monaco,Anonymous Pro,Anonymous,Bitstream Sans Mono,monospace;font-size:15.2px" >is valid. 0MQ </text>

	<text x="251.1" y="956.8" id="text122" fill="#000" stroke="none" style="font-family:Consolas,Monaco,Anonymous Pro,Anonymous,Bitstream Sans Mono,monospace;font-size:15.2px" >drops messages </text>

	<text x="251.1" y="972.8" id="text122" fill="#000" stroke="none" style="font-family:Consolas,Monaco,Anonymous Pro,Anonymous,Bitstream Sans Mono,monospace;font-size:15.2px" >it can't route </text>

</g>
<g id="group124">
	<path id="path124" filter="url(#dsFilter)" fill="#fff" d="M 445.5 898 Q 445.5 888 455.5 888 L 552.5 888 Q 562.5 888 562.5 898 L 562.5 974 Q 562.5 984 552.5 984 L 455.5 984 Q 445.5 984 445.5 974 Z" />
	<text x="458.1" y="908.8" id="text124" fill="#000" stroke="none" style="font-family:Consolas,Monaco,Anonymous Pro,Anonymous,Bitstream Sans Mono,monospace;font-size:15.2px" >If you use </text>

	<text x="458.1" y="924.8" id="text124" fill="#000" stroke="none" style="font-family:Consolas,Monaco,Anonymous Pro,Anonymous,Bitstream Sans Mono,monospace;font-size:15.2px" >identities </text>

	<text x="458.1" y="940.8" id="text124" fill="#000" stroke="none" style="font-family:Consolas,Monaco,Anonymous Pro,Anonymous,Bitstream Sans Mono,monospace;font-size:15.2px" >set them </text>

	<text x="458.1" y="956.8" id="text124" fill="#000" stroke="none" style="font-family:Consolas,Monaco,Anonymous Pro,Anonymous,Bitstream Sans Mono,monospace;font-size:15.2px" >before you </text>

	<text x="458.1" y="972.8" id="text124" fill="#000" stroke="none" style="font-family:Consolas,Monaco,Anonymous Pro,Anonymous,Bitstream Sans Mono,monospace;font-size:15.2px" >connect </text>

</g>
<g id="group126">
	<path id="path126" filter="url(#dsFilter)" fill="#fff" d="M 4.5 914 Q 4.5 904 14.5 904 L 147.5 904 Q 157.5 904 157.5 914 L 157.5 958 Q 157.5 968 147.5 968 L 14.5 968 Q 4.5 968 4.5 958 Z" />
	<text x="17.1" y="924.8" id="text126" fill="#000" stroke="none" style="font-family:Consolas,Monaco,Anonymous Pro,Anonymous,Bitstream Sans Mono,monospace;font-size:15.2px" >Make a minimal </text>

	<text x="17.1" y="940.8" id="text126" fill="#000" stroke="none" style="font-family:Consolas,Monaco,Anonymous Pro,Anonymous,Bitstream Sans Mono,monospace;font-size:15.2px" >test case, ask </text>

	<text x="17.1" y="956.8" id="text126" fill="#000" stroke="none" style="font-family:Consolas,Monaco,Anonymous Pro,Anonymous,Bitstream Sans Mono,monospace;font-size:15.2px" >on IRC channel </text>

</g>
</g>
<g id="lines" stroke="black" stroke-width="2" fill="none" >
<g id="group709">
	<path id="path709" marker-end="url(#Pointer)" d="M 85.5 72 L 85.5 104 " />
</g>
<g id="group717">
	<path id="path717" marker-end="url(#Pointer)" d="M 85.5 184 L 85.5 232 " />
</g>
<g id="group726">
	<path id="path726" marker-end="url(#Pointer)" d="M 85.5 312 L 85.5 360 " />
</g>
<g id="group734">
	<path id="path734" marker-end="url(#Pointer)" d="M 85.5 424 L 85.5 456 " />
</g>
<g id="group742">
	<path id="path742" marker-end="url(#Pointer)" d="M 85.5 536 L 85.5 568 " />
</g>
<g id="group750">
	<path id="path750" marker-end="url(#Pointer)" d="M 85.5 648 L 85.5 680 " />
</g>
<g id="group758">
	<path id="path758" marker-end="url(#Pointer)" d="M 85.5 760 L 85.5 792 " />
</g>
<g id="group765">
	<path id="path765" marker-end="url(#Pointer)" d="M 85.5 856 L 85.5 888 " />
</g>
<g id="group1171">
	<path id="path1171" marker-end="url(#Pointer)" d="M 148.5 280 L 174.5 280 Q 184.5 280 184.5 290 L 184.5 318 Q 184.5 328 194.5 328 L 399.5 328 Q 409.5 328 409.5 318 L 409.5 322 Q 409.5 312 419.5 312 L 427.5 312 " />
</g>
<g id="group1200">
	<path id="path1200" marker-end="url(#Pointer)" d="M 148.5 728 L 183.5 728 Q 193.5 728 193.5 718 L 193.5 722 Q 193.5 712 203.5 712 L 229.5 712 " />
</g>
<g id="group1228">
	<path id="path1228" marker-end="url(#Pointer)" d="M 157.5 152 L 183.5 152 Q 193.5 152 193.5 142 L 193.5 66 Q 193.5 56 203.5 56 L 220.5 56 " />
</g>
<g id="group1307">
	<path id="path1307" marker-end="url(#Pointer)" d="M 166.5 392 L 220.5 392 " />
</g>
<g id="group1315">
	<path id="path1315" marker-end="url(#Pointer)" d="M 166.5 504 L 192.5 504 Q 202.5 504 202.5 514 L 202.5 510 Q 202.5 520 212.5 520 L 229.5 520 " />
</g>
<g id="group1323">
	<path id="path1323" marker-end="url(#Pointer)" d="M 166.5 616 L 229.5 616 " />
</g>
<g id="group1338">
	<path id="path1338" marker-end="url(#Pointer)" d="M 166.5 840 L 192.5 840 Q 202.5 840 202.5 850 L 202.5 926 Q 202.5 936 212.5 936 L 229.5 936 " />
</g>
<g id="group2237">
	<path id="path2237" marker-end="url(#Pointer)" d="M 301.5 88 L 301.5 120 " />
</g>
<g id="group2308">
	<path id="path2308" marker-end="url(#Pointer)" d="M 310.5 200 L 310.5 232 " />
</g>
<g id="group2406">
	<path id="path2406" marker-end="url(#Pointer)" d="M 319.5 744 L 319.5 776 " />
</g>
<g id="group2742">
	<path id="path2742" marker-end="url(#Pointer)" d="M 373.5 56 L 445.5 56 " />
</g>
<g id="group2813">
	<path id="path2813" marker-end="url(#Pointer)" d="M 382.5 168 L 454.5 168 " />
</g>
<g id="group2829">
	<path id="path2829" marker-end="url(#Pointer)" d="M 382.5 408 L 399.5 408 Q 409.5 408 409.5 418 L 409.5 430 Q 409.5 440 419.5 440 L 445.5 440 " />
</g>
<g id="group2912">
	<path id="path2912" marker-end="url(#Pointer)" d="M 391.5 712 L 445.5 712 " />
</g>
<g id="group2927">
	<path id="path2927" marker-end="url(#Pointer)" d="M 391.5 936 L 436.5 936 " />
</g>
<g id="group3576">
	<path id="path3576" marker-start="url(#iPointer)" d="M 490.5 216 L 490.5 200 L 490.5 184 " />
<circle cx="490.5" cy="200" r="3" fill="black" /></g>
</g>
<g id="text" fill="black" style="font-family:LMMono10,monospace;font-size:15.2px" >
<text x="386.1" y="76.8" id="text8" fill="#000" >No </text>
<text x="170.1" y="172.8" id="text16" fill="#000" >Yes </text>
<text x="395.1" y="188.8" id="text20" fill="#000" >Yes </text>
<text x="98.1" y="204.8" id="text22" fill="#000" >No </text>
<text x="323.1" y="220.8" id="text25" fill="#000" >No </text>
<text x="161.1" y="268.8" id="text29" fill="#000" >Yes </text>
<text x="98.1" y="348.8" id="text40" fill="#000" >No </text>
<text x="179.1" y="412.8" id="text46" fill="#000" >Yes </text>
<text x="98.1" y="444.8" id="text51" fill="#000" >No </text>
<text x="179.1" y="492.8" id="text57" fill="#000" >No </text>
<text x="98.1" y="556.8" id="text63" fill="#000" >Yes </text>
<text x="179.1" y="636.8" id="text69" fill="#000" >Yes </text>
<text x="98.1" y="668.8" id="text71" fill="#000" >No </text>
<text x="395.1" y="732.8" id="text80" fill="#000" >Yes </text>
<text x="161.1" y="748.8" id="text83" fill="#000" >Yes </text>
<text x="332.1" y="764.8" id="text85" fill="#000" >No </text>
<text x="98.1" y="780.8" id="text86" fill="#000" >No </text>
<text x="179.1" y="828.8" id="text89" fill="#000" >Yes </text>
<text x="98.1" y="876.8" id="text93" fill="#000" >No </text>
</g>
</svg>
