<?xml version="1.0" standalone="no"?>
<!DOCTYPE svg PUBLIC "-//W3C//DTD SVG 1.1//EN" 
  "http://www.w3.org/Graphics/SVG/1.1/DTD/svg11.dtd">
<!-- Created with ASCIIToSVG (http://9vx.org/~dho/a2s/) -->
<svg width="306px" height="400px" version="1.1"
  xmlns="http://www.w3.org/2000/svg" xmlns:xlink="http://www.w3.org/1999/xlink">
  <defs>
    <filter id="dsFilter" width="150%" height="150%">
      <feOffset result="offOut" in="SourceGraphic" dx="3" dy="3"/>
      <feColorMatrix result="matrixOut" in="offOut" type="matrix" values="0.2 0 0 0 0 0 0.2 0 0 0 0 0 0.2 0 0 0 0 0 1 0"/>
      <feBlend in="SourceGraphic" in2="matrixOut" mode="normal"/>
    </filter>
    <marker id="iPointer"
      viewBox="0 0 10 10" refX="5" refY="5" 
      markerUnits="strokeWidth"
      markerWidth="8" markerHeight="7"
      orient="auto">
      <path d="M 10 0 L 10 10 L 0 5 z" />
    </marker>
    <marker id="Pointer"
      viewBox="0 0 10 10" refX="5" refY="5" 
      markerUnits="strokeWidth"
      markerWidth="8" markerHeight="7"
      orient="auto">
      <path d="M 0 0 L 10 5 L 0 10 z" />
    </marker>
  </defs><g id="boxes" stroke="black" stroke-width="2" fill="none" >
<g id="group0">
	<path id="path0" filter="url(#dsFilter)" fill="#fff" d="M 4.5 8 L 85.5 8 L 85.5 62 Q 85.5 72 75.5 72 L 14.5 72 Q 4.5 72 4.5 62 Z" />
	<text x="17.1" y="28.8" id="text0" fill="#000" stroke="none" style="font-family:LMMono10,monospace;font-size:15.2px" >Client </text>

	<text x="26.1" y="60.8" id="text0" fill="#000" stroke="none" style="font-family:LMMono10,monospace;font-size:15.2px" >REQ </text>

</g>
<g id="group2">
	<path id="path2" filter="url(#dsFilter)" fill="#fff" d="M 112.5 8 L 193.5 8 L 193.5 62 Q 193.5 72 183.5 72 L 122.5 72 Q 112.5 72 112.5 62 Z" />
	<text x="125.1" y="28.8" id="text2" fill="#000" stroke="none" style="font-family:LMMono10,monospace;font-size:15.2px" >Client </text>

	<text x="134.1" y="60.8" id="text2" fill="#000" stroke="none" style="font-family:LMMono10,monospace;font-size:15.2px" >REQ </text>

</g>
<g id="group4">
	<path id="path4" filter="url(#dsFilter)" fill="#fff" d="M 220.5 8 L 301.5 8 L 301.5 62 Q 301.5 72 291.5 72 L 230.5 72 Q 220.5 72 220.5 62 Z" />
	<text x="233.1" y="28.8" id="text4" fill="#000" stroke="none" style="font-family:LMMono10,monospace;font-size:15.2px" >Client </text>

	<text x="242.1" y="60.8" id="text4" fill="#000" stroke="none" style="font-family:LMMono10,monospace;font-size:15.2px" >REQ </text>

</g>
<g id="group24">
	<path id="path24" filter="url(#dsFilter)" fill="#fff" d="M 94.5 146 Q 94.5 136 104.5 136 L 201.5 136 Q 211.5 136 211.5 146 L 211.5 238 Q 211.5 248 201.5 248 L 104.5 248 Q 94.5 248 94.5 238 Z" />
	<text x="125.1" y="156.8" id="text24" fill="#000" stroke="none" style="font-family:LMMono10,monospace;font-size:15.2px" >ROUTER </text>

	<text x="134.1" y="188.8" id="text24" fill="#000" stroke="none" style="font-family:LMMono10,monospace;font-size:15.2px" >Load </text>

	<text x="116.1" y="204.8" id="text24" fill="#000" stroke="none" style="font-family:LMMono10,monospace;font-size:15.2px" >balancer </text>

	<text x="125.1" y="236.8" id="text24" fill="#000" stroke="none" style="font-family:LMMono10,monospace;font-size:15.2px" >ROUTER </text>

</g>
<g id="group37">
	<path id="path37" filter="url(#dsFilter)" fill="#fff" d="M 4.5 322 Q 4.5 312 14.5 312 L 75.5 312 Q 85.5 312 85.5 322 L 85.5 376 L 4.5 376 Z" />
	<text x="26.1" y="332.8" id="text37" fill="#000" stroke="none" style="font-family:LMMono10,monospace;font-size:15.2px" >REQ </text>

	<text x="17.1" y="364.8" id="text37" fill="#000" stroke="none" style="font-family:LMMono10,monospace;font-size:15.2px" >Worker </text>

</g>
<g id="group40">
	<path id="path40" filter="url(#dsFilter)" fill="#fff" d="M 112.5 322 Q 112.5 312 122.5 312 L 183.5 312 Q 193.5 312 193.5 322 L 193.5 376 L 112.5 376 Z" />
	<text x="134.1" y="332.8" id="text40" fill="#000" stroke="none" style="font-family:LMMono10,monospace;font-size:15.2px" >REQ </text>

	<text x="125.1" y="364.8" id="text40" fill="#000" stroke="none" style="font-family:LMMono10,monospace;font-size:15.2px" >Worker </text>

</g>
<g id="group43">
	<path id="path43" filter="url(#dsFilter)" fill="#fff" d="M 220.5 322 Q 220.5 312 230.5 312 L 291.5 312 Q 301.5 312 301.5 322 L 301.5 376 L 220.5 376 Z" />
	<text x="242.1" y="332.8" id="text43" fill="#000" stroke="none" style="font-family:LMMono10,monospace;font-size:15.2px" >REQ </text>

	<text x="233.1" y="364.8" id="text43" fill="#000" stroke="none" style="font-family:LMMono10,monospace;font-size:15.2px" >Worker </text>

</g>
</g>
<g id="lines" stroke="black" stroke-width="2" fill="none" >
<g id="group60">
	<path id="path60" d="M 4.5 40 L 85.5 40 " />
</g>
<g id="group80">
	<path id="path80" d="M 4.5 344 L 85.5 344 " />
</g>
<g id="group164">
	<path id="path164" d="M 40.5 72 L 40.5 94 Q 40.5 104 50.5 104 L 148.5 104 L 246.5 104 Q 256.5 104 256.5 94 L 256.5 72 " />
</g>
<g id="group180">
	<path id="path180" d="M 40.5 312 L 40.5 290 Q 40.5 280 50.5 280 L 148.5 280 L 246.5 280 Q 256.5 280 256.5 290 L 256.5 312 " />
</g>
<g id="group322">
	<path id="path322" d="M 94.5 168 L 211.5 168 " />
</g>
<g id="group326">
	<path id="path326" d="M 94.5 216 L 211.5 216 " />
</g>
<g id="group366">
	<path id="path366" d="M 112.5 40 L 193.5 40 " />
</g>
<g id="group386">
	<path id="path386" d="M 112.5 344 L 193.5 344 " />
</g>
<g id="group470">
	<path id="path470" d="M 148.5 72 L 148.5 104 L 148.5 136 " />
</g>
<g id="group482">
	<path id="path482" d="M 148.5 248 L 148.5 280 L 148.5 312 " />
</g>
<g id="group670">
	<path id="path670" d="M 220.5 40 L 301.5 40 " />
</g>
<g id="group690">
	<path id="path690" d="M 220.5 344 L 301.5 344 " />
</g>
</g>
<g id="text" fill="black" style="font-family:LMMono10,monospace;font-size:15.2px" >
<text x="233.1" y="204.8" id="text9" fill="#000" >Broker</text>
</g>
</svg>
