<?xml version="1.0" standalone="no"?>
<!DOCTYPE svg PUBLIC "-//W3C//DTD SVG 1.1//EN" 
  "http://www.w3.org/Graphics/SVG/1.1/DTD/svg11.dtd">
<!-- Created with ASCIIToSVG (http://9vx.org/~dho/a2s/) -->
<svg width="423px" height="512px" version="1.1"
  xmlns="http://www.w3.org/2000/svg" xmlns:xlink="http://www.w3.org/1999/xlink">
  <defs>
    <filter id="dsFilter" width="150%" height="150%">
      <feOffset result="offOut" in="SourceGraphic" dx="3" dy="3"/>
      <feColorMatrix result="matrixOut" in="offOut" type="matrix" values="0.2 0 0 0 0 0 0.2 0 0 0 0 0 0.2 0 0 0 0 0 1 0"/>
      <feGaussianBlur result="blurOut" in="matrixOut" stdDeviation="3"/>
      <feBlend in="SourceGraphic" in2="blurOut" mode="normal"/>
    </filter>
    <marker id="iPointer"
      viewBox="0 0 10 10" refX="5" refY="5" 
      markerUnits="strokeWidth"
      markerWidth="8" markerHeight="7"
      orient="auto">
      <path d="M 10 0 L 10 10 L 0 5 z" />
    </marker>
    <marker id="Pointer"
      viewBox="0 0 10 10" refX="5" refY="5" 
      markerUnits="strokeWidth"
      markerWidth="8" markerHeight="7"
      orient="auto">
      <path d="M 0 0 L 10 5 L 0 10 z" />
    </marker>
  </defs><g id="boxes" stroke="black" stroke-width="2" fill="none" >
<g id="group0">
	<path id="path0" filter="url(#dsFilter)" fill="#fff" d="M 40.5 8 L 130.5 8 L 130.5 62 Q 130.5 72 120.5 72 L 50.5 72 Q 40.5 72 40.5 62 Z" />
	<text x="53.1" y="28.8" id="text0" fill="#000" stroke="none" style="font-family:Consolas,Monaco,Anonymous Pro,Anonymous,Bitstream Sans Mono,monospace;font-size:15.2px" >Client </text>

	<text x="53.1" y="60.8" id="text0" fill="#000" stroke="none" style="font-family:Consolas,Monaco,Anonymous Pro,Anonymous,Bitstream Sans Mono,monospace;font-size:15.2px" >DEALER </text>

</g>
<g id="group2">
	<path id="path2" filter="url(#dsFilter)" fill="#fff" d="M 166.5 8 L 256.5 8 L 256.5 62 Q 256.5 72 246.5 72 L 176.5 72 Q 166.5 72 166.5 62 Z" />
	<text x="179.1" y="28.8" id="text2" fill="#000" stroke="none" style="font-family:Consolas,Monaco,Anonymous Pro,Anonymous,Bitstream Sans Mono,monospace;font-size:15.2px" >Client </text>

	<text x="179.1" y="60.8" id="text2" fill="#000" stroke="none" style="font-family:Consolas,Monaco,Anonymous Pro,Anonymous,Bitstream Sans Mono,monospace;font-size:15.2px" >DEALER </text>

</g>
<g id="group4">
	<path id="path4" filter="url(#dsFilter)" fill="#fff" d="M 292.5 8 L 382.5 8 L 382.5 62 Q 382.5 72 372.5 72 L 302.5 72 Q 292.5 72 292.5 62 Z" />
	<text x="305.1" y="28.8" id="text4" fill="#000" stroke="none" style="font-family:Consolas,Monaco,Anonymous Pro,Anonymous,Bitstream Sans Mono,monospace;font-size:15.2px" >Client </text>

	<text x="305.1" y="60.8" id="text4" fill="#000" stroke="none" style="font-family:Consolas,Monaco,Anonymous Pro,Anonymous,Bitstream Sans Mono,monospace;font-size:15.2px" >DEALER </text>

</g>
<g id="group23">
	<path id="path23" filter="url(#dsFilter)" fill="#fff" d="M 157.5 210 Q 157.5 200 167.5 200 L 255.5 200 Q 265.5 200 265.5 210 L 265.5 286 Q 265.5 296 255.5 296 L 167.5 296 Q 157.5 296 157.5 286 Z" />
	<text x="179.1" y="220.8" id="text23" fill="#000" stroke="none" style="font-family:Consolas,Monaco,Anonymous Pro,Anonymous,Bitstream Sans Mono,monospace;font-size:15.2px" >ROUTER </text>

	<text x="179.1" y="252.8" id="text23" fill="#000" stroke="none" style="font-family:Consolas,Monaco,Anonymous Pro,Anonymous,Bitstream Sans Mono,monospace;font-size:15.2px" >Server </text>

	<text x="179.1" y="284.8" id="text23" fill="#000" stroke="none" style="font-family:Consolas,Monaco,Anonymous Pro,Anonymous,Bitstream Sans Mono,monospace;font-size:15.2px" >DEALER </text>

</g>
<g id="group34">
	<path id="path34" filter="url(#dsFilter)" fill="#fff" d="M 40.5 418 Q 40.5 408 50.5 408 L 120.5 408 Q 130.5 408 130.5 418 L 130.5 472 L 40.5 472 Z" />
	<text x="53.1" y="428.8" id="text34" fill="#000" stroke="none" style="font-family:Consolas,Monaco,Anonymous Pro,Anonymous,Bitstream Sans Mono,monospace;font-size:15.2px" >DEALER </text>

	<text x="53.1" y="460.8" id="text34" fill="#000" stroke="none" style="font-family:Consolas,Monaco,Anonymous Pro,Anonymous,Bitstream Sans Mono,monospace;font-size:15.2px" >Worker </text>

</g>
<g id="group36">
	<path id="path36" filter="url(#dsFilter)" fill="#fff" d="M 166.5 418 Q 166.5 408 176.5 408 L 246.5 408 Q 256.5 408 256.5 418 L 256.5 472 L 166.5 472 Z" />
	<text x="179.1" y="428.8" id="text36" fill="#000" stroke="none" style="font-family:Consolas,Monaco,Anonymous Pro,Anonymous,Bitstream Sans Mono,monospace;font-size:15.2px" >DEALER </text>

	<text x="179.1" y="460.8" id="text36" fill="#000" stroke="none" style="font-family:Consolas,Monaco,Anonymous Pro,Anonymous,Bitstream Sans Mono,monospace;font-size:15.2px" >Worker </text>

</g>
<g id="group38">
	<path id="path38" filter="url(#dsFilter)" fill="#fff" d="M 292.5 418 Q 292.5 408 302.5 408 L 372.5 408 Q 382.5 408 382.5 418 L 382.5 472 L 292.5 472 Z" />
	<text x="305.1" y="428.8" id="text38" fill="#000" stroke="none" style="font-family:Consolas,Monaco,Anonymous Pro,Anonymous,Bitstream Sans Mono,monospace;font-size:15.2px" >DEALER </text>

	<text x="305.1" y="460.8" id="text38" fill="#000" stroke="none" style="font-family:Consolas,Monaco,Anonymous Pro,Anonymous,Bitstream Sans Mono,monospace;font-size:15.2px" >Worker </text>

</g>
</g>
<g id="lines" stroke="black" stroke-width="2" fill="none" >
<g id="group184">
	<path id="path184" d="M 40.5 40 L 130.5 40 " />
</g>
<g id="group210">
	<path id="path210" d="M 40.5 440 L 130.5 440 " />
</g>
<g id="group350">
	<path id="path350" d="M 85.5 104 L 85.5 110 Q 85.5 120 95.5 120 L 211.5 120 L 327.5 120 Q 337.5 120 337.5 110 L 337.5 88 " />
</g>
<g id="group367">
	<path id="path367" marker-start="url(#iPointer)" marker-end="url(#Pointer)" d="M 85.5 376 L 85.5 354 Q 85.5 344 95.5 344 L 211.5 344 L 327.5 344 Q 337.5 344 337.5 354 L 337.5 376 " />
</g>
<g id="group614">
	<path id="path614" d="M 157.5 232 L 265.5 232 " />
</g>
<g id="group617">
	<path id="path617" d="M 157.5 264 L 265.5 264 " />
</g>
<g id="group636">
	<path id="path636" d="M 166.5 40 L 256.5 40 " />
</g>
<g id="group662">
	<path id="path662" d="M 166.5 440 L 256.5 440 " />
</g>
<g id="group741">
	<path id="path741" stroke-dasharray="5 5" d="M 193.5 152 L 14.5 152 Q 4.5 152 4.5 162 L 4.5 478 Q 4.5 488 14.5 488 L 408.5 488 Q 418.5 488 418.5 478 L 418.5 162 Q 418.5 152 408.5 152 L 220.5 152 " />
</g>
<g id="group802">
	<path id="path802" marker-end="url(#Pointer)" d="M 211.5 104 L 211.5 120 L 211.5 168 " />
</g>
<g id="group816">
	<path id="path816" marker-end="url(#Pointer)" d="M 211.5 328 L 211.5 344 L 211.5 376 " />
</g>
<g id="group1086">
	<path id="path1086" d="M 292.5 40 L 382.5 40 " />
</g>
<g id="group1112">
	<path id="path1112" d="M 292.5 440 L 382.5 440 " />
</g>
</g>
<g id="text" fill="black" style="font-family:LMMono10,monospace;font-size:15.2px" >
<text x="53.1" y="92.8" id="text6" fill="#000" >connect </text>
<text x="179.1" y="92.8" id="text7" fill="#000" >connect </text>
<text x="305.1" y="92.8" id="text8" fill="#000" >connect</text>
<text x="188.1" y="188.8" id="text9" fill="#000" >bind </text>
<text x="188.1" y="316.8" id="text13" fill="#000" >bind </text>
<text x="53.1" y="396.8" id="text14" fill="#000" >connect </text>
<text x="179.1" y="396.8" id="text15" fill="#000" >connect </text>
<text x="305.1" y="396.8" id="text16" fill="#000" >connect </text>
</g>
</svg>
