<?xml version="1.0" standalone="no"?>
<!DOCTYPE svg PUBLIC "-//W3C//DTD SVG 1.1//EN" 
  "http://www.w3.org/Graphics/SVG/1.1/DTD/svg11.dtd">
<!-- Created with ASCIIToSVG (http://9vx.org/~dho/a2s/) -->
<svg width="405px" height="512px" version="1.1"
  xmlns="http://www.w3.org/2000/svg" xmlns:xlink="http://www.w3.org/1999/xlink">
  <defs>
    <filter id="dsFilter" width="150%" height="150%">
      <feOffset result="offOut" in="SourceGraphic" dx="3" dy="3"/>
      <feColorMatrix result="matrixOut" in="offOut" type="matrix" values="0.2 0 0 0 0 0 0.2 0 0 0 0 0 0.2 0 0 0 0 0 1 0"/>
      <feBlend in="SourceGraphic" in2="matrixOut" mode="normal"/>
    </filter>
    <marker id="iPointer"
      viewBox="0 0 10 10" refX="5" refY="5" 
      markerUnits="strokeWidth"
      markerWidth="8" markerHeight="7"
      orient="auto">
      <path d="M 10 0 L 10 10 L 0 5 z" />
    </marker>
    <marker id="Pointer"
      viewBox="0 0 10 10" refX="5" refY="5" 
      markerUnits="strokeWidth"
      markerWidth="8" markerHeight="7"
      orient="auto">
      <path d="M 0 0 L 10 5 L 0 10 z" />
    </marker>
  </defs><g id="boxes" stroke="black" stroke-width="2" fill="none" >
<g id="group0">
	<path id="path0" filter="url(#dsFilter)" fill="#fff" d="M 31.5 8 L 121.5 8 L 121.5 62 Q 121.5 72 111.5 72 L 41.5 72 Q 31.5 72 31.5 62 Z" />
	<text x="44.1" y="28.8" id="text0" fill="#000" stroke="none" style="font-family:LMMono10,monospace;font-size:15.2px" >Client </text>

	<text x="44.1" y="60.8" id="text0" fill="#000" stroke="none" style="font-family:LMMono10,monospace;font-size:15.2px" >DEALER </text>

</g>
<g id="group2">
	<path id="path2" filter="url(#dsFilter)" fill="#fff" d="M 157.5 8 L 247.5 8 L 247.5 62 Q 247.5 72 237.5 72 L 167.5 72 Q 157.5 72 157.5 62 Z" />
	<text x="170.1" y="28.8" id="text2" fill="#000" stroke="none" style="font-family:LMMono10,monospace;font-size:15.2px" >Client </text>

	<text x="170.1" y="60.8" id="text2" fill="#000" stroke="none" style="font-family:LMMono10,monospace;font-size:15.2px" >DEALER </text>

</g>
<g id="group4">
	<path id="path4" filter="url(#dsFilter)" fill="#fff" d="M 283.5 8 L 373.5 8 L 373.5 62 Q 373.5 72 363.5 72 L 293.5 72 Q 283.5 72 283.5 62 Z" />
	<text x="296.1" y="28.8" id="text4" fill="#000" stroke="none" style="font-family:LMMono10,monospace;font-size:15.2px" >Client </text>

	<text x="296.1" y="60.8" id="text4" fill="#000" stroke="none" style="font-family:LMMono10,monospace;font-size:15.2px" >DEALER </text>

</g>
<g id="group23">
	<path id="path23" filter="url(#dsFilter)" fill="#fff" d="M 148.5 210 Q 148.5 200 158.5 200 L 246.5 200 Q 256.5 200 256.5 210 L 256.5 286 Q 256.5 296 246.5 296 L 158.5 296 Q 148.5 296 148.5 286 Z" />
	<text x="170.1" y="220.8" id="text23" fill="#000" stroke="none" style="font-family:LMMono10,monospace;font-size:15.2px" >ROUTER </text>

	<text x="170.1" y="252.8" id="text23" fill="#000" stroke="none" style="font-family:LMMono10,monospace;font-size:15.2px" >Server </text>

	<text x="170.1" y="284.8" id="text23" fill="#000" stroke="none" style="font-family:LMMono10,monospace;font-size:15.2px" >DEALER </text>

</g>
<g id="group34">
	<path id="path34" filter="url(#dsFilter)" fill="#fff" d="M 31.5 418 Q 31.5 408 41.5 408 L 111.5 408 Q 121.5 408 121.5 418 L 121.5 472 L 31.5 472 Z" />
	<text x="44.1" y="428.8" id="text34" fill="#000" stroke="none" style="font-family:LMMono10,monospace;font-size:15.2px" >DEALER </text>

	<text x="44.1" y="460.8" id="text34" fill="#000" stroke="none" style="font-family:LMMono10,monospace;font-size:15.2px" >Worker </text>

</g>
<g id="group36">
	<path id="path36" filter="url(#dsFilter)" fill="#fff" d="M 157.5 418 Q 157.5 408 167.5 408 L 237.5 408 Q 247.5 408 247.5 418 L 247.5 472 L 157.5 472 Z" />
	<text x="170.1" y="428.8" id="text36" fill="#000" stroke="none" style="font-family:LMMono10,monospace;font-size:15.2px" >DEALER </text>

	<text x="170.1" y="460.8" id="text36" fill="#000" stroke="none" style="font-family:LMMono10,monospace;font-size:15.2px" >Worker </text>

</g>
<g id="group38">
	<path id="path38" filter="url(#dsFilter)" fill="#fff" d="M 283.5 418 Q 283.5 408 293.5 408 L 363.5 408 Q 373.5 408 373.5 418 L 373.5 472 L 283.5 472 Z" />
	<text x="296.1" y="428.8" id="text38" fill="#000" stroke="none" style="font-family:LMMono10,monospace;font-size:15.2px" >DEALER </text>

	<text x="296.1" y="460.8" id="text38" fill="#000" stroke="none" style="font-family:LMMono10,monospace;font-size:15.2px" >Worker </text>

</g>
</g>
<g id="lines" stroke="black" stroke-width="2" fill="none" >
<g id="group152">
	<path id="path152" d="M 31.5 40 L 121.5 40 " />
</g>
<g id="group178">
	<path id="path178" d="M 31.5 440 L 121.5 440 " />
</g>
<g id="group318">
	<path id="path318" d="M 76.5 104 L 76.5 110 Q 76.5 120 86.5 120 L 202.5 120 L 318.5 120 Q 328.5 120 328.5 110 L 328.5 88 " />
</g>
<g id="group335">
	<path id="path335" marker-start="url(#iPointer)" marker-end="url(#Pointer)" d="M 76.5 376 L 76.5 354 Q 76.5 344 86.5 344 L 202.5 344 L 318.5 344 Q 328.5 344 328.5 354 L 328.5 376 " />
</g>
<g id="group582">
	<path id="path582" d="M 148.5 232 L 256.5 232 " />
</g>
<g id="group585">
	<path id="path585" d="M 148.5 264 L 256.5 264 " />
</g>
<g id="group604">
	<path id="path604" d="M 157.5 40 L 247.5 40 " />
</g>
<g id="group630">
	<path id="path630" d="M 157.5 440 L 247.5 440 " />
</g>
<g id="group709">
	<path id="path709" stroke-dasharray="5 5" d="M 184.5 152 L 14.5 152 Q 4.5 152 4.5 162 L 4.5 478 Q 4.5 488 14.5 488 L 390.5 488 Q 400.5 488 400.5 478 L 400.5 162 Q 400.5 152 390.5 152 L 211.5 152 " />
</g>
<g id="group770">
	<path id="path770" marker-end="url(#Pointer)" d="M 202.5 104 L 202.5 120 L 202.5 168 " />
</g>
<g id="group784">
	<path id="path784" marker-end="url(#Pointer)" d="M 202.5 328 L 202.5 344 L 202.5 376 " />
</g>
<g id="group1054">
	<path id="path1054" d="M 283.5 40 L 373.5 40 " />
</g>
<g id="group1080">
	<path id="path1080" d="M 283.5 440 L 373.5 440 " />
</g>
</g>
<g id="text" fill="black" style="font-family:LMMono10,monospace;font-size:15.2px" >
<text x="44.1" y="92.8" id="text6" fill="#000" >connect </text>
<text x="170.1" y="92.8" id="text7" fill="#000" >connect </text>
<text x="296.1" y="92.8" id="text8" fill="#000" >connect</text>
<text x="179.1" y="188.8" id="text9" fill="#000" >bind </text>
<text x="179.1" y="316.8" id="text13" fill="#000" >bind </text>
<text x="44.1" y="396.8" id="text14" fill="#000" >connect </text>
<text x="170.1" y="396.8" id="text15" fill="#000" >connect </text>
<text x="296.1" y="396.8" id="text16" fill="#000" >connect </text>
</g>
</svg>
