<?xml version="1.0" standalone="no"?>
<!DOCTYPE svg PUBLIC "-//W3C//DTD SVG 1.1//EN" 
  "http://www.w3.org/Graphics/SVG/1.1/DTD/svg11.dtd">
<!-- Created with ASCIIToSVG (http://9vx.org/~dho/a2s/) -->
<svg width="333px" height="384px" version="1.1"
  xmlns="http://www.w3.org/2000/svg" xmlns:xlink="http://www.w3.org/1999/xlink">
  <defs>
    <filter id="dsFilter" width="150%" height="150%">
      <feOffset result="offOut" in="SourceGraphic" dx="3" dy="3"/>
      <feColorMatrix result="matrixOut" in="offOut" type="matrix" values="0.2 0 0 0 0 0 0.2 0 0 0 0 0 0.2 0 0 0 0 0 1 0"/>
      <feBlend in="SourceGraphic" in2="matrixOut" mode="normal"/>
    </filter>
    <marker id="iPointer"
      viewBox="0 0 10 10" refX="5" refY="5" 
      markerUnits="strokeWidth"
      markerWidth="8" markerHeight="7"
      orient="auto">
      <path d="M 10 0 L 10 10 L 0 5 z" />
    </marker>
    <marker id="Pointer"
      viewBox="0 0 10 10" refX="5" refY="5" 
      markerUnits="strokeWidth"
      markerWidth="8" markerHeight="7"
      orient="auto">
      <path d="M 0 0 L 10 5 L 0 10 z" />
    </marker>
  </defs><g id="boxes" stroke="black" stroke-width="2" fill="none" >
<g id="group0">
	<path id="path0" filter="url(#dsFilter)" fill="#fff" d="M 4.5 8 L 85.5 8 L 85.5 62 Q 85.5 72 75.5 72 L 14.5 72 Q 4.5 72 4.5 62 Z" />
	<text x="17.1" y="28.8" id="text0" fill="#000" stroke="none" style="font-family:LMMono10,monospace;font-size:15.2px" >Client </text>

	<text x="26.1" y="60.8" id="text0" fill="#000" stroke="none" style="font-family:LMMono10,monospace;font-size:15.2px" >REQ </text>

</g>
<g id="group2">
	<path id="path2" filter="url(#dsFilter)" fill="#fff" d="M 112.5 8 L 193.5 8 L 193.5 62 Q 193.5 72 183.5 72 L 122.5 72 Q 112.5 72 112.5 62 Z" />
	<text x="125.1" y="28.8" id="text2" fill="#000" stroke="none" style="font-family:LMMono10,monospace;font-size:15.2px" >Client </text>

	<text x="134.1" y="60.8" id="text2" fill="#000" stroke="none" style="font-family:LMMono10,monospace;font-size:15.2px" >REQ </text>

</g>
<g id="group4">
	<path id="path4" filter="url(#dsFilter)" fill="#fff" d="M 220.5 8 L 301.5 8 L 301.5 62 Q 301.5 72 291.5 72 L 230.5 72 Q 220.5 72 220.5 62 Z" />
	<text x="233.1" y="28.8" id="text4" fill="#000" stroke="none" style="font-family:LMMono10,monospace;font-size:15.2px" >Client </text>

	<text x="242.1" y="60.8" id="text4" fill="#000" stroke="none" style="font-family:LMMono10,monospace;font-size:15.2px" >REQ </text>

</g>
<g id="group24">
	<path id="path24" filter="url(#dsFilter)" fill="#fff" d="M 112.5 146 Q 112.5 136 122.5 136 L 183.5 136 Q 193.5 136 193.5 146 L 193.5 222 Q 193.5 232 183.5 232 L 122.5 232 Q 112.5 232 112.5 222 Z" />
	<text x="125.1" y="156.8" id="text24" fill="#000" stroke="none" style="font-family:LMMono10,monospace;font-size:15.2px" >ROUTER </text>

	<text x="125.1" y="188.8" id="text24" fill="#000" stroke="none" style="font-family:LMMono10,monospace;font-size:15.2px" >Proxy </text>

	<text x="125.1" y="220.8" id="text24" fill="#000" stroke="none" style="font-family:LMMono10,monospace;font-size:15.2px" >ROUTER </text>

</g>
<g id="group37">
	<path id="path37" filter="url(#dsFilter)" fill="#fff" d="M 4.5 306 Q 4.5 296 14.5 296 L 75.5 296 Q 85.5 296 85.5 306 L 85.5 360 L 4.5 360 Z" />
	<text x="26.1" y="316.8" id="text37" fill="#000" stroke="none" style="font-family:LMMono10,monospace;font-size:15.2px" >REQ </text>

	<text x="17.1" y="348.8" id="text37" fill="#000" stroke="none" style="font-family:LMMono10,monospace;font-size:15.2px" >Worker </text>

</g>
<g id="group40">
	<path id="path40" filter="url(#dsFilter)" fill="#fff" d="M 112.5 306 Q 112.5 296 122.5 296 L 183.5 296 Q 193.5 296 193.5 306 L 193.5 360 L 112.5 360 Z" />
	<text x="134.1" y="316.8" id="text40" fill="#000" stroke="none" style="font-family:LMMono10,monospace;font-size:15.2px" >REQ </text>

	<text x="125.1" y="348.8" id="text40" fill="#000" stroke="none" style="font-family:LMMono10,monospace;font-size:15.2px" >Worker </text>

</g>
<g id="group43">
	<path id="path43" filter="url(#dsFilter)" fill="#fff" d="M 220.5 306 Q 220.5 296 230.5 296 L 291.5 296 Q 301.5 296 301.5 306 L 301.5 360 L 220.5 360 Z" />
	<text x="242.1" y="316.8" id="text43" fill="#000" stroke="none" style="font-family:LMMono10,monospace;font-size:15.2px" >REQ </text>

	<text x="233.1" y="348.8" id="text43" fill="#000" stroke="none" style="font-family:LMMono10,monospace;font-size:15.2px" >Worker </text>

</g>
</g>
<g id="lines" stroke="black" stroke-width="2" fill="none" >
<g id="group60">
	<path id="path60" d="M 4.5 40 L 85.5 40 " />
</g>
<g id="group79">
	<path id="path79" d="M 4.5 328 L 85.5 328 " />
</g>
<g id="group160">
	<path id="path160" d="M 40.5 72 L 40.5 94 Q 40.5 104 50.5 104 L 148.5 104 L 246.5 104 Q 256.5 104 256.5 94 L 256.5 72 " />
</g>
<g id="group175">
	<path id="path175" d="M 40.5 296 L 40.5 274 Q 40.5 264 50.5 264 L 148.5 264 L 246.5 264 Q 256.5 264 256.5 274 L 256.5 296 " />
</g>
<g id="group352">
	<path id="path352" d="M 112.5 40 L 193.5 40 " />
</g>
<g id="group361">
	<path id="path361" d="M 112.5 168 L 193.5 168 " />
</g>
<g id="group364">
	<path id="path364" d="M 112.5 200 L 193.5 200 " />
</g>
<g id="group373">
	<path id="path373" d="M 112.5 328 L 193.5 328 " />
</g>
<g id="group454">
	<path id="path454" d="M 148.5 72 L 148.5 104 L 148.5 136 " />
</g>
<g id="group465">
	<path id="path465" d="M 148.5 232 L 148.5 264 L 148.5 296 " />
</g>
<g id="group646">
	<path id="path646" d="M 220.5 40 L 301.5 40 " />
</g>
<g id="group665">
	<path id="path665" d="M 220.5 328 L 301.5 328 " />
</g>
</g>
<g id="text" fill="black" style="font-family:LMMono10,monospace;font-size:15.2px" >
<text x="215.1" y="156.8" id="text7" fill="#000" >Frontend</text>
<text x="215.1" y="188.8" id="text9" fill="#000" >Load balancer</text>
<text x="215.1" y="220.8" id="text11" fill="#000" >Backend</text>
</g>
</svg>
