<?xml version="1.0" standalone="no"?>
<!DOCTYPE svg PUBLIC "-//W3C//DTD SVG 1.1//EN" 
  "http://www.w3.org/Graphics/SVG/1.1/DTD/svg11.dtd">
<!-- Created with ASCIIToSVG (http://9vx.org/~dho/a2s/) -->
<svg width="306px" height="464px" version="1.1"
  xmlns="http://www.w3.org/2000/svg" xmlns:xlink="http://www.w3.org/1999/xlink">
  <defs>
    <filter id="dsFilter" width="150%" height="150%">
      <feOffset result="offOut" in="SourceGraphic" dx="3" dy="3"/>
      <feColorMatrix result="matrixOut" in="offOut" type="matrix" values="0.2 0 0 0 0 0 0.2 0 0 0 0 0 0.2 0 0 0 0 0 1 0"/>
      <feGaussianBlur result="blurOut" in="matrixOut" stdDeviation="3"/>
      <feBlend in="SourceGraphic" in2="blurOut" mode="normal"/>
    </filter>
    <marker id="iPointer"
      viewBox="0 0 10 10" refX="5" refY="5" 
      markerUnits="strokeWidth"
      markerWidth="8" markerHeight="7"
      orient="auto">
      <path d="M 10 0 L 10 10 L 0 5 z" />
    </marker>
    <marker id="Pointer"
      viewBox="0 0 10 10" refX="5" refY="5" 
      markerUnits="strokeWidth"
      markerWidth="8" markerHeight="7"
      orient="auto">
      <path d="M 0 0 L 10 5 L 0 10 z" />
    </marker>
  </defs><g id="boxes" stroke="black" stroke-width="2" fill="none" >
<g id="group0">
	<path id="path0" filter="url(#dsFilter)" fill="#fff" d="M 4.5 8 L 85.5 8 L 85.5 62 Q 85.5 72 75.5 72 L 14.5 72 Q 4.5 72 4.5 62 Z" />
	<text x="17.1" y="28.8" id="text0" fill="#000" stroke="none" style="font-family:Consolas,Monaco,Anonymous Pro,Anonymous,Bitstream Sans Mono,monospace;font-size:15.2px" >Client </text>

	<text x="26.1" y="60.8" id="text0" fill="#000" stroke="none" style="font-family:Consolas,Monaco,Anonymous Pro,Anonymous,Bitstream Sans Mono,monospace;font-size:15.2px" >REQ </text>

</g>
<g id="group2">
	<path id="path2" filter="url(#dsFilter)" fill="#fff" d="M 112.5 8 L 193.5 8 L 193.5 62 Q 193.5 72 183.5 72 L 122.5 72 Q 112.5 72 112.5 62 Z" />
	<text x="125.1" y="28.8" id="text2" fill="#000" stroke="none" style="font-family:Consolas,Monaco,Anonymous Pro,Anonymous,Bitstream Sans Mono,monospace;font-size:15.2px" >Client </text>

	<text x="134.1" y="60.8" id="text2" fill="#000" stroke="none" style="font-family:Consolas,Monaco,Anonymous Pro,Anonymous,Bitstream Sans Mono,monospace;font-size:15.2px" >REQ </text>

</g>
<g id="group4">
	<path id="path4" filter="url(#dsFilter)" fill="#fff" d="M 220.5 8 L 301.5 8 L 301.5 62 Q 301.5 72 291.5 72 L 230.5 72 Q 220.5 72 220.5 62 Z" />
	<text x="233.1" y="28.8" id="text4" fill="#000" stroke="none" style="font-family:Consolas,Monaco,Anonymous Pro,Anonymous,Bitstream Sans Mono,monospace;font-size:15.2px" >Client </text>

	<text x="242.1" y="60.8" id="text4" fill="#000" stroke="none" style="font-family:Consolas,Monaco,Anonymous Pro,Anonymous,Bitstream Sans Mono,monospace;font-size:15.2px" >REQ </text>

</g>
<g id="group26">
	<path id="path26" filter="url(#dsFilter)" fill="#fff" d="M 94.5 178 Q 94.5 168 104.5 168 L 201.5 168 Q 211.5 168 211.5 178 L 211.5 270 Q 211.5 280 201.5 280 L 104.5 280 Q 94.5 280 94.5 270 Z" />
	<text x="125.1" y="188.8" id="text26" fill="#000" stroke="none" style="font-family:Consolas,Monaco,Anonymous Pro,Anonymous,Bitstream Sans Mono,monospace;font-size:15.2px" >ROUTER </text>

	<text x="134.1" y="220.8" id="text26" fill="#000" stroke="none" style="font-family:Consolas,Monaco,Anonymous Pro,Anonymous,Bitstream Sans Mono,monospace;font-size:15.2px" >Load </text>

	<text x="116.1" y="236.8" id="text26" fill="#000" stroke="none" style="font-family:Consolas,Monaco,Anonymous Pro,Anonymous,Bitstream Sans Mono,monospace;font-size:15.2px" >balancer </text>

	<text x="125.1" y="268.8" id="text26" fill="#000" stroke="none" style="font-family:Consolas,Monaco,Anonymous Pro,Anonymous,Bitstream Sans Mono,monospace;font-size:15.2px" >ROUTER </text>

</g>
<g id="group41">
	<path id="path41" filter="url(#dsFilter)" fill="#fff" d="M 4.5 386 Q 4.5 376 14.5 376 L 75.5 376 Q 85.5 376 85.5 386 L 85.5 440 L 4.5 440 Z" />
	<text x="26.1" y="396.8" id="text41" fill="#000" stroke="none" style="font-family:Consolas,Monaco,Anonymous Pro,Anonymous,Bitstream Sans Mono,monospace;font-size:15.2px" >REQ </text>

	<text x="17.1" y="428.8" id="text41" fill="#000" stroke="none" style="font-family:Consolas,Monaco,Anonymous Pro,Anonymous,Bitstream Sans Mono,monospace;font-size:15.2px" >Worker </text>

</g>
<g id="group44">
	<path id="path44" filter="url(#dsFilter)" fill="#fff" d="M 112.5 386 Q 112.5 376 122.5 376 L 183.5 376 Q 193.5 376 193.5 386 L 193.5 440 L 112.5 440 Z" />
	<text x="134.1" y="396.8" id="text44" fill="#000" stroke="none" style="font-family:Consolas,Monaco,Anonymous Pro,Anonymous,Bitstream Sans Mono,monospace;font-size:15.2px" >REQ </text>

	<text x="125.1" y="428.8" id="text44" fill="#000" stroke="none" style="font-family:Consolas,Monaco,Anonymous Pro,Anonymous,Bitstream Sans Mono,monospace;font-size:15.2px" >Worker </text>

</g>
<g id="group47">
	<path id="path47" filter="url(#dsFilter)" fill="#fff" d="M 220.5 386 Q 220.5 376 230.5 376 L 291.5 376 Q 301.5 376 301.5 386 L 301.5 440 L 220.5 440 Z" />
	<text x="242.1" y="396.8" id="text47" fill="#000" stroke="none" style="font-family:Consolas,Monaco,Anonymous Pro,Anonymous,Bitstream Sans Mono,monospace;font-size:15.2px" >REQ </text>

	<text x="233.1" y="428.8" id="text47" fill="#000" stroke="none" style="font-family:Consolas,Monaco,Anonymous Pro,Anonymous,Bitstream Sans Mono,monospace;font-size:15.2px" >Worker </text>

</g>
</g>
<g id="lines" stroke="black" stroke-width="2" fill="none" >
<g id="group64">
	<path id="path64" d="M 4.5 40 L 85.5 40 " />
</g>
<g id="group88">
	<path id="path88" d="M 4.5 408 L 85.5 408 " />
</g>
<g id="group184">
	<path id="path184" d="M 40.5 72 L 40.5 94 Q 40.5 104 50.5 104 L 148.5 104 L 246.5 104 Q 256.5 104 256.5 94 L 256.5 72 " />
</g>
<g id="group204">
	<path id="path204" d="M 40.5 376 L 40.5 354 Q 40.5 344 50.5 344 L 148.5 344 L 246.5 344 Q 256.5 344 256.5 354 L 256.5 376 " />
</g>
<g id="group368">
	<path id="path368" d="M 94.5 200 L 211.5 200 " />
</g>
<g id="group372">
	<path id="path372" d="M 94.5 248 L 211.5 248 " />
</g>
<g id="group418">
	<path id="path418" d="M 112.5 40 L 193.5 40 " />
</g>
<g id="group442">
	<path id="path442" d="M 112.5 408 L 193.5 408 " />
</g>
<g id="group484">
	<path id="path484" stroke-dasharray="5 5" d="M 130.5 136 L 14.5 136 Q 4.5 136 4.5 146 L 4.5 302 Q 4.5 312 14.5 312 L 139.5 312 " />
</g>
<g id="group538">
	<path id="path538" d="M 148.5 72 L 148.5 104 L 148.5 168 " />
</g>
<g id="group552">
	<path id="path552" d="M 148.5 280 L 148.5 344 L 148.5 376 " />
</g>
<g id="group602">
	<path id="path602" stroke-dasharray="5 5" d="M 166.5 136 L 291.5 136 Q 301.5 136 301.5 146 L 301.5 302 Q 301.5 312 291.5 312 L 157.5 312 " />
</g>
<g id="group770">
	<path id="path770" d="M 220.5 40 L 301.5 40 " />
</g>
<g id="group794">
	<path id="path794" d="M 220.5 408 L 301.5 408 " />
</g>
</g>
<g id="text" fill="black" style="font-family:LMMono10,monospace;font-size:15.2px" >
<text x="233.1" y="300.8" id="text10" fill="#000" >Broker </text>
</g>
</svg>
