<?xml version="1.0" standalone="no"?>
<!DOCTYPE svg PUBLIC "-//W3C//DTD SVG 1.1//EN" 
  "http://www.w3.org/Graphics/SVG/1.1/DTD/svg11.dtd">
<!-- Created with ASCIIToSVG (http://9vx.org/~dho/a2s/) -->
<svg width="414px" height="368px" version="1.1"
  xmlns="http://www.w3.org/2000/svg" xmlns:xlink="http://www.w3.org/1999/xlink">
  <defs>
    <filter id="dsFilter" width="150%" height="150%">
      <feOffset result="offOut" in="SourceGraphic" dx="3" dy="3"/>
      <feColorMatrix result="matrixOut" in="offOut" type="matrix" values="0.2 0 0 0 0 0 0.2 0 0 0 0 0 0.2 0 0 0 0 0 1 0"/>
      <feBlend in="SourceGraphic" in2="matrixOut" mode="normal"/>
    </filter>
    <marker id="iPointer"
      viewBox="0 0 10 10" refX="5" refY="5" 
      markerUnits="strokeWidth"
      markerWidth="8" markerHeight="7"
      orient="auto">
      <path d="M 10 0 L 10 10 L 0 5 z" />
    </marker>
    <marker id="Pointer"
      viewBox="0 0 10 10" refX="5" refY="5" 
      markerUnits="strokeWidth"
      markerWidth="8" markerHeight="7"
      orient="auto">
      <path d="M 0 0 L 10 5 L 0 10 z" />
    </marker>
  </defs><g id="boxes" stroke="black" stroke-width="2" fill="none" >
<g id="group0">
	<path id="path0" filter="url(#dsFilter)" fill="#fff" d="M 139.5 8 L 265.5 8 L 265.5 62 Q 265.5 72 255.5 72 L 149.5 72 Q 139.5 72 139.5 62 Z" />
	<text x="161.1" y="28.8" id="text0" fill="#000" stroke="none" style="font-family:LMMono10,monospace;font-size:15.2px" >Publisher </text>

	<text x="188.1" y="60.8" id="text0" fill="#000" stroke="none" style="font-family:LMMono10,monospace;font-size:15.2px" >PUB </text>

</g>
<g id="group9">
	<path id="path9" filter="url(#dsFilter)" fill="#fff" d="M 4.5 290 Q 4.5 280 14.5 280 L 111.5 280 Q 121.5 280 121.5 290 L 121.5 344 L 4.5 344 Z" />
	<text x="44.1" y="300.8" id="text9" fill="#000" stroke="none" style="font-family:LMMono10,monospace;font-size:15.2px" >SUB </text>

	<text x="17.1" y="332.8" id="text9" fill="#000" stroke="none" style="font-family:LMMono10,monospace;font-size:15.2px" >Subscriber </text>

</g>
<g id="group11">
	<path id="path11" filter="url(#dsFilter)" fill="#fff" d="M 148.5 290 Q 148.5 280 158.5 280 L 255.5 280 Q 265.5 280 265.5 290 L 265.5 344 L 148.5 344 Z" />
	<text x="188.1" y="300.8" id="text11" fill="#000" stroke="none" style="font-family:LMMono10,monospace;font-size:15.2px" >SUB </text>

	<text x="161.1" y="332.8" id="text11" fill="#000" stroke="none" style="font-family:LMMono10,monospace;font-size:15.2px" >Subscriber </text>

</g>
<g id="group13">
	<path id="path13" filter="url(#dsFilter)" fill="#fff" d="M 292.5 290 Q 292.5 280 302.5 280 L 399.5 280 Q 409.5 280 409.5 290 L 409.5 344 L 292.5 344 Z" />
	<text x="332.1" y="300.8" id="text13" fill="#000" stroke="none" style="font-family:LMMono10,monospace;font-size:15.2px" >SUB </text>

	<text x="305.1" y="332.8" id="text13" fill="#000" stroke="none" style="font-family:LMMono10,monospace;font-size:15.2px" >Subscriber </text>

</g>
</g>
<g id="lines" stroke="black" stroke-width="2" fill="none" >
<g id="group46">
	<path id="path46" d="M 4.5 312 L 121.5 312 " />
</g>
<g id="group177">
	<path id="path177" d="M 58.5 184 L 58.5 178 Q 58.5 168 68.5 168 L 202.5 168 L 336.5 168 Q 346.5 168 346.5 178 L 346.5 200 " />
</g>
<g id="group179">
	<path id="path179" marker-end="url(#Pointer)" d="M 58.5 216 L 58.5 248 " />
</g>
<g id="group375">
	<path id="path375" d="M 139.5 40 L 265.5 40 " />
</g>
<g id="group416">
	<path id="path416" d="M 148.5 312 L 265.5 312 " />
</g>
<g id="group542">
	<path id="path542" d="M 202.5 104 L 202.5 136 " />
</g>
<g id="group545">
	<path id="path545" d="M 202.5 152 L 202.5 168 L 202.5 200 " />
</g>
<g id="group549">
	<path id="path549" marker-end="url(#Pointer)" d="M 202.5 216 L 202.5 248 " />
</g>
<g id="group785">
	<path id="path785" d="M 292.5 312 L 409.5 312 " />
</g>
<g id="group918">
	<path id="path918" marker-end="url(#Pointer)" d="M 346.5 216 L 346.5 248 " />
</g>
</g>
<g id="text" fill="black" style="font-family:LMMono10,monospace;font-size:15.2px" >
<text x="179.1" y="92.8" id="text2" fill="#000" >bind</text>
<text x="170.1" y="140.8" id="text3" fill="#000" >updates</text>
<text x="26.1" y="204.8" id="text4" fill="#000" >updates </text>
<text x="170.1" y="204.8" id="text5" fill="#000" >updates </text>
<text x="314.1" y="204.8" id="text6" fill="#000" >updates</text>
<text x="26.1" y="268.8" id="text7" fill="#000" >connect </text>
<text x="170.1" y="268.8" id="text8" fill="#000" >connect </text>
<text x="314.1" y="268.8" id="text9" fill="#000" >connect</text>
</g>
</svg>
