<?xml version="1.0" standalone="no"?>
<!DOCTYPE svg PUBLIC "-//W3C//DTD SVG 1.1//EN" 
  "http://www.w3.org/Graphics/SVG/1.1/DTD/svg11.dtd">
<!-- Created with ASCIIToSVG (http://9vx.org/~dho/a2s/) -->
<svg width="441px" height="288px" version="1.1"
  xmlns="http://www.w3.org/2000/svg" xmlns:xlink="http://www.w3.org/1999/xlink">
  <defs>
    <filter id="dsFilter" width="150%" height="150%">
      <feOffset result="offOut" in="SourceGraphic" dx="3" dy="3"/>
      <feColorMatrix result="matrixOut" in="offOut" type="matrix" values="0.2 0 0 0 0 0 0.2 0 0 0 0 0 0.2 0 0 0 0 0 1 0"/>
      <feBlend in="SourceGraphic" in2="matrixOut" mode="normal"/>
    </filter>
    <marker id="iPointer"
      viewBox="0 0 10 10" refX="5" refY="5" 
      markerUnits="strokeWidth"
      markerWidth="8" markerHeight="7"
      orient="auto">
      <path d="M 10 0 L 10 10 L 0 5 z" />
    </marker>
    <marker id="Pointer"
      viewBox="0 0 10 10" refX="5" refY="5" 
      markerUnits="strokeWidth"
      markerWidth="8" markerHeight="7"
      orient="auto">
      <path d="M 0 0 L 10 5 L 0 10 z" />
    </marker>
  </defs><g id="boxes" stroke="black" stroke-width="2" fill="none" >
<g id="group0">
	<path id="path0" filter="url(#dsFilter)" fill="#fff" d="M 4.5 66 Q 4.5 56 14.5 56 L 30.5 56 Q 40.5 56 40.5 66 L 40.5 78 Q 40.5 88 30.5 88 L 14.5 88 Q 4.5 88 4.5 78 Z" />
	<text x="17.1" y="76.8" id="text0" fill="#000" stroke="none" style="font-family:LMMono10,monospace;font-size:15.2px" >C</text>

</g>
<g id="group2">
	<path id="path2" filter="url(#dsFilter)" fill="#fff" d="M 67.5 66 Q 67.5 56 77.5 56 L 93.5 56 Q 103.5 56 103.5 66 L 103.5 78 Q 103.5 88 93.5 88 L 77.5 88 Q 67.5 88 67.5 78 Z" />
	<text x="80.1" y="76.8" id="text2" fill="#000" stroke="none" style="font-family:LMMono10,monospace;font-size:15.2px" >C</text>

</g>
<g id="group4">
	<path id="path4" filter="url(#dsFilter)" fill="#fff" d="M 337.5 66 Q 337.5 56 347.5 56 L 363.5 56 Q 373.5 56 373.5 66 L 373.5 78 Q 373.5 88 363.5 88 L 347.5 88 Q 337.5 88 337.5 78 Z" />
	<text x="350.1" y="76.8" id="text4" fill="#000" stroke="none" style="font-family:LMMono10,monospace;font-size:15.2px" >C</text>

</g>
<g id="group6">
	<path id="path6" filter="url(#dsFilter)" fill="#fff" d="M 400.5 66 Q 400.5 56 410.5 56 L 426.5 56 Q 436.5 56 436.5 66 L 436.5 78 Q 436.5 88 426.5 88 L 410.5 88 Q 400.5 88 400.5 78 Z" />
	<text x="413.1" y="76.8" id="text6" fill="#000" stroke="none" style="font-family:LMMono10,monospace;font-size:15.2px" >C</text>

</g>
<g id="group24">
	<path id="path24" filter="url(#dsFilter)" fill="#fff" d="M 4.5 136 L 166.5 136 L 166.5 168 L 4.5 168 Z" />
	<text x="53.1" y="156.8" id="text24" fill="#000" stroke="none" style="font-family:LMMono10,monospace;font-size:15.2px" >Broker </text>

</g>
<g id="group29">
	<path id="path29" filter="url(#dsFilter)" fill="#fff" d="M 274.5 136 L 436.5 136 L 436.5 168 L 274.5 168 Z" />
	<text x="323.1" y="156.8" id="text29" fill="#000" stroke="none" style="font-family:LMMono10,monospace;font-size:15.2px" >Broker </text>

</g>
<g id="group42">
	<path id="path42" filter="url(#dsFilter)" fill="#fff" d="M 4.5 226 Q 4.5 216 14.5 216 L 30.5 216 Q 40.5 216 40.5 226 L 40.5 238 Q 40.5 248 30.5 248 L 14.5 248 Q 4.5 248 4.5 238 Z" />
	<text x="17.1" y="236.8" id="text42" fill="#000" stroke="none" style="font-family:LMMono10,monospace;font-size:15.2px" >W</text>

</g>
<g id="group45">
	<path id="path45" filter="url(#dsFilter)" fill="#fff" d="M 67.5 226 Q 67.5 216 77.5 216 L 93.5 216 Q 103.5 216 103.5 226 L 103.5 238 Q 103.5 248 93.5 248 L 77.5 248 Q 67.5 248 67.5 238 Z" />
	<text x="80.1" y="236.8" id="text45" fill="#000" stroke="none" style="font-family:LMMono10,monospace;font-size:15.2px" >W</text>

</g>
<g id="group50">
	<path id="path50" filter="url(#dsFilter)" fill="#fff" d="M 337.5 226 Q 337.5 216 347.5 216 L 363.5 216 Q 373.5 216 373.5 226 L 373.5 238 Q 373.5 248 363.5 248 L 347.5 248 Q 337.5 248 337.5 238 Z" />
	<text x="350.1" y="236.8" id="text50" fill="#000" stroke="none" style="font-family:LMMono10,monospace;font-size:15.2px" >W</text>

</g>
<g id="group53">
	<path id="path53" filter="url(#dsFilter)" fill="#fff" d="M 400.5 226 Q 400.5 216 410.5 216 L 426.5 216 Q 436.5 216 436.5 226 L 436.5 238 Q 436.5 248 426.5 248 L 410.5 248 Q 400.5 248 400.5 238 Z" />
	<text x="413.1" y="236.8" id="text53" fill="#000" stroke="none" style="font-family:LMMono10,monospace;font-size:15.2px" >W</text>

</g>
</g>
<g id="lines" stroke="black" stroke-width="2" fill="none" >
<g id="group107">
	<path id="path107" d="M 22.5 88 L 22.5 136 " />
</g>
<g id="group113">
	<path id="path113" d="M 22.5 168 L 22.5 216 " />
</g>
<g id="group235">
	<path id="path235" d="M 85.5 88 L 85.5 136 " />
</g>
<g id="group241">
	<path id="path241" d="M 85.5 168 L 85.5 216 " />
</g>
<g id="group366">
	<path id="path366" marker-end="url(#Pointer)" d="M 148.5 136 L 148.5 98 Q 148.5 88 158.5 88 L 183.5 88 Q 193.5 88 193.5 98 L 193.5 206 Q 193.5 216 203.5 216 L 282.5 216 Q 292.5 216 292.5 206 L 292.5 184 " />
</g>
<g id="group370">
	<path id="path370" marker-start="url(#iPointer)" d="M 148.5 184 L 148.5 238 Q 148.5 248 158.5 248 L 237.5 248 Q 247.5 248 247.5 238 L 247.5 216 " />
</g>
<g id="group503">
	<path id="path503" stroke-dasharray="5 5" d="M 220.5 8 L 220.5 216 " />
</g>
<g id="group569">
	<path id="path569" d="M 247.5 200 L 247.5 98 Q 247.5 88 257.5 88 L 282.5 88 Q 292.5 88 292.5 98 L 292.5 136 " />
</g>
<g id="group778">
	<path id="path778" d="M 355.5 88 L 355.5 136 " />
</g>
<g id="group784">
	<path id="path784" d="M 355.5 168 L 355.5 216 " />
</g>
<g id="group906">
	<path id="path906" d="M 418.5 88 L 418.5 136 " />
</g>
<g id="group912">
	<path id="path912" d="M 418.5 168 L 418.5 216 " />
</g>
</g>
<g id="text" fill="black" style="font-family:LMMono10,monospace;font-size:15.2px" >
<text x="44.1" y="12.8" id="text0" fill="#000" >Cluster 1 </text>
<text x="305.1" y="12.8" id="text1" fill="#000" >Cluster 2</text>
<text x="215.1" y="236.8" id="text10" fill="#000" >:</text>
<text x="215.1" y="268.8" id="text13" fill="#000" >:</text>
</g>
</svg>
