<?xml version="1.0" standalone="no"?>
<!DOCTYPE svg PUBLIC "-//W3C//DTD SVG 1.1//EN" 
  "http://www.w3.org/Graphics/SVG/1.1/DTD/svg11.dtd">
<!-- Created with ASCIIToSVG (http://9vx.org/~dho/a2s/) -->
<svg width="306px" height="608px" version="1.1"
  xmlns="http://www.w3.org/2000/svg" xmlns:xlink="http://www.w3.org/1999/xlink">
  <defs>
    <filter id="dsFilter" width="150%" height="150%">
      <feOffset result="offOut" in="SourceGraphic" dx="3" dy="3"/>
      <feColorMatrix result="matrixOut" in="offOut" type="matrix" values="0.2 0 0 0 0 0 0.2 0 0 0 0 0 0.2 0 0 0 0 0 1 0"/>
      <feGaussianBlur result="blurOut" in="matrixOut" stdDeviation="3"/>
      <feBlend in="SourceGraphic" in2="blurOut" mode="normal"/>
    </filter>
    <marker id="iPointer"
      viewBox="0 0 10 10" refX="5" refY="5" 
      markerUnits="strokeWidth"
      markerWidth="8" markerHeight="7"
      orient="auto">
      <path d="M 10 0 L 10 10 L 0 5 z" />
    </marker>
    <marker id="Pointer"
      viewBox="0 0 10 10" refX="5" refY="5" 
      markerUnits="strokeWidth"
      markerWidth="8" markerHeight="7"
      orient="auto">
      <path d="M 0 0 L 10 5 L 0 10 z" />
    </marker>
  </defs><g id="boxes" stroke="black" stroke-width="2" fill="none" >
<g id="group0">
	<path id="path0" filter="url(#dsFilter)" fill="#fff" d="M 4.5 8 L 94.5 8 L 94.5 78 Q 94.5 88 84.5 88 L 14.5 88 Q 4.5 88 4.5 78 Z" />
	<text x="17.1" y="28.8" id="text0" fill="#000" stroke="none" style="font-family:Consolas,Monaco,Anonymous Pro,Anonymous,Bitstream Sans Mono,monospace;font-size:15.2px" >Client </text>

	<text x="17.1" y="76.8" id="text0" fill="#000" stroke="none" style="font-family:Consolas,Monaco,Anonymous Pro,Anonymous,Bitstream Sans Mono,monospace;font-size:15.2px" >connect </text>

</g>
<g id="group2">
	<path id="path2" filter="url(#dsFilter)" fill="#fff" d="M 121.5 8 L 211.5 8 L 211.5 78 Q 211.5 88 201.5 88 L 131.5 88 Q 121.5 88 121.5 78 Z" />
	<text x="134.1" y="28.8" id="text2" fill="#000" stroke="none" style="font-family:Consolas,Monaco,Anonymous Pro,Anonymous,Bitstream Sans Mono,monospace;font-size:15.2px" >Broker </text>

	<text x="134.1" y="44.8" id="text2" fill="#000" stroke="none" style="font-family:Consolas,Monaco,Anonymous Pro,Anonymous,Bitstream Sans Mono,monospace;font-size:15.2px" >cloudbe </text>

	<text x="134.1" y="76.8" id="text2" fill="#000" stroke="none" style="font-family:Consolas,Monaco,Anonymous Pro,Anonymous,Bitstream Sans Mono,monospace;font-size:15.2px" >connect </text>

</g>
<g id="group14">
	<path id="path14" filter="url(#dsFilter)" fill="#fff" d="M 31.5 194 Q 31.5 184 41.5 184 L 291.5 184 Q 301.5 184 301.5 194 L 301.5 398 Q 301.5 408 291.5 408 L 41.5 408 Q 31.5 408 31.5 398 Z" />
	<text x="53.1" y="204.8" id="text14" fill="#000" stroke="none" style="font-family:Consolas,Monaco,Anonymous Pro,Anonymous,Bitstream Sans Mono,monospace;font-size:15.2px" >bind </text>

	<text x="143.1" y="204.8" id="text14" fill="#000" stroke="none" style="font-family:Consolas,Monaco,Anonymous Pro,Anonymous,Bitstream Sans Mono,monospace;font-size:15.2px" >bind </text>

	<text x="44.1" y="236.8" id="text14" fill="#000" stroke="none" style="font-family:Consolas,Monaco,Anonymous Pro,Anonymous,Bitstream Sans Mono,monospace;font-size:15.2px" >localfe </text>

	<text x="134.1" y="236.8" id="text14" fill="#000" stroke="none" style="font-family:Consolas,Monaco,Anonymous Pro,Anonymous,Bitstream Sans Mono,monospace;font-size:15.2px" >cloudfe </text>

	<text x="44.1" y="252.8" id="text14" fill="#000" stroke="none" style="font-family:Consolas,Monaco,Anonymous Pro,Anonymous,Bitstream Sans Mono,monospace;font-size:15.2px" >ROUTER </text>

	<text x="134.1" y="252.8" id="text14" fill="#000" stroke="none" style="font-family:Consolas,Monaco,Anonymous Pro,Anonymous,Bitstream Sans Mono,monospace;font-size:15.2px" >ROUTER </text>

	<text x="134.1" y="300.8" id="text14" fill="#000" stroke="none" style="font-family:Consolas,Monaco,Anonymous Pro,Anonymous,Bitstream Sans Mono,monospace;font-size:15.2px" >Broker </text>

	<text x="44.1" y="348.8" id="text14" fill="#000" stroke="none" style="font-family:Consolas,Monaco,Anonymous Pro,Anonymous,Bitstream Sans Mono,monospace;font-size:15.2px" >ROUTER </text>

	<text x="134.1" y="348.8" id="text14" fill="#000" stroke="none" style="font-family:Consolas,Monaco,Anonymous Pro,Anonymous,Bitstream Sans Mono,monospace;font-size:15.2px" >ROUTER </text>

	<text x="44.1" y="364.8" id="text14" fill="#000" stroke="none" style="font-family:Consolas,Monaco,Anonymous Pro,Anonymous,Bitstream Sans Mono,monospace;font-size:15.2px" >localbe </text>

	<text x="134.1" y="364.8" id="text14" fill="#000" stroke="none" style="font-family:Consolas,Monaco,Anonymous Pro,Anonymous,Bitstream Sans Mono,monospace;font-size:15.2px" >cloudbe </text>

	<text x="53.1" y="396.8" id="text14" fill="#000" stroke="none" style="font-family:Consolas,Monaco,Anonymous Pro,Anonymous,Bitstream Sans Mono,monospace;font-size:15.2px" >bind </text>

	<text x="134.1" y="396.8" id="text14" fill="#000" stroke="none" style="font-family:Consolas,Monaco,Anonymous Pro,Anonymous,Bitstream Sans Mono,monospace;font-size:15.2px" >connect </text>

</g>
<g id="group40">
	<path id="path40" filter="url(#dsFilter)" fill="#fff" d="M 4.5 514 Q 4.5 504 14.5 504 L 84.5 504 Q 94.5 504 94.5 514 L 94.5 584 L 4.5 584 Z" />
	<text x="17.1" y="524.8" id="text40" fill="#000" stroke="none" style="font-family:Consolas,Monaco,Anonymous Pro,Anonymous,Bitstream Sans Mono,monospace;font-size:15.2px" >connect </text>

	<text x="17.1" y="572.8" id="text40" fill="#000" stroke="none" style="font-family:Consolas,Monaco,Anonymous Pro,Anonymous,Bitstream Sans Mono,monospace;font-size:15.2px" >Worker </text>

</g>
<g id="group42">
	<path id="path42" filter="url(#dsFilter)" fill="#fff" d="M 121.5 514 Q 121.5 504 131.5 504 L 201.5 504 Q 211.5 504 211.5 514 L 211.5 584 L 121.5 584 Z" />
	<text x="143.1" y="524.8" id="text42" fill="#000" stroke="none" style="font-family:Consolas,Monaco,Anonymous Pro,Anonymous,Bitstream Sans Mono,monospace;font-size:15.2px" >bind </text>

	<text x="134.1" y="556.8" id="text42" fill="#000" stroke="none" style="font-family:Consolas,Monaco,Anonymous Pro,Anonymous,Bitstream Sans Mono,monospace;font-size:15.2px" >cloudfe </text>

	<text x="134.1" y="572.8" id="text42" fill="#000" stroke="none" style="font-family:Consolas,Monaco,Anonymous Pro,Anonymous,Bitstream Sans Mono,monospace;font-size:15.2px" >Broker </text>

</g>
</g>
<g id="lines" stroke="black" stroke-width="2" fill="none" >
<g id="group55">
	<path id="path55" d="M 4.5 56 L 94.5 56 " />
</g>
<g id="group86">
	<path id="path86" d="M 4.5 536 L 94.5 536 " />
</g>
<g id="group181">
	<path id="path181" d="M 31.5 216 L 121.5 216 L 211.5 216 L 301.5 216 " />
</g>
<g id="group185">
	<path id="path185" d="M 31.5 264 L 121.5 264 L 211.5 264 L 301.5 264 " />
</g>
<g id="group190">
	<path id="path190" d="M 31.5 328 L 121.5 328 L 211.5 328 L 301.5 328 " />
</g>
<g id="group194">
	<path id="path194" d="M 31.5 376 L 121.5 376 L 211.5 376 L 301.5 376 " />
</g>
<g id="group255">
	<path id="path255" marker-end="url(#Pointer)" d="M 49.5 120 L 49.5 126 Q 49.5 136 59.5 136 L 57.5 136 Q 67.5 136 67.5 146 L 67.5 168 " />
</g>
<g id="group278">
	<path id="path278" marker-start="url(#iPointer)" d="M 49.5 488 L 49.5 466 Q 49.5 456 59.5 456 L 57.5 456 Q 67.5 456 67.5 446 L 67.5 424 " />
</g>
<g id="group555">
	<path id="path555" d="M 121.5 56 L 211.5 56 " />
</g>
<g id="group564">
	<path id="path564" d="M 121.5 184 L 121.5 216 L 121.5 264 " />
</g>
<g id="group574">
	<path id="path574" d="M 121.5 328 L 121.5 376 L 121.5 408 " />
</g>
<g id="group588">
	<path id="path588" d="M 121.5 536 L 211.5 536 " />
</g>
<g id="group753">
	<path id="path753" marker-end="url(#Pointer)" d="M 166.5 120 L 166.5 168 " />
</g>
<g id="group773">
	<path id="path773" marker-end="url(#Pointer)" d="M 166.5 440 L 166.5 488 " />
</g>
<g id="group947">
	<path id="path947" d="M 211.5 184 L 211.5 216 L 211.5 264 " />
</g>
<g id="group957">
	<path id="path957" d="M 211.5 328 L 211.5 376 L 211.5 408 " />
</g>
</g>
<g id="text" fill="black" style="font-family:LMMono10,monospace;font-size:15.2px" >
<text x="17.1" y="108.8" id="text5" fill="#000" >request </text>
<text x="134.1" y="108.8" id="text6" fill="#000" >request</text>
<text x="44.1" y="428.8" id="text20" fill="#000" >request </text>
<text x="143.1" y="428.8" id="text21" fill="#000" >request</text>
</g>
</svg>
