<?xml version="1.0" standalone="no"?>
<!DOCTYPE svg PUBLIC "-//W3C//DTD SVG 1.1//EN" 
  "http://www.w3.org/Graphics/SVG/1.1/DTD/svg11.dtd">
<!-- Created with ASCIIToSVG (http://9vx.org/~dho/a2s/) -->
<svg width="435px" height="526px" version="1.1"
  xmlns="http://www.w3.org/2000/svg" xmlns:xlink="http://www.w3.org/1999/xlink">
  <defs>
    <filter id="dsFilter" width="150%" height="150%">
      <feOffset result="offOut" in="SourceGraphic" dx="3" dy="3"/>
      <feColorMatrix result="matrixOut" in="offOut" type="matrix" values="0.2 0 0 0 0 0 0.2 0 0 0 0 0 0.2 0 0 0 0 0 1 0"/>
      <feGaussianBlur result="blurOut" in="matrixOut" stdDeviation="3"/>
      <feBlend in="SourceGraphic" in2="blurOut" mode="normal"/>
    </filter>
    <marker id="iPointer"
      viewBox="0 0 10 10" refX="5" refY="5" 
      markerUnits="strokeWidth"
      markerWidth="8" markerHeight="7"
      orient="auto">
      <path d="M 10 0 L 10 10 L 0 5 z" />
    </marker>
    <marker id="Pointer"
      viewBox="0 0 10 10" refX="5" refY="5" 
      markerUnits="strokeWidth"
      markerWidth="8" markerHeight="7"
      orient="auto">
      <path d="M 0 0 L 10 5 L 0 10 z" />
    </marker>
  </defs><g id="boxes" stroke="black" stroke-width="2" fill="none" >
<g id="group0">
	<path id="path0" filter="url(#dsFilter)" fill="#fff" d="M 4.5 8 L 112.5 8 L 112.5 94 Q 112.5 104 102.5 104 L 14.5 104 Q 4.5 104 4.5 94 Z" />
	<text x="26.1" y="28.8" id="text0" fill="#000" stroke="none" style="font-family:Consolas,Monaco,Anonymous Pro,Anonymous,Bitstream Sans Mono,monospace;font-size:15.2px" >Client </text>

	<text x="35.1" y="60.8" id="text0" fill="#000" stroke="none" style="font-family:Consolas,Monaco,Anonymous Pro,Anonymous,Bitstream Sans Mono,monospace;font-size:15.2px" >Retry </text>

	<text x="44.1" y="92.8" id="text0" fill="#000" stroke="none" style="font-family:Consolas,Monaco,Anonymous Pro,Anonymous,Bitstream Sans Mono,monospace;font-size:15.2px" >REQ </text>

</g>
<g id="group2">
	<path id="path2" filter="url(#dsFilter)" fill="#fff" d="M 148.5 8 L 256.5 8 L 256.5 94 Q 256.5 104 246.5 104 L 158.5 104 Q 148.5 104 148.5 94 Z" />
	<text x="170.1" y="28.8" id="text2" fill="#000" stroke="none" style="font-family:Consolas,Monaco,Anonymous Pro,Anonymous,Bitstream Sans Mono,monospace;font-size:15.2px" >Client </text>

	<text x="179.1" y="60.8" id="text2" fill="#000" stroke="none" style="font-family:Consolas,Monaco,Anonymous Pro,Anonymous,Bitstream Sans Mono,monospace;font-size:15.2px" >Retry </text>

	<text x="188.1" y="92.8" id="text2" fill="#000" stroke="none" style="font-family:Consolas,Monaco,Anonymous Pro,Anonymous,Bitstream Sans Mono,monospace;font-size:15.2px" >REQ </text>

</g>
<g id="group4">
	<path id="path4" filter="url(#dsFilter)" fill="#fff" d="M 292.5 8 L 400.5 8 L 400.5 94 Q 400.5 104 390.5 104 L 302.5 104 Q 292.5 104 292.5 94 Z" />
	<text x="314.1" y="28.8" id="text4" fill="#000" stroke="none" style="font-family:Consolas,Monaco,Anonymous Pro,Anonymous,Bitstream Sans Mono,monospace;font-size:15.2px" >Client </text>

	<text x="323.1" y="60.8" id="text4" fill="#000" stroke="none" style="font-family:Consolas,Monaco,Anonymous Pro,Anonymous,Bitstream Sans Mono,monospace;font-size:15.2px" >Retry </text>

	<text x="332.1" y="92.8" id="text4" fill="#000" stroke="none" style="font-family:Consolas,Monaco,Anonymous Pro,Anonymous,Bitstream Sans Mono,monospace;font-size:15.2px" >REQ </text>

</g>
<g id="group27">
	<path id="path27" filter="url(#dsFilter)" fill="#fff" d="M 148.5 210 Q 148.5 200 158.5 200 L 246.5 200 Q 256.5 200 256.5 210 L 256.5 302 Q 256.5 312 246.5 312 L 158.5 312 Q 148.5 312 148.5 302 Z" />
	<text x="170.1" y="220.8" id="text27" fill="#000" stroke="none" style="font-family:Consolas,Monaco,Anonymous Pro,Anonymous,Bitstream Sans Mono,monospace;font-size:15.2px" >ROUTER </text>

	<text x="179.1" y="252.8" id="text27" fill="#000" stroke="none" style="font-family:Consolas,Monaco,Anonymous Pro,Anonymous,Bitstream Sans Mono,monospace;font-size:15.2px" >Load </text>

	<text x="170.1" y="268.8" id="text27" fill="#000" stroke="none" style="font-family:Consolas,Monaco,Anonymous Pro,Anonymous,Bitstream Sans Mono,monospace;font-size:15.2px" >balancer </text>

	<text x="170.1" y="300.8" id="text27" fill="#000" stroke="none" style="font-family:Consolas,Monaco,Anonymous Pro,Anonymous,Bitstream Sans Mono,monospace;font-size:15.2px" >ROUTER </text>

</g>
<g id="group38">
	<path id="path38" filter="url(#dsFilter)" fill="#fff" d="M 4.5 418 Q 4.5 408 14.5 408 L 102.5 408 Q 112.5 408 112.5 418 L 112.5 472 L 4.5 472 Z" />
	<text x="44.1" y="428.8" id="text38" fill="#000" stroke="none" style="font-family:Consolas,Monaco,Anonymous Pro,Anonymous,Bitstream Sans Mono,monospace;font-size:15.2px" >REQ </text>

	<text x="35.1" y="460.8" id="text38" fill="#000" stroke="none" style="font-family:Consolas,Monaco,Anonymous Pro,Anonymous,Bitstream Sans Mono,monospace;font-size:15.2px" >Worker </text>

</g>
<g id="group40">
	<path id="path40" filter="url(#dsFilter)" fill="#fff" d="M 148.5 418 Q 148.5 408 158.5 408 L 246.5 408 Q 256.5 408 256.5 418 L 256.5 472 L 148.5 472 Z" />
	<text x="188.1" y="428.8" id="text40" fill="#000" stroke="none" style="font-family:Consolas,Monaco,Anonymous Pro,Anonymous,Bitstream Sans Mono,monospace;font-size:15.2px" >REQ </text>

	<text x="179.1" y="460.8" id="text40" fill="#000" stroke="none" style="font-family:Consolas,Monaco,Anonymous Pro,Anonymous,Bitstream Sans Mono,monospace;font-size:15.2px" >Worker </text>

</g>
<g id="group42">
	<path id="path42" filter="url(#dsFilter)" fill="#fff" d="M 292.5 418 Q 292.5 408 302.5 408 L 390.5 408 Q 400.5 408 400.5 418 L 400.5 472 L 292.5 472 Z" />
	<text x="332.1" y="428.8" id="text42" fill="#000" stroke="none" style="font-family:Consolas,Monaco,Anonymous Pro,Anonymous,Bitstream Sans Mono,monospace;font-size:15.2px" >REQ </text>

	<text x="323.1" y="460.8" id="text42" fill="#000" stroke="none" style="font-family:Consolas,Monaco,Anonymous Pro,Anonymous,Bitstream Sans Mono,monospace;font-size:15.2px" >Worker </text>

</g>
</g>
<g id="lines" stroke="black" stroke-width="2" fill="none" >
<g id="group58">
	<path id="path58" d="M 4.5 40 L 112.5 40 " />
</g>
<g id="group61">
	<path id="path61" d="M 4.5 72 L 112.5 72 " />
</g>
<g id="group85">
	<path id="path85" d="M 4.5 440 L 112.5 440 " />
</g>
<g id="group252">
	<path id="path252" marker-start="url(#iPointer)" marker-end="url(#Pointer)" d="M 58.5 120 L 58.5 142 Q 58.5 152 68.5 152 L 202.5 152 L 336.5 152 Q 346.5 152 346.5 142 L 346.5 120 " />
</g>
<g id="group269">
	<path id="path269" marker-start="url(#iPointer)" marker-end="url(#Pointer)" d="M 58.5 392 L 58.5 370 Q 58.5 360 68.5 360 L 202.5 360 L 336.5 360 Q 346.5 360 346.5 370 L 346.5 392 " />
</g>
<g id="group557">
	<path id="path557" d="M 148.5 40 L 256.5 40 " />
</g>
<g id="group560">
	<path id="path560" d="M 148.5 72 L 256.5 72 " />
</g>
<g id="group571">
	<path id="path571" d="M 148.5 232 L 256.5 232 " />
</g>
<g id="group575">
	<path id="path575" d="M 148.5 280 L 256.5 280 " />
</g>
<g id="group586">
	<path id="path586" d="M 148.5 440 L 256.5 440 " />
</g>
<g id="group753">
	<path id="path753" marker-start="url(#iPointer)" marker-end="url(#Pointer)" d="M 202.5 120 L 202.5 152 L 202.5 184 " />
</g>
<g id="group766">
	<path id="path766" marker-start="url(#iPointer)" marker-end="url(#Pointer)" d="M 202.5 328 L 202.5 360 L 202.5 392 " />
</g>
<g id="group1058">
	<path id="path1058" d="M 292.5 40 L 400.5 40 " />
</g>
<g id="group1061">
	<path id="path1061" d="M 292.5 72 L 400.5 72 " />
</g>
<g id="group1085">
	<path id="path1085" d="M 292.5 440 L 400.5 440 " />
</g>
</g>
<g id="text" fill="black" style="font-family:Consolas,Monaco,Anonymous Pro,Anonymous,Bitstream Sans Mono,monospace;font-size:15.2px" >
</g>
</svg>
