<?xml version="1.0" standalone="no"?>
<!DOCTYPE svg PUBLIC "-//W3C//DTD SVG 1.1//EN" 
  "http://www.w3.org/Graphics/SVG/1.1/DTD/svg11.dtd">
<!-- Created with ASCIIToSVG (http://9vx.org/~dho/a2s/) -->
<svg width="423px" height="256px" version="1.1"
  xmlns="http://www.w3.org/2000/svg" xmlns:xlink="http://www.w3.org/1999/xlink">
  <defs>
    <filter id="dsFilter" width="150%" height="150%">
      <feOffset result="offOut" in="SourceGraphic" dx="3" dy="3"/>
      <feColorMatrix result="matrixOut" in="offOut" type="matrix" values="0.2 0 0 0 0 0 0.2 0 0 0 0 0 0.2 0 0 0 0 0 1 0"/>
      <feBlend in="SourceGraphic" in2="matrixOut" mode="normal"/>
    </filter>
    <marker id="iPointer"
      viewBox="0 0 10 10" refX="5" refY="5" 
      markerUnits="strokeWidth"
      markerWidth="8" markerHeight="7"
      orient="auto">
      <path d="M 10 0 L 10 10 L 0 5 z" />
    </marker>
    <marker id="Pointer"
      viewBox="0 0 10 10" refX="5" refY="5" 
      markerUnits="strokeWidth"
      markerWidth="8" markerHeight="7"
      orient="auto">
      <path d="M 0 0 L 10 5 L 0 10 z" />
    </marker>
  </defs><g id="boxes" stroke="black" stroke-width="2" fill="none" >
<g id="group0">
	<path id="path0" filter="url(#dsFilter)" fill="#fff" d="M 4.5 50 Q 4.5 40 14.5 40 L 30.5 40 Q 40.5 40 40.5 50 L 40.5 62 Q 40.5 72 30.5 72 L 14.5 72 Q 4.5 72 4.5 62 Z" />
	<text x="17.1" y="60.8" id="text0" fill="#000" stroke="none" style="font-family:LMMono10,monospace;font-size:15.2px" >C</text>

</g>
<g id="group2">
	<path id="path2" filter="url(#dsFilter)" fill="#fff" d="M 67.5 50 Q 67.5 40 77.5 40 L 93.5 40 Q 103.5 40 103.5 50 L 103.5 62 Q 103.5 72 93.5 72 L 77.5 72 Q 67.5 72 67.5 62 Z" />
	<text x="80.1" y="60.8" id="text2" fill="#000" stroke="none" style="font-family:LMMono10,monospace;font-size:15.2px" >C</text>

</g>
<g id="group4">
	<path id="path4" filter="url(#dsFilter)" fill="#fff" d="M 130.5 50 Q 130.5 40 140.5 40 L 156.5 40 Q 166.5 40 166.5 50 L 166.5 62 Q 166.5 72 156.5 72 L 140.5 72 Q 130.5 72 130.5 62 Z" />
	<text x="143.1" y="60.8" id="text4" fill="#000" stroke="none" style="font-family:LMMono10,monospace;font-size:15.2px" >C</text>

</g>
<g id="group6">
	<path id="path6" filter="url(#dsFilter)" fill="#fff" d="M 256.5 50 Q 256.5 40 266.5 40 L 282.5 40 Q 292.5 40 292.5 50 L 292.5 62 Q 292.5 72 282.5 72 L 266.5 72 Q 256.5 72 256.5 62 Z" />
	<text x="269.1" y="60.8" id="text6" fill="#000" stroke="none" style="font-family:LMMono10,monospace;font-size:15.2px" >C</text>

</g>
<g id="group8">
	<path id="path8" filter="url(#dsFilter)" fill="#fff" d="M 319.5 50 Q 319.5 40 329.5 40 L 345.5 40 Q 355.5 40 355.5 50 L 355.5 62 Q 355.5 72 345.5 72 L 329.5 72 Q 319.5 72 319.5 62 Z" />
	<text x="332.1" y="60.8" id="text8" fill="#000" stroke="none" style="font-family:LMMono10,monospace;font-size:15.2px" >C</text>

</g>
<g id="group10">
	<path id="path10" filter="url(#dsFilter)" fill="#fff" d="M 382.5 50 Q 382.5 40 392.5 40 L 408.5 40 Q 418.5 40 418.5 50 L 418.5 62 Q 418.5 72 408.5 72 L 392.5 72 Q 382.5 72 382.5 62 Z" />
	<text x="395.1" y="60.8" id="text10" fill="#000" stroke="none" style="font-family:LMMono10,monospace;font-size:15.2px" >C</text>

</g>
<g id="group30">
	<path id="path30" filter="url(#dsFilter)" fill="#fff" d="M 4.5 120 L 166.5 120 L 166.5 152 L 4.5 152 Z" />
	<text x="53.1" y="140.8" id="text30" fill="#000" stroke="none" style="font-family:LMMono10,monospace;font-size:15.2px" >Broker </text>

</g>
<g id="group35">
	<path id="path35" filter="url(#dsFilter)" fill="#fff" d="M 256.5 120 L 418.5 120 L 418.5 152 L 256.5 152 Z" />
	<text x="305.1" y="140.8" id="text35" fill="#000" stroke="none" style="font-family:LMMono10,monospace;font-size:15.2px" >Broker </text>

</g>
<g id="group50">
	<path id="path50" filter="url(#dsFilter)" fill="#fff" d="M 4.5 210 Q 4.5 200 14.5 200 L 30.5 200 Q 40.5 200 40.5 210 L 40.5 222 Q 40.5 232 30.5 232 L 14.5 232 Q 4.5 232 4.5 222 Z" />
	<text x="17.1" y="220.8" id="text50" fill="#000" stroke="none" style="font-family:LMMono10,monospace;font-size:15.2px" >W</text>

</g>
<g id="group53">
	<path id="path53" filter="url(#dsFilter)" fill="#fff" d="M 67.5 210 Q 67.5 200 77.5 200 L 93.5 200 Q 103.5 200 103.5 210 L 103.5 222 Q 103.5 232 93.5 232 L 77.5 232 Q 67.5 232 67.5 222 Z" />
	<text x="80.1" y="220.8" id="text53" fill="#000" stroke="none" style="font-family:LMMono10,monospace;font-size:15.2px" >W</text>

</g>
<g id="group56">
	<path id="path56" filter="url(#dsFilter)" fill="#fff" d="M 130.5 210 Q 130.5 200 140.5 200 L 156.5 200 Q 166.5 200 166.5 210 L 166.5 222 Q 166.5 232 156.5 232 L 140.5 232 Q 130.5 232 130.5 222 Z" />
	<text x="143.1" y="220.8" id="text56" fill="#000" stroke="none" style="font-family:LMMono10,monospace;font-size:15.2px" >W</text>

</g>
<g id="group59">
	<path id="path59" filter="url(#dsFilter)" fill="#fff" d="M 256.5 210 Q 256.5 200 266.5 200 L 282.5 200 Q 292.5 200 292.5 210 L 292.5 222 Q 292.5 232 282.5 232 L 266.5 232 Q 256.5 232 256.5 222 Z" />
	<text x="269.1" y="220.8" id="text59" fill="#000" stroke="none" style="font-family:LMMono10,monospace;font-size:15.2px" >W</text>

</g>
<g id="group62">
	<path id="path62" filter="url(#dsFilter)" fill="#fff" d="M 319.5 210 Q 319.5 200 329.5 200 L 345.5 200 Q 355.5 200 355.5 210 L 355.5 222 Q 355.5 232 345.5 232 L 329.5 232 Q 319.5 232 319.5 222 Z" />
	<text x="332.1" y="220.8" id="text62" fill="#000" stroke="none" style="font-family:LMMono10,monospace;font-size:15.2px" >W</text>

</g>
<g id="group65">
	<path id="path65" filter="url(#dsFilter)" fill="#fff" d="M 382.5 210 Q 382.5 200 392.5 200 L 408.5 200 Q 418.5 200 418.5 210 L 418.5 222 Q 418.5 232 408.5 232 L 392.5 232 Q 382.5 232 382.5 222 Z" />
	<text x="395.1" y="220.8" id="text65" fill="#000" stroke="none" style="font-family:LMMono10,monospace;font-size:15.2px" >W</text>

</g>
</g>
<g id="lines" stroke="black" stroke-width="2" fill="none" >
<g id="group116">
	<path id="path116" d="M 22.5 72 L 22.5 120 " />
</g>
<g id="group122">
	<path id="path122" d="M 22.5 152 L 22.5 200 " />
</g>
<g id="group230">
	<path id="path230" d="M 85.5 72 L 85.5 120 " />
</g>
<g id="group236">
	<path id="path236" d="M 85.5 152 L 85.5 200 " />
</g>
<g id="group344">
	<path id="path344" d="M 148.5 72 L 148.5 120 " />
</g>
<g id="group350">
	<path id="path350" d="M 148.5 152 L 148.5 200 " />
</g>
<g id="group398">
	<path id="path398" marker-start="url(#iPointer)" marker-end="url(#Pointer)" d="M 175.5 136 L 247.5 136 " />
</g>
<g id="group454">
	<path id="path454" stroke-dasharray="5 5" d="M 211.5 8 L 211.5 136 " />
</g>
<g id="group463">
	<path id="path463" stroke-dasharray="5 5" d="M 211.5 152 L 211.5 248 " />
</g>
<g id="group570">
	<path id="path570" d="M 274.5 72 L 274.5 120 " />
</g>
<g id="group576">
	<path id="path576" d="M 274.5 152 L 274.5 200 " />
</g>
<g id="group684">
	<path id="path684" d="M 337.5 72 L 337.5 120 " />
</g>
<g id="group690">
	<path id="path690" d="M 337.5 152 L 337.5 200 " />
</g>
<g id="group798">
	<path id="path798" d="M 400.5 72 L 400.5 120 " />
</g>
<g id="group804">
	<path id="path804" d="M 400.5 152 L 400.5 200 " />
</g>
</g>
<g id="text" fill="black" style="font-family:LMMono10,monospace;font-size:15.2px" >
<text x="44.1" y="12.8" id="text0" fill="#000" >Cluster 1 </text>
<text x="296.1" y="12.8" id="text1" fill="#000" >Cluster 2</text>
</g>
</svg>
