<?xml version="1.0" standalone="no"?>
<!DOCTYPE svg PUBLIC "-//W3C//DTD SVG 1.1//EN" 
  "http://www.w3.org/Graphics/SVG/1.1/DTD/svg11.dtd">
<!-- Created with ASCIIToSVG (http://9vx.org/~dho/a2s/) -->
<svg width="441px" height="304px" version="1.1"
  xmlns="http://www.w3.org/2000/svg" xmlns:xlink="http://www.w3.org/1999/xlink">
  <defs>
    <filter id="dsFilter" width="150%" height="150%">
      <feOffset result="offOut" in="SourceGraphic" dx="3" dy="3"/>
      <feColorMatrix result="matrixOut" in="offOut" type="matrix" values="0.2 0 0 0 0 0 0.2 0 0 0 0 0 0.2 0 0 0 0 0 1 0"/>
      <feBlend in="SourceGraphic" in2="matrixOut" mode="normal"/>
    </filter>
    <marker id="iPointer"
      viewBox="0 0 10 10" refX="5" refY="5" 
      markerUnits="strokeWidth"
      markerWidth="8" markerHeight="7"
      orient="auto">
      <path d="M 10 0 L 10 10 L 0 5 z" />
    </marker>
    <marker id="Pointer"
      viewBox="0 0 10 10" refX="5" refY="5" 
      markerUnits="strokeWidth"
      markerWidth="8" markerHeight="7"
      orient="auto">
      <path d="M 0 0 L 10 5 L 0 10 z" />
    </marker>
  </defs><g id="boxes" stroke="black" stroke-width="2" fill="none" >
<g id="group0">
	<path id="path0" filter="url(#dsFilter)" fill="#fff" d="M 112.5 40 L 193.5 40 L 193.5 94 Q 193.5 104 183.5 104 L 122.5 104 Q 112.5 104 112.5 94 Z" />
	<text x="125.1" y="92.8" id="text0" fill="#000" stroke="none" style="font-family:LMMono10,monospace;font-size:15.2px" >ROUTER </text>

</g>
<g id="group2">
	<path id="path2" filter="url(#dsFilter)" fill="#fff" d="M 355.5 40 L 436.5 40 L 436.5 94 Q 436.5 104 426.5 104 L 365.5 104 Q 355.5 104 355.5 94 Z" />
	<text x="368.1" y="92.8" id="text2" fill="#000" stroke="none" style="font-family:LMMono10,monospace;font-size:15.2px" >ROUTER </text>

</g>
<g id="group24">
	<path id="path24" filter="url(#dsFilter)" fill="#fff" d="M 4.5 226 Q 4.5 216 14.5 216 L 75.5 216 Q 85.5 216 85.5 226 L 85.5 280 L 4.5 280 Z" />
	<text x="17.1" y="236.8" id="text24" fill="#000" stroke="none" style="font-family:LMMono10,monospace;font-size:15.2px" >ROUTER </text>

	<text x="17.1" y="268.8" id="text24" fill="#000" stroke="none" style="font-family:LMMono10,monospace;font-size:15.2px" >Worker </text>

</g>
<g id="group28">
	<path id="path28" filter="url(#dsFilter)" fill="#fff" d="M 112.5 226 Q 112.5 216 122.5 216 L 183.5 216 Q 193.5 216 193.5 226 L 193.5 280 L 112.5 280 Z" />
	<text x="125.1" y="236.8" id="text28" fill="#000" stroke="none" style="font-family:LMMono10,monospace;font-size:15.2px" >ROUTER </text>

	<text x="125.1" y="268.8" id="text28" fill="#000" stroke="none" style="font-family:LMMono10,monospace;font-size:15.2px" >Worker </text>

</g>
<g id="group32">
	<path id="path32" filter="url(#dsFilter)" fill="#fff" d="M 220.5 226 Q 220.5 216 230.5 216 L 291.5 216 Q 301.5 216 301.5 226 L 301.5 280 L 220.5 280 Z" />
	<text x="233.1" y="236.8" id="text32" fill="#000" stroke="none" style="font-family:LMMono10,monospace;font-size:15.2px" >ROUTER </text>

	<text x="233.1" y="268.8" id="text32" fill="#000" stroke="none" style="font-family:LMMono10,monospace;font-size:15.2px" >Worker </text>

</g>
</g>
<g id="lines" stroke="black" stroke-width="2" fill="none" >
<g id="group63">
	<path id="path63" d="M 4.5 248 L 85.5 248 " />
</g>
<g id="group138">
	<path id="path138" d="M 40.5 216 L 40.5 178 Q 40.5 168 50.5 168 L 58.5 168 L 148.5 168 L 166.5 168 L 246.5 168 Q 256.5 168 256.5 178 L 256.5 216 " />
</g>
<g id="group177">
	<path id="path177" d="M 58.5 216 L 58.5 168 L 58.5 146 Q 58.5 136 68.5 136 L 148.5 136 L 166.5 136 L 274.5 136 L 381.5 136 Q 391.5 136 391.5 126 L 391.5 104 " />
</g>
<g id="group283">
	<path id="path283" d="M 112.5 72 L 193.5 72 " />
</g>
<g id="group295">
	<path id="path295" d="M 112.5 248 L 193.5 248 " />
</g>
<g id="group363">
	<path id="path363" d="M 148.5 104 L 148.5 136 L 148.5 168 L 148.5 216 " />
</g>
<g id="group404">
	<path id="path404" d="M 166.5 136 L 166.5 168 L 166.5 216 " />
</g>
<g id="group526">
	<path id="path526" d="M 220.5 248 L 301.5 248 " />
</g>
<g id="group634">
	<path id="path634" d="M 274.5 136 L 274.5 216 " />
</g>
<g id="group741">
	<path id="path741" stroke-dasharray="5 5" d="M 328.5 8 L 328.5 136 " />
</g>
<g id="group750">
	<path id="path750" stroke-dasharray="5 5" d="M 328.5 152 L 328.5 296 " />
</g>
<g id="group802">
	<path id="path802" d="M 355.5 72 L 436.5 72 " />
</g>
</g>
<g id="text" fill="black" style="font-family:LMMono10,monospace;font-size:15.2px" >
<text x="107.1" y="12.8" id="text0" fill="#000" >Cluster 1 </text>
<text x="350.1" y="12.8" id="text1" fill="#000" >Cluster 2</text>
</g>
</svg>
