<?xml version="1.0" standalone="no"?>
<!DOCTYPE svg PUBLIC "-//W3C//DTD SVG 1.1//EN" 
  "http://www.w3.org/Graphics/SVG/1.1/DTD/svg11.dtd">
<!-- Created with ASCIIToSVG (http://9vx.org/~dho/a2s/) -->
<svg width="405px" height="320px" version="1.1"
  xmlns="http://www.w3.org/2000/svg" xmlns:xlink="http://www.w3.org/1999/xlink">
  <defs>
    <filter id="dsFilter" width="150%" height="150%">
      <feOffset result="offOut" in="SourceGraphic" dx="3" dy="3"/>
      <feColorMatrix result="matrixOut" in="offOut" type="matrix" values="0.2 0 0 0 0 0 0.2 0 0 0 0 0 0.2 0 0 0 0 0 1 0"/>
      <feBlend in="SourceGraphic" in2="matrixOut" mode="normal"/>
    </filter>
    <marker id="iPointer"
      viewBox="0 0 10 10" refX="5" refY="5" 
      markerUnits="strokeWidth"
      markerWidth="8" markerHeight="7"
      orient="auto">
      <path d="M 10 0 L 10 10 L 0 5 z" />
    </marker>
    <marker id="Pointer"
      viewBox="0 0 10 10" refX="5" refY="5" 
      markerUnits="strokeWidth"
      markerWidth="8" markerHeight="7"
      orient="auto">
      <path d="M 0 0 L 10 5 L 0 10 z" />
    </marker>
  </defs><g id="boxes" stroke="black" stroke-width="2" fill="none" >
<g id="group0">
	<path id="path0" filter="url(#dsFilter)" fill="#fff" d="M 4.5 8 L 112.5 8 L 112.5 94 Q 112.5 104 102.5 104 L 14.5 104 Q 4.5 104 4.5 94 Z" />
	<text x="26.1" y="28.8" id="text0" fill="#000" stroke="none" style="font-family:LMMono10,monospace;font-size:15.2px" >Client </text>

	<text x="35.1" y="60.8" id="text0" fill="#000" stroke="none" style="font-family:LMMono10,monospace;font-size:15.2px" >Retry </text>

	<text x="44.1" y="92.8" id="text0" fill="#000" stroke="none" style="font-family:LMMono10,monospace;font-size:15.2px" >REQ </text>

</g>
<g id="group2">
	<path id="path2" filter="url(#dsFilter)" fill="#fff" d="M 148.5 8 L 256.5 8 L 256.5 94 Q 256.5 104 246.5 104 L 158.5 104 Q 148.5 104 148.5 94 Z" />
	<text x="170.1" y="28.8" id="text2" fill="#000" stroke="none" style="font-family:LMMono10,monospace;font-size:15.2px" >Client </text>

	<text x="179.1" y="60.8" id="text2" fill="#000" stroke="none" style="font-family:LMMono10,monospace;font-size:15.2px" >Retry </text>

	<text x="188.1" y="92.8" id="text2" fill="#000" stroke="none" style="font-family:LMMono10,monospace;font-size:15.2px" >REQ </text>

</g>
<g id="group4">
	<path id="path4" filter="url(#dsFilter)" fill="#fff" d="M 292.5 8 L 400.5 8 L 400.5 94 Q 400.5 104 390.5 104 L 302.5 104 Q 292.5 104 292.5 94 Z" />
	<text x="314.1" y="28.8" id="text4" fill="#000" stroke="none" style="font-family:LMMono10,monospace;font-size:15.2px" >Client </text>

	<text x="323.1" y="60.8" id="text4" fill="#000" stroke="none" style="font-family:LMMono10,monospace;font-size:15.2px" >Retry </text>

	<text x="332.1" y="92.8" id="text4" fill="#000" stroke="none" style="font-family:LMMono10,monospace;font-size:15.2px" >REQ </text>

</g>
<g id="group27">
	<path id="path27" filter="url(#dsFilter)" fill="#fff" d="M 139.5 210 Q 139.5 200 149.5 200 L 255.5 200 Q 265.5 200 265.5 210 L 265.5 296 L 139.5 296 Z" />
	<text x="188.1" y="220.8" id="text27" fill="#000" stroke="none" style="font-family:LMMono10,monospace;font-size:15.2px" >REP </text>

	<text x="179.1" y="268.8" id="text27" fill="#000" stroke="none" style="font-family:LMMono10,monospace;font-size:15.2px" >Server </text>

</g>
</g>
<g id="lines" stroke="black" stroke-width="2" fill="none" >
<g id="group35">
	<path id="path35" d="M 4.5 40 L 112.5 40 " />
</g>
<g id="group38">
	<path id="path38" d="M 4.5 72 L 112.5 72 " />
</g>
<g id="group162">
	<path id="path162" marker-start="url(#iPointer)" marker-end="url(#Pointer)" d="M 58.5 120 L 58.5 142 Q 58.5 152 68.5 152 L 202.5 152 L 336.5 152 Q 346.5 152 346.5 142 L 346.5 120 " />
</g>
<g id="group349">
	<path id="path349" d="M 139.5 232 L 265.5 232 " />
</g>
<g id="group358">
	<path id="path358" d="M 148.5 40 L 256.5 40 " />
</g>
<g id="group361">
	<path id="path361" d="M 148.5 72 L 256.5 72 " />
</g>
<g id="group485">
	<path id="path485" marker-start="url(#iPointer)" marker-end="url(#Pointer)" d="M 202.5 120 L 202.5 152 L 202.5 184 " />
</g>
<g id="group680">
	<path id="path680" d="M 292.5 40 L 400.5 40 " />
</g>
<g id="group683">
	<path id="path683" d="M 292.5 72 L 400.5 72 " />
</g>
</g>
<g id="text" fill="black" style="font-family:LMMono10,monospace;font-size:15.2px" >
</g>
</svg>
