<?xml version="1.0" standalone="no"?>
<!DOCTYPE svg PUBLIC "-//W3C//DTD SVG 1.1//EN" 
  "http://www.w3.org/Graphics/SVG/1.1/DTD/svg11.dtd">
<!-- Created with ASCIIToSVG (http://9vx.org/~dho/a2s/) -->
<svg width="378px" height="432px" version="1.1"
  xmlns="http://www.w3.org/2000/svg" xmlns:xlink="http://www.w3.org/1999/xlink">
  <defs>
    <filter id="dsFilter" width="150%" height="150%">
      <feOffset result="offOut" in="SourceGraphic" dx="3" dy="3"/>
      <feColorMatrix result="matrixOut" in="offOut" type="matrix" values="0.2 0 0 0 0 0 0.2 0 0 0 0 0 0.2 0 0 0 0 0 1 0"/>
      <feBlend in="SourceGraphic" in2="matrixOut" mode="normal"/>
    </filter>
    <marker id="iPointer"
      viewBox="0 0 10 10" refX="5" refY="5" 
      markerUnits="strokeWidth"
      markerWidth="8" markerHeight="7"
      orient="auto">
      <path d="M 10 0 L 10 10 L 0 5 z" />
    </marker>
    <marker id="Pointer"
      viewBox="0 0 10 10" refX="5" refY="5" 
      markerUnits="strokeWidth"
      markerWidth="8" markerHeight="7"
      orient="auto">
      <path d="M 0 0 L 10 5 L 0 10 z" />
    </marker>
  </defs><g id="boxes" stroke="black" stroke-width="2" fill="none" >
<g id="group0">
	<path id="path0" filter="url(#dsFilter)" fill="#fff" d="M 139.5 8 L 247.5 8 L 247.5 62 Q 247.5 72 237.5 72 L 149.5 72 Q 139.5 72 139.5 62 Z" />
	<text x="152.1" y="28.8" id="text0" fill="#000" stroke="none" style="font-family:LMMono10,monospace;font-size:15.2px" >Publisher </text>

	<text x="179.1" y="60.8" id="text0" fill="#000" stroke="none" style="font-family:LMMono10,monospace;font-size:15.2px" >PUB </text>

</g>
<g id="group9">
	<path id="path9" filter="url(#dsFilter)" fill="#fff" d="M 139.5 162 Q 139.5 152 149.5 152 L 237.5 152 Q 247.5 152 247.5 162 L 247.5 238 Q 247.5 248 237.5 248 L 149.5 248 Q 139.5 248 139.5 238 Z" />
	<text x="179.1" y="172.8" id="text9" fill="#000" stroke="none" style="font-family:LMMono10,monospace;font-size:15.2px" >SUB </text>

	<text x="152.1" y="204.8" id="text9" fill="#000" stroke="none" style="font-family:LMMono10,monospace;font-size:15.2px" >Subscriber </text>

	<text x="170.1" y="236.8" id="text9" fill="#000" stroke="none" style="font-family:LMMono10,monospace;font-size:15.2px" >PUSH </text>

</g>
<g id="group21">
	<path id="path21" filter="url(#dsFilter)" fill="#fff" d="M 31.5 338 Q 31.5 328 41.5 328 L 102.5 328 Q 112.5 328 112.5 338 L 112.5 392 L 31.5 392 Z" />
	<text x="53.1" y="348.8" id="text21" fill="#000" stroke="none" style="font-family:LMMono10,monospace;font-size:15.2px" >PULL </text>

	<text x="44.1" y="380.8" id="text21" fill="#000" stroke="none" style="font-family:LMMono10,monospace;font-size:15.2px" >Worker </text>

</g>
<g id="group23">
	<path id="path23" filter="url(#dsFilter)" fill="#fff" d="M 148.5 338 Q 148.5 328 158.5 328 L 219.5 328 Q 229.5 328 229.5 338 L 229.5 392 L 148.5 392 Z" />
	<text x="170.1" y="348.8" id="text23" fill="#000" stroke="none" style="font-family:LMMono10,monospace;font-size:15.2px" >PULL </text>

	<text x="161.1" y="380.8" id="text23" fill="#000" stroke="none" style="font-family:LMMono10,monospace;font-size:15.2px" >Worker </text>

</g>
<g id="group25">
	<path id="path25" filter="url(#dsFilter)" fill="#fff" d="M 265.5 338 Q 265.5 328 275.5 328 L 336.5 328 Q 346.5 328 346.5 338 L 346.5 392 L 265.5 392 Z" />
	<text x="287.1" y="348.8" id="text25" fill="#000" stroke="none" style="font-family:LMMono10,monospace;font-size:15.2px" >PULL </text>

	<text x="278.1" y="380.8" id="text25" fill="#000" stroke="none" style="font-family:LMMono10,monospace;font-size:15.2px" >Worker </text>

</g>
</g>
<g id="lines" stroke="black" stroke-width="2" fill="none" >
<g id="group144">
	<path id="path144" d="M 31.5 360 L 112.5 360 " />
</g>
<g id="group277">
	<path id="path277" marker-start="url(#iPointer)" marker-end="url(#Pointer)" d="M 76.5 312 L 76.5 290 Q 76.5 280 86.5 280 L 193.5 280 L 300.5 280 Q 310.5 280 310.5 290 L 310.5 312 " />
</g>
<g id="group449">
	<path id="path449" d="M 139.5 40 L 247.5 40 " />
</g>
<g id="group459">
	<path id="path459" d="M 139.5 184 L 247.5 184 " />
</g>
<g id="group462">
	<path id="path462" d="M 139.5 216 L 247.5 216 " />
</g>
<g id="group499">
	<path id="path499" d="M 148.5 360 L 229.5 360 " />
</g>
<g id="group565">
	<path id="path565" stroke-dasharray="5 5" d="M 175.5 104 L 14.5 104 Q 4.5 104 4.5 114 L 4.5 398 Q 4.5 408 14.5 408 L 363.5 408 Q 373.5 408 373.5 398 L 373.5 114 Q 373.5 104 363.5 104 L 202.5 104 " />
</g>
<g id="group617">
	<path id="path617" marker-end="url(#Pointer)" d="M 193.5 72 L 193.5 136 " />
</g>
<g id="group629">
	<path id="path629" marker-end="url(#Pointer)" d="M 193.5 248 L 193.5 280 L 193.5 312 " />
</g>
<g id="group853">
	<path id="path853" d="M 265.5 360 L 346.5 360 " />
</g>
</g>
<g id="text" fill="black" style="font-family:LMMono10,monospace;font-size:15.2px" >
<text x="287.1" y="124.8" id="text2" fill="#000" >Fast box </text>
</g>
</svg>
