<?xml version="1.0" standalone="no"?>
<!DOCTYPE svg PUBLIC "-//W3C//DTD SVG 1.1//EN" 
  "http://www.w3.org/Graphics/SVG/1.1/DTD/svg11.dtd">
<!-- Created with ASCIIToSVG (http://9vx.org/~dho/a2s/) -->
<svg width="507px" height="462px" version="1.1"
  xmlns="http://www.w3.org/2000/svg" xmlns:xlink="http://www.w3.org/1999/xlink">
  <defs>
    <filter id="dsFilter" width="150%" height="150%">
      <feOffset result="offOut" in="SourceGraphic" dx="3" dy="3"/>
      <feColorMatrix result="matrixOut" in="offOut" type="matrix" values="0.2 0 0 0 0 0 0.2 0 0 0 0 0 0.2 0 0 0 0 0 1 0"/>
      <feGaussianBlur result="blurOut" in="matrixOut" stdDeviation="3"/>
      <feBlend in="SourceGraphic" in2="blurOut" mode="normal"/>
    </filter>
    <marker id="iPointer"
      viewBox="0 0 10 10" refX="5" refY="5" 
      markerUnits="strokeWidth"
      markerWidth="8" markerHeight="7"
      orient="auto">
      <path d="M 10 0 L 10 10 L 0 5 z" />
    </marker>
    <marker id="Pointer"
      viewBox="0 0 10 10" refX="5" refY="5" 
      markerUnits="strokeWidth"
      markerWidth="8" markerHeight="7"
      orient="auto">
      <path d="M 0 0 L 10 5 L 0 10 z" />
    </marker>
  </defs><g id="boxes" stroke="black" stroke-width="2" fill="none" >
<g id="group0">
	<path id="path0" filter="url(#dsFilter)" fill="#fff" d="M 184.5 8 L 292.5 8 L 292.5 62 Q 292.5 72 282.5 72 L 194.5 72 Q 184.5 72 184.5 62 Z" />
	<text x="197.1" y="28.8" id="text0" fill="#000" stroke="none" style="font-family:Consolas,Monaco,Anonymous Pro,Anonymous,Bitstream Sans Mono,monospace;font-size:15.2px" >Publisher </text>

	<text x="197.1" y="60.8" id="text0" fill="#000" stroke="none" style="font-family:Consolas,Monaco,Anonymous Pro,Anonymous,Bitstream Sans Mono,monospace;font-size:15.2px" >PUB </text>

	<text x="251.1" y="60.8" id="text0" fill="#000" stroke="none" style="font-family:Consolas,Monaco,Anonymous Pro,Anonymous,Bitstream Sans Mono,monospace;font-size:15.2px" >PUB </text>

</g>
<g id="group12">
	<path id="path12" filter="url(#dsFilter)" fill="#fff" d="M 184.5 162 Q 184.5 152 194.5 152 L 282.5 152 Q 292.5 152 292.5 162 L 292.5 238 Q 292.5 248 282.5 248 L 194.5 248 Q 184.5 248 184.5 238 Z" />
	<text x="197.1" y="172.8" id="text12" fill="#000" stroke="none" style="font-family:Consolas,Monaco,Anonymous Pro,Anonymous,Bitstream Sans Mono,monospace;font-size:15.2px" >SUB </text>

	<text x="251.1" y="172.8" id="text12" fill="#000" stroke="none" style="font-family:Consolas,Monaco,Anonymous Pro,Anonymous,Bitstream Sans Mono,monospace;font-size:15.2px" >SUB </text>

	<text x="197.1" y="204.8" id="text12" fill="#000" stroke="none" style="font-family:Consolas,Monaco,Anonymous Pro,Anonymous,Bitstream Sans Mono,monospace;font-size:15.2px" >Subscriber </text>

	<text x="197.1" y="236.8" id="text12" fill="#000" stroke="none" style="font-family:Consolas,Monaco,Anonymous Pro,Anonymous,Bitstream Sans Mono,monospace;font-size:15.2px" >PUSH PUSH </text>

</g>
<g id="group31">
	<path id="path31" filter="url(#dsFilter)" fill="#fff" d="M 40.5 338 Q 40.5 328 50.5 328 L 138.5 328 Q 148.5 328 148.5 338 L 148.5 392 L 40.5 392 Z" />
	<text x="71.1" y="348.8" id="text31" fill="#000" stroke="none" style="font-family:Consolas,Monaco,Anonymous Pro,Anonymous,Bitstream Sans Mono,monospace;font-size:15.2px" >PULL </text>

	<text x="62.1" y="380.8" id="text31" fill="#000" stroke="none" style="font-family:Consolas,Monaco,Anonymous Pro,Anonymous,Bitstream Sans Mono,monospace;font-size:15.2px" >Worker </text>

</g>
<g id="group33">
	<path id="path33" filter="url(#dsFilter)" fill="#fff" d="M 184.5 338 Q 184.5 328 194.5 328 L 282.5 328 Q 292.5 328 292.5 338 L 292.5 392 L 184.5 392 Z" />
	<text x="215.1" y="348.8" id="text33" fill="#000" stroke="none" style="font-family:Consolas,Monaco,Anonymous Pro,Anonymous,Bitstream Sans Mono,monospace;font-size:15.2px" >PULL </text>

	<text x="206.1" y="380.8" id="text33" fill="#000" stroke="none" style="font-family:Consolas,Monaco,Anonymous Pro,Anonymous,Bitstream Sans Mono,monospace;font-size:15.2px" >Worker </text>

</g>
<g id="group35">
	<path id="path35" filter="url(#dsFilter)" fill="#fff" d="M 328.5 338 Q 328.5 328 338.5 328 L 426.5 328 Q 436.5 328 436.5 338 L 436.5 392 L 328.5 392 Z" />
	<text x="359.1" y="348.8" id="text35" fill="#000" stroke="none" style="font-family:Consolas,Monaco,Anonymous Pro,Anonymous,Bitstream Sans Mono,monospace;font-size:15.2px" >PULL </text>

	<text x="350.1" y="380.8" id="text35" fill="#000" stroke="none" style="font-family:Consolas,Monaco,Anonymous Pro,Anonymous,Bitstream Sans Mono,monospace;font-size:15.2px" >Worker </text>

</g>
</g>
<g id="lines" stroke="black" stroke-width="2" fill="none" >
<g id="group181">
	<path id="path181" d="M 40.5 360 L 148.5 360 " />
</g>
<g id="group341">
	<path id="path341" marker-start="url(#iPointer)" marker-end="url(#Pointer)" d="M 94.5 312 L 94.5 290 Q 94.5 280 104.5 280 L 211.5 280 L 228.5 280 Q 238.5 280 238.5 290 L 238.5 312 " />
</g>
<g id="group594">
	<path id="path594" d="M 184.5 40 L 238.5 40 L 292.5 40 " />
</g>
<g id="group604">
	<path id="path604" d="M 184.5 184 L 238.5 184 L 292.5 184 " />
</g>
<g id="group607">
	<path id="path607" d="M 184.5 216 L 238.5 216 L 292.5 216 " />
</g>
<g id="group617">
	<path id="path617" d="M 184.5 360 L 292.5 360 " />
</g>
<g id="group656">
	<path id="path656" stroke-dasharray="5 5" d="M 202.5 104 L 14.5 104 Q 4.5 104 4.5 114 L 4.5 398 Q 4.5 408 14.5 408 L 462.5 408 Q 472.5 408 472.5 398 L 472.5 114 Q 472.5 104 462.5 104 L 265.5 104 " />
</g>
<g id="group681">
	<path id="path681" marker-end="url(#Pointer)" d="M 211.5 72 L 211.5 136 " />
</g>
<g id="group693">
	<path id="path693" d="M 211.5 248 L 211.5 280 " />
</g>
<g id="group712">
	<path id="path712" stroke-dasharray="5 5" d="M 220.5 104 L 265.5 104 " />
</g>
<g id="group762">
	<path id="path762" d="M 238.5 40 L 238.5 72 " />
</g>
<g id="group770">
	<path id="path770" d="M 238.5 152 L 238.5 184 " />
</g>
<g id="group775">
	<path id="path775" d="M 238.5 216 L 238.5 248 " />
</g>
<g id="group848">
	<path id="path848" d="M 265.5 72 L 265.5 104 " />
</g>
<g id="group853">
	<path id="path853" marker-start="url(#iPointer)" d="M 265.5 136 L 265.5 104 " />
</g>
<g id="group860">
	<path id="path860" marker-end="url(#Pointer)" d="M 265.5 248 L 265.5 270 Q 265.5 280 275.5 280 L 372.5 280 Q 382.5 280 382.5 290 L 382.5 312 " />
</g>
<g id="group1057">
	<path id="path1057" d="M 328.5 360 L 436.5 360 " />
</g>
</g>
<g id="text" fill="black" style="font-family:Consolas,Monaco,Anonymous Pro,Anonymous,Bitstream Sans Mono,monospace;font-size:15.2px" >
<text x="386.1" y="124.8" id="text3" fill="#000" >Fast box </text>
</g>
</svg>
