<?xml version="1.0" standalone="no"?>
<!DOCTYPE svg PUBLIC "-//W3C//DTD SVG 1.1//EN" 
  "http://www.w3.org/Graphics/SVG/1.1/DTD/svg11.dtd">
<!-- Created with ASCIIToSVG (http://9vx.org/~dho/a2s/) -->
<svg width="675px" height="416px" version="1.1"
  xmlns="http://www.w3.org/2000/svg" xmlns:xlink="http://www.w3.org/1999/xlink">
  <defs>
    <filter id="dsFilter" width="150%" height="150%">
      <feOffset result="offOut" in="SourceGraphic" dx="3" dy="3"/>
      <feColorMatrix result="matrixOut" in="offOut" type="matrix" values="0.2 0 0 0 0 0 0.2 0 0 0 0 0 0.2 0 0 0 0 0 1 0"/>
      <feBlend in="SourceGraphic" in2="matrixOut" mode="normal"/>
    </filter>
    <marker id="iPointer"
      viewBox="0 0 10 10" refX="5" refY="5" 
      markerUnits="strokeWidth"
      markerWidth="8" markerHeight="7"
      orient="auto">
      <path d="M 10 0 L 10 10 L 0 5 z" />
    </marker>
    <marker id="Pointer"
      viewBox="0 0 10 10" refX="5" refY="5" 
      markerUnits="strokeWidth"
      markerWidth="8" markerHeight="7"
      orient="auto">
      <path d="M 0 0 L 10 5 L 0 10 z" />
    </marker>
  </defs><g id="boxes" stroke="black" stroke-width="2" fill="none" >
<g id="group4">
	<path id="path4" filter="url(#dsFilter)" fill="#fff" d="M 4.5 82 Q 4.5 72 14.5 72 L 102.5 72 Q 112.5 72 112.5 82 L 112.5 126 Q 112.5 136 102.5 136 L 14.5 136 Q 4.5 136 4.5 126 Z" />
	<text x="26.1" y="108.8" id="text4" fill="#000" stroke="none" style="font-family:LMMono10,monospace;font-size:15.2px" >Primary </text>

</g>
<g id="group7">
	<path id="path7" filter="url(#dsFilter)" fill="#fff" d="M 274.5 82 Q 274.5 72 284.5 72 L 372.5 72 Q 382.5 72 382.5 82 L 382.5 126 Q 382.5 136 372.5 136 L 284.5 136 Q 274.5 136 274.5 126 Z" />
	<text x="296.1" y="108.8" id="text7" fill="#000" stroke="none" style="font-family:LMMono10,monospace;font-size:15.2px" >Active </text>

</g>
<g id="group9">
	<path id="path9" filter="url(#dsFilter)" fill="#fff" d="M 553.5 82 Q 553.5 72 563.5 72 L 651.5 72 Q 661.5 72 661.5 82 L 661.5 126 Q 661.5 136 651.5 136 L 563.5 136 Q 553.5 136 553.5 126 Z" />
	<text x="575.1" y="108.8" id="text9" fill="#000" stroke="none" style="font-family:LMMono10,monospace;font-size:15.2px" >Backup </text>

</g>
<g id="group26">
	<path id="path26" filter="url(#dsFilter)" fill="#fff" d="M 274.5 210 Q 274.5 200 284.5 200 L 372.5 200 Q 382.5 200 382.5 210 L 382.5 254 Q 382.5 264 372.5 264 L 284.5 264 Q 274.5 264 274.5 254 Z" />
	<text x="296.1" y="236.8" id="text26" fill="#000" stroke="none" style="font-family:LMMono10,monospace;font-size:15.2px" >Error! </text>

</g>
<g id="group30">
	<path id="path30" filter="url(#dsFilter)" fill="#fff" d="M 274.5 338 Q 274.5 328 284.5 328 L 372.5 328 Q 382.5 328 382.5 338 L 382.5 382 Q 382.5 392 372.5 392 L 284.5 392 Q 274.5 392 274.5 382 Z" />
	<text x="296.1" y="364.8" id="text30" fill="#000" stroke="none" style="font-family:LMMono10,monospace;font-size:15.2px" >Passive </text>

</g>
</g>
<g id="lines" stroke="black" stroke-width="2" fill="none" >
<g id="group202">
	<path id="path202" marker-start="url(#iPointer)" d="M 58.5 56 L 58.5 24 " />
</g>
<g id="group207">
	<path id="path207" marker-end="url(#Pointer)" d="M 58.5 136 L 58.5 366 Q 58.5 376 68.5 376 L 265.5 376 " />
</g>
<g id="group308">
	<path id="path308" marker-end="url(#Pointer)" d="M 94.5 72 L 94.5 18 Q 94.5 8 104.5 8 L 300.5 8 Q 310.5 8 310.5 18 L 310.5 56 " />
</g>
<g id="group363">
	<path id="path363" marker-end="url(#Pointer)" d="M 112.5 104 L 265.5 104 " />
</g>
<g id="group807">
	<path id="path807" marker-start="url(#iPointer)" d="M 265.5 120 L 212.5 120 Q 202.5 120 202.5 130 L 202.5 350 Q 202.5 360 212.5 360 L 274.5 360 " />
</g>
<g id="group990">
	<path id="path990" marker-end="url(#Pointer)" d="M 328.5 136 L 328.5 184 " />
</g>
<g id="group1000">
	<path id="path1000" marker-start="url(#iPointer)" d="M 328.5 280 L 328.5 328 " />
</g>
<g id="group1038">
	<path id="path1038" marker-start="url(#iPointer)" d="M 346.5 56 L 346.5 18 Q 346.5 8 356.5 8 L 435.5 8 Q 445.5 8 445.5 18 L 445.5 78 Q 445.5 88 435.5 88 L 382.5 88 L 382.5 82 Q 382.5 72 372.5 72 " />
</g>
<g id="group1160">
	<path id="path1160" marker-end="url(#Pointer)" d="M 382.5 344 L 435.5 344 Q 445.5 344 445.5 334 L 445.5 130 Q 445.5 120 435.5 120 L 391.5 120 " />
</g>
<g id="group1162">
	<path id="path1162" marker-end="url(#Pointer)" d="M 382.5 360 L 516.5 360 Q 526.5 360 526.5 350 L 526.5 114 Q 526.5 104 516.5 104 L 391.5 104 " />
</g>
<g id="group1190">
	<path id="path1190" marker-start="url(#iPointer)" d="M 391.5 376 L 597.5 376 Q 607.5 376 607.5 366 L 607.5 136 " />
</g>
<g id="group1794">
	<path id="path1794" marker-start="url(#iPointer)" d="M 607.5 56 L 607.5 24 " />
</g>
</g>
<g id="text" fill="black" style="font-family:LMMono10,monospace;font-size:15.2px" >
<text x="35.1" y="12.8" id="text0" fill="#000" >Start </text>
<text x="584.1" y="12.8" id="text1" fill="#000" >Start</text>
<text x="98.1" y="44.8" id="text2" fill="#000" >Client Request </text>
<text x="386.1" y="44.8" id="text3" fill="#000" >Client </text>
<text x="458.1" y="44.8" id="text4" fill="#000" >Request </text>
<text x="125.1" y="92.8" id="text5" fill="#000" >Peer Backup </text>
<text x="17.1" y="172.8" id="text9" fill="#000" >Peer </text>
<text x="71.1" y="172.8" id="text10" fill="#000" >Active </text>
<text x="287.1" y="172.8" id="text11" fill="#000" >Peer </text>
<text x="341.1" y="172.8" id="text12" fill="#000" >Active </text>
<text x="566.1" y="172.8" id="text13" fill="#000" >Peer </text>
<text x="620.1" y="172.8" id="text14" fill="#000" >Active</text>
<text x="161.1" y="236.8" id="text15" fill="#000" >Peer </text>
<text x="215.1" y="236.8" id="text16" fill="#000" >Backup </text>
<text x="404.1" y="236.8" id="text18" fill="#000" >Peer </text>
<text x="458.1" y="236.8" id="text19" fill="#000" >Primary </text>
<text x="287.1" y="300.8" id="text20" fill="#000" >Peer </text>
<text x="341.1" y="300.8" id="text21" fill="#000" >Passive </text>
<text x="467.1" y="300.8" id="text22" fill="#000" >Client </text>
<text x="539.1" y="300.8" id="text23" fill="#000" >Vote </text>
</g>
</svg>
