<?xml version="1.0" standalone="no"?>
<!DOCTYPE svg PUBLIC "-//W3C//DTD SVG 1.1//EN" 
  "http://www.w3.org/Graphics/SVG/1.1/DTD/svg11.dtd">
<!-- Created with ASCIIToSVG (http://9vx.org/~dho/a2s/) -->
<svg width="507px" height="462px" version="1.1"
  xmlns="http://www.w3.org/2000/svg" xmlns:xlink="http://www.w3.org/1999/xlink">
  <defs>
    <filter id="dsFilter" width="150%" height="150%">
      <feOffset result="offOut" in="SourceGraphic" dx="3" dy="3"/>
      <feColorMatrix result="matrixOut" in="offOut" type="matrix" values="0.2 0 0 0 0 0 0.2 0 0 0 0 0 0.2 0 0 0 0 0 1 0"/>
      <feGaussianBlur result="blurOut" in="matrixOut" stdDeviation="3"/>
      <feBlend in="SourceGraphic" in2="blurOut" mode="normal"/>
    </filter>
    <marker id="iPointer"
      viewBox="0 0 10 10" refX="5" refY="5" 
      markerUnits="strokeWidth"
      markerWidth="8" markerHeight="7"
      orient="auto">
      <path d="M 10 0 L 10 10 L 0 5 z" />
    </marker>
    <marker id="Pointer"
      viewBox="0 0 10 10" refX="5" refY="5" 
      markerUnits="strokeWidth"
      markerWidth="8" markerHeight="7"
      orient="auto">
      <path d="M 0 0 L 10 5 L 0 10 z" />
    </marker>
  </defs><g id="boxes" stroke="black" stroke-width="2" fill="none" >
<g id="group0">
	<path id="path0" filter="url(#dsFilter)" fill="#fff" d="M 184.5 8 L 292.5 8 L 292.5 62 Q 292.5 72 282.5 72 L 194.5 72 Q 184.5 72 184.5 62 Z" />
	<text x="197.1" y="28.8" id="text0" fill="#000" stroke="none" style="font-family:Consolas,Monaco,Anonymous Pro,Anonymous,Bitstream Sans Mono,monospace;font-size:15.2px" >Publisher </text>

	<text x="224.1" y="60.8" id="text0" fill="#000" stroke="none" style="font-family:Consolas,Monaco,Anonymous Pro,Anonymous,Bitstream Sans Mono,monospace;font-size:15.2px" >PUB </text>

</g>
<g id="group9">
	<path id="path9" filter="url(#dsFilter)" fill="#fff" d="M 184.5 162 Q 184.5 152 194.5 152 L 282.5 152 Q 292.5 152 292.5 162 L 292.5 238 Q 292.5 248 282.5 248 L 194.5 248 Q 184.5 248 184.5 238 Z" />
	<text x="224.1" y="172.8" id="text9" fill="#000" stroke="none" style="font-family:Consolas,Monaco,Anonymous Pro,Anonymous,Bitstream Sans Mono,monospace;font-size:15.2px" >SUB </text>

	<text x="197.1" y="204.8" id="text9" fill="#000" stroke="none" style="font-family:Consolas,Monaco,Anonymous Pro,Anonymous,Bitstream Sans Mono,monospace;font-size:15.2px" >Subscriber </text>

	<text x="215.1" y="236.8" id="text9" fill="#000" stroke="none" style="font-family:Consolas,Monaco,Anonymous Pro,Anonymous,Bitstream Sans Mono,monospace;font-size:15.2px" >PUSH </text>

</g>
<g id="group21">
	<path id="path21" filter="url(#dsFilter)" fill="#fff" d="M 40.5 338 Q 40.5 328 50.5 328 L 138.5 328 Q 148.5 328 148.5 338 L 148.5 392 L 40.5 392 Z" />
	<text x="71.1" y="348.8" id="text21" fill="#000" stroke="none" style="font-family:Consolas,Monaco,Anonymous Pro,Anonymous,Bitstream Sans Mono,monospace;font-size:15.2px" >PULL </text>

	<text x="62.1" y="380.8" id="text21" fill="#000" stroke="none" style="font-family:Consolas,Monaco,Anonymous Pro,Anonymous,Bitstream Sans Mono,monospace;font-size:15.2px" >Worker </text>

</g>
<g id="group23">
	<path id="path23" filter="url(#dsFilter)" fill="#fff" d="M 184.5 338 Q 184.5 328 194.5 328 L 282.5 328 Q 292.5 328 292.5 338 L 292.5 392 L 184.5 392 Z" />
	<text x="215.1" y="348.8" id="text23" fill="#000" stroke="none" style="font-family:Consolas,Monaco,Anonymous Pro,Anonymous,Bitstream Sans Mono,monospace;font-size:15.2px" >PULL </text>

	<text x="206.1" y="380.8" id="text23" fill="#000" stroke="none" style="font-family:Consolas,Monaco,Anonymous Pro,Anonymous,Bitstream Sans Mono,monospace;font-size:15.2px" >Worker </text>

</g>
<g id="group25">
	<path id="path25" filter="url(#dsFilter)" fill="#fff" d="M 328.5 338 Q 328.5 328 338.5 328 L 426.5 328 Q 436.5 328 436.5 338 L 436.5 392 L 328.5 392 Z" />
	<text x="359.1" y="348.8" id="text25" fill="#000" stroke="none" style="font-family:Consolas,Monaco,Anonymous Pro,Anonymous,Bitstream Sans Mono,monospace;font-size:15.2px" >PULL </text>

	<text x="350.1" y="380.8" id="text25" fill="#000" stroke="none" style="font-family:Consolas,Monaco,Anonymous Pro,Anonymous,Bitstream Sans Mono,monospace;font-size:15.2px" >Worker </text>

</g>
</g>
<g id="lines" stroke="black" stroke-width="2" fill="none" >
<g id="group171">
	<path id="path171" d="M 40.5 360 L 148.5 360 " />
</g>
<g id="group331">
	<path id="path331" marker-start="url(#iPointer)" marker-end="url(#Pointer)" d="M 94.5 312 L 94.5 290 Q 94.5 280 104.5 280 L 238.5 280 L 372.5 280 Q 382.5 280 382.5 290 L 382.5 312 " />
</g>
<g id="group584">
	<path id="path584" d="M 184.5 40 L 292.5 40 " />
</g>
<g id="group594">
	<path id="path594" d="M 184.5 184 L 292.5 184 " />
</g>
<g id="group597">
	<path id="path597" d="M 184.5 216 L 292.5 216 " />
</g>
<g id="group607">
	<path id="path607" d="M 184.5 360 L 292.5 360 " />
</g>
<g id="group727">
	<path id="path727" stroke-dasharray="5 5" d="M 229.5 104 L 14.5 104 Q 4.5 104 4.5 114 L 4.5 398 Q 4.5 408 14.5 408 L 462.5 408 Q 472.5 408 472.5 398 L 472.5 114 Q 472.5 104 462.5 104 L 238.5 104 " />
</g>
<g id="group752">
	<path id="path752" d="M 238.5 72 L 238.5 104 " />
</g>
<g id="group757">
	<path id="path757" marker-start="url(#iPointer)" d="M 238.5 136 L 238.5 104 " />
</g>
<g id="group764">
	<path id="path764" marker-end="url(#Pointer)" d="M 238.5 248 L 238.5 280 L 238.5 312 " />
</g>
<g id="group1042">
	<path id="path1042" d="M 328.5 360 L 436.5 360 " />
</g>
</g>
<g id="text" fill="black" style="font-family:Consolas,Monaco,Anonymous Pro,Anonymous,Bitstream Sans Mono,monospace;font-size:15.2px" >
<text x="386.1" y="124.8" id="text2" fill="#000" >Fast box </text>
</g>
</svg>
