<?xml version="1.0" standalone="no"?>
<!DOCTYPE svg PUBLIC "-//W3C//DTD SVG 1.1//EN" 
  "http://www.w3.org/Graphics/SVG/1.1/DTD/svg11.dtd">
<!-- Created with ASCIIToSVG (http://9vx.org/~dho/a2s/) -->
<svg width="405px" height="416px" version="1.1"
  xmlns="http://www.w3.org/2000/svg" xmlns:xlink="http://www.w3.org/1999/xlink">
  <defs>
    <filter id="dsFilter" width="150%" height="150%">
      <feOffset result="offOut" in="SourceGraphic" dx="3" dy="3"/>
      <feColorMatrix result="matrixOut" in="offOut" type="matrix" values="0.2 0 0 0 0 0 0.2 0 0 0 0 0 0.2 0 0 0 0 0 1 0"/>
      <feGaussianBlur result="blurOut" in="matrixOut" stdDeviation="3"/>
      <feBlend in="SourceGraphic" in2="blurOut" mode="normal"/>
    </filter>
    <marker id="iPointer"
      viewBox="0 0 10 10" refX="5" refY="5" 
      markerUnits="strokeWidth"
      markerWidth="8" markerHeight="7"
      orient="auto">
      <path d="M 10 0 L 10 10 L 0 5 z" />
    </marker>
    <marker id="Pointer"
      viewBox="0 0 10 10" refX="5" refY="5" 
      markerUnits="strokeWidth"
      markerWidth="8" markerHeight="7"
      orient="auto">
      <path d="M 0 0 L 10 5 L 0 10 z" />
    </marker>
  </defs><g id="boxes" stroke="black" stroke-width="2" fill="none" >
<g id="group0">
	<path id="path0" filter="url(#dsFilter)" fill="#fff" d="M 4.5 8 L 112.5 8 L 112.5 62 Q 112.5 72 102.5 72 L 14.5 72 Q 4.5 72 4.5 62 Z" />
	<text x="26.1" y="44.8" id="text0" fill="#000" stroke="none" style="font-family:Consolas,Monaco,Anonymous Pro,Anonymous,Bitstream Sans Mono,monospace;font-size:15.2px" >Client </text>

</g>
<g id="group2">
	<path id="path2" filter="url(#dsFilter)" fill="#fff" d="M 148.5 8 L 256.5 8 L 256.5 62 Q 256.5 72 246.5 72 L 158.5 72 Q 148.5 72 148.5 62 Z" />
	<text x="170.1" y="44.8" id="text2" fill="#000" stroke="none" style="font-family:Consolas,Monaco,Anonymous Pro,Anonymous,Bitstream Sans Mono,monospace;font-size:15.2px" >Client </text>

</g>
<g id="group4">
	<path id="path4" filter="url(#dsFilter)" fill="#fff" d="M 292.5 8 L 400.5 8 L 400.5 62 Q 400.5 72 390.5 72 L 302.5 72 Q 292.5 72 292.5 62 Z" />
	<text x="314.1" y="44.8" id="text4" fill="#000" stroke="none" style="font-family:Consolas,Monaco,Anonymous Pro,Anonymous,Bitstream Sans Mono,monospace;font-size:15.2px" >Client </text>

</g>
<g id="group15">
	<path id="path15" filter="url(#dsFilter)" fill="#fff" d="M 148.5 178 Q 148.5 168 158.5 168 L 246.5 168 Q 256.5 168 256.5 178 L 256.5 222 Q 256.5 232 246.5 232 L 158.5 232 Q 148.5 232 148.5 222 Z" />
	<text x="170.1" y="204.8" id="text15" fill="#000" stroke="none" style="font-family:Consolas,Monaco,Anonymous Pro,Anonymous,Bitstream Sans Mono,monospace;font-size:15.2px" >Broker </text>

</g>
<g id="group22">
	<path id="path22" filter="url(#dsFilter)" fill="#fff" d="M 4.5 338 Q 4.5 328 14.5 328 L 102.5 328 Q 112.5 328 112.5 338 L 112.5 392 L 4.5 392 Z" />
	<text x="26.1" y="348.8" id="text22" fill="#000" stroke="none" style="font-family:Consolas,Monaco,Anonymous Pro,Anonymous,Bitstream Sans Mono,monospace;font-size:15.2px" >&quot;Water&quot; </text>

	<text x="26.1" y="380.8" id="text22" fill="#000" stroke="none" style="font-family:Consolas,Monaco,Anonymous Pro,Anonymous,Bitstream Sans Mono,monospace;font-size:15.2px" >Worker </text>

</g>
<g id="group24">
	<path id="path24" filter="url(#dsFilter)" fill="#fff" d="M 148.5 338 Q 148.5 328 158.5 328 L 246.5 328 Q 256.5 328 256.5 338 L 256.5 392 L 148.5 392 Z" />
	<text x="179.1" y="348.8" id="text24" fill="#000" stroke="none" style="font-family:Consolas,Monaco,Anonymous Pro,Anonymous,Bitstream Sans Mono,monospace;font-size:15.2px" >&quot;Tea&quot; </text>

	<text x="170.1" y="380.8" id="text24" fill="#000" stroke="none" style="font-family:Consolas,Monaco,Anonymous Pro,Anonymous,Bitstream Sans Mono,monospace;font-size:15.2px" >Worker </text>

</g>
<g id="group26">
	<path id="path26" filter="url(#dsFilter)" fill="#fff" d="M 292.5 338 Q 292.5 328 302.5 328 L 390.5 328 Q 400.5 328 400.5 338 L 400.5 392 L 292.5 392 Z" />
	<text x="305.1" y="348.8" id="text26" fill="#000" stroke="none" style="font-family:Consolas,Monaco,Anonymous Pro,Anonymous,Bitstream Sans Mono,monospace;font-size:15.2px" >&quot;Coffee&quot; </text>

	<text x="314.1" y="380.8" id="text26" fill="#000" stroke="none" style="font-family:Consolas,Monaco,Anonymous Pro,Anonymous,Bitstream Sans Mono,monospace;font-size:15.2px" >Worker </text>

</g>
</g>
<g id="lines" stroke="black" stroke-width="2" fill="none" >
<g id="group62">
	<path id="path62" d="M 4.5 360 L 112.5 360 " />
</g>
<g id="group202">
	<path id="path202" marker-start="url(#iPointer)" marker-end="url(#Pointer)" d="M 58.5 88 L 58.5 110 Q 58.5 120 68.5 120 L 202.5 120 L 336.5 120 Q 346.5 120 346.5 110 L 346.5 88 " />
</g>
<g id="group216">
	<path id="path216" marker-start="url(#iPointer)" marker-end="url(#Pointer)" d="M 58.5 312 L 58.5 290 Q 58.5 280 68.5 280 L 202.5 280 L 336.5 280 Q 346.5 280 346.5 290 L 346.5 312 " />
</g>
<g id="group479">
	<path id="path479" d="M 148.5 360 L 256.5 360 " />
</g>
<g id="group619">
	<path id="path619" marker-start="url(#iPointer)" marker-end="url(#Pointer)" d="M 202.5 88 L 202.5 120 L 202.5 152 " />
</g>
<g id="group629">
	<path id="path629" marker-start="url(#iPointer)" marker-end="url(#Pointer)" d="M 202.5 248 L 202.5 280 L 202.5 312 " />
</g>
<g id="group896">
	<path id="path896" d="M 292.5 360 L 400.5 360 " />
</g>
</g>
<g id="text" fill="black" style="font-family:LMMono10,monospace;font-size:15.2px" >
<text x="-0.9" y="140.8" id="text3" fill="#000" >&quot;Give me coffee&quot; </text>
<text x="287.1" y="140.8" id="text4" fill="#000" >&quot;Give me tea&quot;</text>
</g>
</svg>
