<?xml version="1.0" standalone="no"?>
<!DOCTYPE svg PUBLIC "-//W3C//DTD SVG 1.1//EN" 
  "http://www.w3.org/Graphics/SVG/1.1/DTD/svg11.dtd">
<!-- Created with ASCIIToSVG (http://9vx.org/~dho/a2s/) -->
<svg width="459px" height="336px" version="1.1"
  xmlns="http://www.w3.org/2000/svg" xmlns:xlink="http://www.w3.org/1999/xlink">
  <defs>
    <filter id="dsFilter" width="150%" height="150%">
      <feOffset result="offOut" in="SourceGraphic" dx="3" dy="3"/>
      <feColorMatrix result="matrixOut" in="offOut" type="matrix" values="0.2 0 0 0 0 0 0.2 0 0 0 0 0 0.2 0 0 0 0 0 1 0"/>
      <feBlend in="SourceGraphic" in2="matrixOut" mode="normal"/>
    </filter>
    <marker id="iPointer"
      viewBox="0 0 10 10" refX="5" refY="5" 
      markerUnits="strokeWidth"
      markerWidth="8" markerHeight="7"
      orient="auto">
      <path d="M 10 0 L 10 10 L 0 5 z" />
    </marker>
    <marker id="Pointer"
      viewBox="0 0 10 10" refX="5" refY="5" 
      markerUnits="strokeWidth"
      markerWidth="8" markerHeight="7"
      orient="auto">
      <path d="M 0 0 L 10 5 L 0 10 z" />
    </marker>
  </defs><g id="boxes" stroke="black" stroke-width="2" fill="none" >
<g id="group0">
	<path id="path0" filter="url(#dsFilter)" fill="#fff" d="M 139.5 8 L 346.5 8 L 346.5 62 Q 346.5 72 336.5 72 L 149.5 72 Q 139.5 72 139.5 62 Z" />
	<text x="215.1" y="28.8" id="text0" fill="#000" stroke="none" style="font-family:LMMono10,monospace;font-size:15.2px" >Server </text>

	<text x="152.1" y="60.8" id="text0" fill="#000" stroke="none" style="font-family:LMMono10,monospace;font-size:15.2px" >PUB </text>

	<text x="215.1" y="60.8" id="text0" fill="#000" stroke="none" style="font-family:LMMono10,monospace;font-size:15.2px" >ROUTER </text>

	<text x="296.1" y="60.8" id="text0" fill="#000" stroke="none" style="font-family:LMMono10,monospace;font-size:15.2px" >PULL </text>

</g>
<g id="group18">
	<path id="path18" filter="url(#dsFilter)" fill="#fff" d="M 4.5 258 Q 4.5 248 14.5 248 L 192.5 248 Q 202.5 248 202.5 258 L 202.5 312 L 4.5 312 Z" />
	<text x="17.1" y="268.8" id="text18" fill="#000" stroke="none" style="font-family:LMMono10,monospace;font-size:15.2px" >SUB </text>

	<text x="71.1" y="268.8" id="text18" fill="#000" stroke="none" style="font-family:LMMono10,monospace;font-size:15.2px" >DEALER </text>

	<text x="152.1" y="268.8" id="text18" fill="#000" stroke="none" style="font-family:LMMono10,monospace;font-size:15.2px" >PUSH </text>

	<text x="71.1" y="300.8" id="text18" fill="#000" stroke="none" style="font-family:LMMono10,monospace;font-size:15.2px" >Client </text>

</g>
<g id="group24">
	<path id="path24" filter="url(#dsFilter)" fill="#fff" d="M 256.5 258 Q 256.5 248 266.5 248 L 444.5 248 Q 454.5 248 454.5 258 L 454.5 312 L 256.5 312 Z" />
	<text x="269.1" y="268.8" id="text24" fill="#000" stroke="none" style="font-family:LMMono10,monospace;font-size:15.2px" >SUB </text>

	<text x="323.1" y="268.8" id="text24" fill="#000" stroke="none" style="font-family:LMMono10,monospace;font-size:15.2px" >DEALER </text>

	<text x="404.1" y="268.8" id="text24" fill="#000" stroke="none" style="font-family:LMMono10,monospace;font-size:15.2px" >PUSH </text>

	<text x="323.1" y="300.8" id="text24" fill="#000" stroke="none" style="font-family:LMMono10,monospace;font-size:15.2px" >Client </text>

</g>
</g>
<g id="lines" stroke="black" stroke-width="2" fill="none" >
<g id="group59">
	<path id="path59" d="M 4.5 280 L 58.5 280 L 139.5 280 L 202.5 280 " />
</g>
<g id="group120">
	<path id="path120" marker-start="url(#iPointer)" marker-end="url(#Pointer)" d="M 31.5 232 L 31.5 194 Q 31.5 184 41.5 184 L 166.5 184 L 273.5 184 Q 283.5 184 283.5 194 L 283.5 232 " />
</g>
<g id="group184">
	<path id="path184" d="M 58.5 248 L 58.5 280 " />
</g>
<g id="group267">
	<path id="path267" marker-start="url(#iPointer)" d="M 94.5 216 L 94.5 248 " />
</g>
<g id="group361">
	<path id="path361" d="M 139.5 40 L 202.5 40 L 283.5 40 L 346.5 40 " />
</g>
<g id="group375">
	<path id="path375" d="M 139.5 248 L 139.5 280 " />
</g>
<g id="group428">
	<path id="path428" d="M 166.5 72 L 166.5 152 " />
</g>
<g id="group435">
	<path id="path435" d="M 166.5 168 L 166.5 184 " />
</g>
<g id="group438">
	<path id="path438" marker-start="url(#iPointer)" d="M 166.5 216 L 166.5 248 " />
</g>
<g id="group511">
	<path id="path511" d="M 202.5 40 L 202.5 72 " />
</g>
<g id="group599">
	<path id="path599" marker-start="url(#iPointer)" d="M 238.5 88 L 238.5 142 Q 238.5 152 248.5 152 L 336.5 152 Q 346.5 152 346.5 162 L 346.5 248 " />
</g>
<g id="group653">
	<path id="path653" d="M 256.5 280 L 310.5 280 L 391.5 280 L 454.5 280 " />
</g>
<g id="group702">
	<path id="path702" d="M 283.5 40 L 283.5 72 " />
</g>
<g id="group779">
	<path id="path779" d="M 310.5 248 L 310.5 280 " />
</g>
<g id="group791">
	<path id="path791" marker-start="url(#iPointer)" d="M 319.5 88 L 319.5 110 Q 319.5 120 329.5 120 L 408.5 120 Q 418.5 120 418.5 130 L 418.5 248 " />
</g>
<g id="group969">
	<path id="path969" d="M 391.5 248 L 391.5 280 " />
</g>
</g>
<g id="text" fill="black" style="font-family:LMMono10,monospace;font-size:15.2px" >
<text x="332.1" y="108.8" id="text4" fill="#000" >state update</text>
<text x="251.1" y="140.8" id="text5" fill="#000" >state request </text>
<text x="134.1" y="156.8" id="text6" fill="#000" >updates </text>
</g>
</svg>
